<svg xmlns="http://www.w3.org/2000/svg" width="500" height="500"><path fill="#FEFEFE" d="M0 0h500v500H0V0Z"/><path fill="#50709B" d="M253 154h3c.948 4.837 1.056 7.546-1 12a127.16 127.16 0 0 0-1 6l2.59-.98c3.498-1.046 6.333-1.32 9.973-1.333l3.316-.05c4.73.55 7.248 2.42 10.433 5.863 3.898 8.084 1.652 15.94-1.174 24.065-2.334 6.32-5.418 11.854-9.138 17.435l2.988-.219c9.86-.662 19.692-.89 29.575-.906l3.659-.014 3.407.006 3.065.004C315 216 315 216 316 217c.04 1.666.043 3.334 0 5-4.154 1.135-8.27 1.337-12.554 1.557l-2.613.143c-2.856.156-5.712.306-8.567.456l-5.989.325c-5.268.286-10.535.567-15.803.847-6.346.338-12.691.681-19.037 1.024-4.95.268-9.901.534-14.852.798-10.532.563-21.06 1.168-31.585 1.85-.585 3.82-1.128 7.534-1.098 11.402l.01 2.256.025 2.28.014 2.36c.012 1.901.03 3.802.049 5.702l1.928-.007c54.164-.18 54.164-.18 75.197.382.672.015 1.344.03 2.037.047 21.654.517 21.654.517 30.838 3.578v2l-2 1 1.395 2.504c1.73 3.77 2.611 7.375 3.293 11.433l.385 2.221c1.172 7.308 1.217 14.456.927 21.842l-6 2 1.813.5c4.586 3.145 5.335 9.627 6.375 14.813 1.324 8.506.948 17.107.812 25.687-12.998 2.094-25.929 3.757-39.063 4.688l-2.62.19c-15.996 1.131-31.972 1.418-48.005 1.435l-3.385.01c-3.188.006-6.376-.005-9.564-.022l-2.867.002c-5.213-.055-9.559-.604-14.496-2.303l1-2c12-3.334 24.633-3.878 37-4.625l2.945-.188c23.33-1.477 46.684-1.906 70.055-2.187-.114-2.897-.241-5.792-.375-8.688l-.094-2.474c-.202-6.205-.202-6.205-2.531-11.838-2.269-.902-2.269-.902-5-1l-2.94-.299c-14.274-.945-28.572-1.016-42.873-1.201-15.507-.204-31.01-.432-46.511-.969l-3.487-.113-3.184-.12-2.794-.1C200 309 200 309 198 308v-7c9.268-5.599 25.254-4.486 35.75-5.063l2.163-.123c23.991-1.362 48.057-2.086 72.087-1.814-.139-3.271-.287-6.542-.438-9.813l-.119-2.814-.127-2.705-.11-2.491c-.14-2.356-.14-2.356-1.206-5.177-8.63-4.315-23.73-2.244-33.348-2.415-2.834-.051-5.669-.108-8.503-.166-8.048-.164-16.096-.322-24.144-.469-4.95-.09-9.901-.19-14.851-.295-1.875-.038-3.75-.073-5.624-.104-2.62-.043-5.238-.099-7.858-.156l-2.311-.03-2.19-.055-1.867-.035c-3.493-.417-6.892-1.422-10.304-2.275l-1 67c-4.308 2.154-4.308 2.154-8 1-3.877-.13-3.877-.13-7.125.625L176 334c-2-2-2-2-2.246-4.354l.005-3.012-.008-3.45.022-3.804v-3.99c-.002-3.618.01-7.236.024-10.853.013-3.779.014-7.557.016-11.335.006-7.158.023-14.315.043-21.473.022-8.147.033-16.294.043-24.442.021-16.762.057-33.525.101-50.287h20l1 37 3-10c2.686-1.558 2.686-1.558 6-2l3.802-.594c1.407-.165 2.814-.324 4.221-.476l2.262-.26c2.362-.272 4.726-.533 7.09-.795l4.832-.55c3.93-.449 7.861-.89 11.793-1.325l-2.328-3.078c-2.425-3.396-3.998-6.733-5.422-10.672l-1.234-3.36c-1.458-4.148-2.2-7.363-2.266-11.765l-.078-3.117c.508-4.655 2.402-7.175 5.828-10.258 3.972-2.78 6.955-2.863 11.688-2.813l3.292.028L250 173l-.105-2.633c-.27-11.446-.27-11.446 3.105-16.367Z"/><path fill="#FCDCBD" d="M201 309c17.719-.065 35.428.078 53.145.372 2.671.044 5.343.086 8.014.125 40.705.597 40.705.597 47.841 3.503 2.84 4.243 2.226 9.393 2.125 14.313l-.027 2.533c-.024 2.051-.06 4.103-.098 6.154-3.85 1.283-7.506 1.176-11.52 1.21l-5.412.081-2.902.04c-17.8.261-35.53.963-53.291 2.169l-2.95.2c-9.651.658-19.298 1.344-28.925 2.3v-4l-2-1 .938-1.813c1.164-2.277 1.164-2.277 2.062-5.187h-2l2-5h-2l2-5-2-1 1-6h-2v-3l-4-1Z"/><path fill="#FBE0C0" d="m310 223-1 4h-3l2 1.875c2 2.125 2 2.125 2 4.125h-4v2l4 2v2l-3 1 2 4-2 1 1 2.125c1.093 3.143 1.073 5.573 1 8.875l-2.325-.201c-8.473-.697-16.928-1.076-25.425-1.299l-2.134-.06c-25.034-.692-50.077-1.034-75.116-1.44-1.51-3.019-1.17-5.831-1.188-9.188l-.042-3.917c.232-3.923 1.096-7.15 2.23-10.895 11.236-1.562 22.404-2.504 33.73-3.07l4.95-.26a5064.3 5064.3 0 0 1 10.284-.53c4.357-.22 8.713-.448 13.07-.679 3.396-.18 6.793-.355 10.19-.53l4.816-.251c9.33-.49 18.614-.798 27.96-.68Z"/><path fill="#FAE0C1" d="M202 267c22.068-.116 44.123-.024 66.188.438l3.005.059c31.507.636 31.507.636 35.807 3.503.96 2.883 1.117 4.677 1.098 7.668l-.01 2.705-.026 2.815-.013 2.85c-.012 2.32-.028 4.641-.049 6.962-11.605.685-23.207 1.1-34.828 1.381-23.435.573-46.785 2.046-70.172 3.619v-4h-2a56.54 56.54 0 0 1 4-7h-3l3-6-3-1 3-4h-3a56.54 56.54 0 0 1 4-7h-4v-3Z"/><path fill="#F8C44F" d="M174 197h20a5085.033 5085.033 0 0 1 .601 27.879c.466 24.652.341 49.28-.038 73.934l-.04 2.523A9892.386 9892.386 0 0 1 194 332c-3.75 2.047-3.75 2.047-6 1.625l-2-.625c-3.877-.13-3.877-.13-7.125.625L176 334c-2-2-2-2-2.246-4.354l.005-3.012-.008-3.45.022-3.804v-3.99c-.002-3.618.01-7.236.024-10.853.013-3.779.014-7.557.016-11.335.006-7.158.023-14.315.043-21.473.022-8.147.033-16.294.043-24.442.021-16.762.057-33.525.101-50.287Z"/><path fill="#E64C5A" d="M253 154h3c.948 4.837 1.056 7.546-1 12a127.16 127.16 0 0 0-1 6l2.59-.98c3.498-1.046 6.333-1.32 9.973-1.333l3.316-.05c4.73.55 7.248 2.42 10.433 5.863 3.898 8.083 1.655 15.945-1.177 24.067-1.889 5.108-4.132 9.89-7.135 14.433l-1.11 2.227c-2.567 2.408-4.742 2.154-8.148 2.076l-2.367-.115c-2.793-.094-5.58-.156-8.375-.188l-1 1c-2.582.273-2.582.273-5.813.375l-3.207.148C239 219 239 219 236.81 216.843 230.116 206.322 225.392 195.688 227 183c2.5-5 5.632-8.21 11-10 2.061-.069 4.125-.085 6.188-.063l3.292.028L250 173l-.105-2.633c-.27-11.446-.27-11.446 3.105-16.367Z"/><path fill="#D86067" d="M313.207 301.035c2.793.965 2.793.965 4.918 4.34.346 1.53.634 3.075.875 4.625l.598 2.527c1.99 9.4 1.554 18.923 1.402 28.473-12.998 2.094-25.929 3.757-39.063 4.688l-2.62.19c-15.996 1.131-31.972 1.418-48.005 1.435l-3.385.01c-3.188.006-6.376-.005-9.564-.022l-2.867.002c-5.213-.055-9.559-.604-14.496-2.303l1-2c12-3.334 24.633-3.878 37-4.625l2.945-.188c23.33-1.477 46.684-1.906 70.055-2.187-.114-2.897-.241-5.792-.375-8.688-.03-.816-.062-1.633-.094-2.474-.202-6.205-.202-6.205-2.531-11.838-2.269-.902-2.269-.902-5-1l-2.94-.299c-14.274-.945-28.572-1.016-42.873-1.201-15.507-.204-31.01-.432-46.511-.969l-3.487-.113-3.184-.12-2.794-.1C200 309 200 309 198 308v-4l1.669.02c26.721.307 53.338.18 80.018-1.457l3.386-.205c3.147-.193 6.293-.396 9.439-.604l2.84-.183 2.58-.182 2.248-.155c8.285-1.066 8.285-1.066 13.027-.199Z"/><path fill="#7891B5" d="M269 216a9720.59 9720.59 0 0 1 19.598-.055c2.225-.005 4.449-.012 6.673-.02 3.19-.013 6.38-.018 9.569-.023l3.033-.015h2.79l2.47-.007C315 216 315 216 316 217c.04 1.666.043 3.334 0 5-4.154 1.135-8.27 1.337-12.554 1.557l-2.613.143c-2.856.156-5.712.306-8.567.456l-5.989.325c-5.268.286-10.535.567-15.803.847-6.346.338-12.691.681-19.037 1.024-4.95.268-9.901.534-14.852.798-10.532.563-21.06 1.168-31.585 1.85-.585 3.82-1.128 7.534-1.098 11.402l.01 2.256.025 2.28.014 2.36c.012 1.901.03 3.802.049 5.702l1.928-.007c54.164-.18 54.164-.18 75.197.382.672.015 1.344.03 2.037.047 21.654.517 21.654.517 30.838 3.578v2c-3.481 2.176-5.775 2.072-9.802 1.625-9.382-.821-18.724-.706-28.137-.639-3.295.022-6.59.036-9.885.048-9.356.033-18.713.075-28.07.137-5.747.038-11.495.061-17.243.075-2.187.008-4.373.021-6.56.04-3.04.027-6.079.035-9.118.039l-2.746.037c-2.496-.008-2.496-.008-6.439-.362-4.291-6.437-2.558-17.191-1.313-24.61.299-1.445.61-2.888.938-4.327l.424-2.06c.49-1.905.49-1.905 1.951-5.003 5.09-2.815 11.774-2.899 17.5-3.563l3.311-.394c8.448-.956 16.873-1.497 25.37-1.752l2.592-.08 2.264-.053c2.177-.096 2.177-.096 4.963-1.158 2.58.087 5.117.229 7.688.438l2.126.158c1.73.13 3.458.266 5.186.404v-2Z"/><path fill="#CB992D" d="M174 197h20a5085.033 5085.033 0 0 1 .601 27.879c.466 24.652.341 49.28-.038 73.934l-.04 2.523A9892.386 9892.386 0 0 1 194 332l-4 2-4-3h7V208h-2v119h-1l-1-88-2 9h-2v79h-2l-1-118c-.21 37.711-.21 37.711-.388 75.423-.05 7.286-.05 7.286-.077 10.695-.016 2.386-.026 4.771-.032 7.157-.01 3.61-.038 7.218-.07 10.828 0 1.066.002 2.133.004 3.232l-.038 2.938-.014 2.562c-.471 2.65-1.257 3.563-3.385 5.165h-2l-.013-1.85c-.103-14.847-.212-29.694-.326-44.542-.056-7.18-.11-14.36-.158-21.54-.043-6.257-.09-12.514-.14-18.77-.026-3.315-.05-6.629-.072-9.942-.024-3.698-.054-7.395-.086-11.092l-.017-3.339-.03-3.047-.02-2.65c-.053-2.401-.053-2.401-1.138-5.228v-8Z"/><path fill="#3C6EA1" d="m207.115 258.87 2.83-.005c3.097-.004 6.195-.001 9.293.002a10052.77 10052.77 0 0 1 20.09.002 8590.4 8590.4 0 0 0 17.345-.003c4.467-.004 8.934-.002 13.402 0 2.129 0 4.258 0 6.387-.002 6.514-.006 13.025.022 19.538.136l2.298.04c2 .047 3.998.131 5.996.218l3.246.137c2.46.605 2.46.605 3.817 2.651L312 264c-1 1.437-1 1.437-3 3-6.676 1.167-13.3 1.145-20.062 1.133l-3.543.004c-3.798.002-7.597-.004-11.395-.012l-3.914-.005c-16.74-.023-33.475-.128-50.211-.495l-2.486-.046c-2.3-.045-4.598-.103-6.897-.165l-3.832-.095c-4.096-.357-7.702-1.227-11.66-2.319v-5c4.03-1.343 7.913-1.139 12.115-1.13Z"/><path fill="#E9D8C6" d="M202 267c22.068-.116 44.123-.024 66.188.438l3.005.059c31.507.636 31.507.636 35.807 3.503l-1 2-2.625-1c-3.332-.987-5.927-1.164-9.375-1l1 4-54-2v2l17 1v4h-52l-1 4v-2l-3-1 3-4h-3a56.54 56.54 0 0 1 4-7h-4v-3Z"/><path fill="#FCE0C1" d="m201 309 17 1v4l22 2v1l-28 1v3l2 .076c3.021.117 6.042.24 9.063.361l3.146.12c5.331.22 10.528.555 15.791 1.443l-2 4h-4v4l4 2-22 2v3l5 1v1l-16 2v-4l-2-1 .938-1.813c1.164-2.277 1.164-2.277 2.062-5.187h-2l2-5h-2l2-5-2-1 1-6h-2v-3l-4-1Z"/><path fill="#3B6FA4" d="m309 294 2 1Zm-7.188.938 2.1.013c1.696.012 3.392.03 5.088.049-1.152 1.957-1.152 1.957-3 4-2.629.574-2.629.574-5.563.688-3.865.084-3.865.084-7.437 1.312-1.923.142-3.85.226-5.777.281l-3.494.114-3.666.105c-2.385.069-4.769.142-7.153.219l-3.214.092c-2.794.084-2.794.084-5.696 1.189-2.07.09-4.143.118-6.216.114h-3.882l-4.195-.016-4.292-.005c-3.763-.003-7.526-.013-11.289-.024-3.84-.01-7.682-.015-11.522-.02A16500.9 16500.9 0 0 1 200 303l1-3 3.457-.168c4.223-.206 8.446-.418 12.668-.632 1.83-.091 3.66-.182 5.489-.27 2.626-.127 5.252-.26 7.878-.395l2.488-.117c4.144-.127 4.144-.127 8.02-1.418a76.653 76.653 0 0 1 4.554-.19l2.863-.05 3.103-.041 3.184-.056c3.37-.059 6.739-.112 10.108-.163 4.424-.068 8.847-.141 13.27-.219l3.084-.04 2.892-.052 2.532-.038c5.15-.323 10.002-1.278 15.223-1.214Z"/><path fill="#3E6FA1" d="M203.757 258.886h3.578l3.864.016 3.956.005c3.467.003 6.934.013 10.401.024 3.54.01 7.079.015 10.618.02 6.942.01 13.884.028 20.826.049v1h-14v5h23v2l2 1c-14.462.138-28.917-.006-43.375-.318-1.783-.038-3.566-.072-5.349-.104-2.541-.045-5.082-.103-7.624-.164l-2.286-.035c-5.053-.14-9.498-1.008-14.366-2.379v-5c3.178-1.06 5.418-1.12 8.757-1.114Z"/><path fill="#E4C4A9" d="M233 284h53v4c-3.538 1.18-6.341 1.113-10.074 1.098l-2.072-.005c-2.18-.005-4.361-.018-6.541-.03-1.48-.006-2.96-.01-4.44-.014-3.624-.011-7.249-.028-10.873-.049v5c-4.437.34-8.875.67-13.313 1l-3.767.29c-7.324.537-14.577.847-21.92.71.375-1.938.375-1.938 1-4 3.682-1.841 8.242-1.415 12.322-1.605 3.643.139 3.643.139 6.678-1.395v-5Z"/><path fill="#6B8DBC" d="M205.613 253.918c1.649.015 3.297.035 4.946.06l2.72.03c2.98.032 5.962.073 8.944.113l6.183.072c5.437.063 10.874.132 16.31.202 5.543.07 11.087.135 16.63.2 10.885.13 21.77.265 32.654.405v2h16v2l2 1c-2.764 1.382-4.633.874-7.713.582-10.282-.814-20.564-.815-30.873-.898l-6.464-.063c-5.626-.055-11.251-.105-16.877-.153-5.759-.05-11.517-.106-17.276-.161-11.266-.107-22.531-.209-33.797-.307 2.413-4.987 2.413-4.987 6.613-5.082Z"/><path fill="#E7BEA7" d="M207 309c16.554-.09 33.1.175 49.65.464l10.643.18c6.902.117 13.805.236 20.707.356v1l-5 1 15 1v4c-16.004.2-31.985-.382-47.977-.927-3.62-.123-7.242-.242-10.863-.362-7.053-.234-14.107-.471-21.16-.711l-1-4-10-1v-1Z"/><path fill="#DE5964" d="M255.45 338.886h2.79l3.018.016 3.085.005c3.26.005 6.521.018 9.782.03 2.207.006 4.414.01 6.621.014 5.418.011 10.836.028 16.254.049v4l-3.691.184-4.871.253-2.424.12-2.393.127-2.174.11c-1.9.16-3.793.417-5.677.712-3.567.467-6.937.615-10.531.608h-3.942l-4.2-.016-4.341-.005c-3.79-.003-7.579-.013-11.368-.024-3.875-.01-7.75-.015-11.624-.02-7.588-.01-15.176-.028-22.764-.049v-2l14-1-3-2 2.814.016c3.44.017 6.88.03 10.32.039 1.49.005 2.98.012 4.47.02 2.14.013 4.28.018 6.42.023l3.903.016c3.437-.127 6.01-1.237 9.523-1.228Z"/><path fill="#EB3E3E" d="m281.133 362.59 1.992.348 2.008.277c2.696 1.134 3.499 2.186 4.867 4.785a63.38 63.38 0 0 1 .375 8l.035 2.156c-.017 3.144-.218 5.48-1.691 8.281-1.945 1.768-3.005 2.24-5.594 2.563l-1.992.313c-3.419-.501-4.833-1.764-7.133-4.313-.514-3.045-.703-5.41-.625-8.438l-.059-2.275c.037-4.172.38-5.883 2.965-9.318C279 363 279 363 281.133 362.589Z"/><path fill="#EC3C3B" d="m195.133 362.59 1.992.348 2.008.277c2.696 1.134 3.499 2.186 4.867 4.785a63.38 63.38 0 0 1 .375 8l.035 2.156c-.017 3.143-.217 5.477-1.691 8.278-1.936 1.763-3.017 2.273-5.594 2.628l-1.992.348c-3.598-.692-4.959-2.555-7.133-5.41-.508-2.914-.705-5.11-.625-8l-.059-2.117c.037-3.901.587-5.756 2.965-8.88C193 363 193 363 195.133 362.59Z"/><path fill="#E94343" d="M180 364c2.06 1.579 2.846 2.691 4 5 .123 2.29.176 4.583.188 6.875l.042 3.742c-.214 3.147-.504 4.8-2.23 7.383-2.696 2.097-4.093 1.995-7.563 1.813-3.473-.822-4.349-1.105-6.437-3.813-.642-2.948-.51-5.927-.5-8.938l-.086-2.458c-.014-4.193.009-5.96 2.89-9.174 3.674-1.949 5.744-1.528 9.696-.43Z"/><path fill="#E1C2AA" d="M276 224c7.402-.129 14.64.203 22 1l-1 4c-1.273.08-2.546.16-3.858.244-5.901.373-11.803.751-17.704 1.131l-3.2.205c-18.73 1.202-18.73 1.202-37.426 2.86-5.948.582-11.837.642-17.812.56v-4c3.485-.756 6.883-1.224 10.438-1.5l3.182-.248L234 228l3.484-.265c8.245-.611 16.49-1.083 24.752-1.393 4.657-.186 9.162-.597 13.764-1.342v-1Z"/><path fill="#C5644B" d="M189.813 176.813C192 178 192 178 194 181c.269 4.015.087 7.971 0 12h-20c-.37-12.48-.37-12.48 1.324-14.855 4.41-3.012 9.524-2.767 14.488-1.333Z"/><path fill="#E3C2A8" d="M214 269c49.763-.194 49.763-.194 65.813.375 1.002.03 2.005.062 3.038.094 4.442.19 8.117.451 12.149 2.531v3c-7.903-.24-15.807-.484-23.71-.73-3.672-.115-7.344-.228-11.016-.34-31.19-.95-31.19-.95-46.274-1.93v-3Z"/><path fill="#D6737E" d="m310.125 300.938 3.32.59L316 302v1l-23 1v4c-4.458.03-8.917.047-13.375.063l-3.734.025c-7.654.02-15.233-.229-22.87-.695-9.042-.54-18.09-.742-27.146-.955l-5.246-.131c-4.21-.105-8.42-.207-12.629-.307v-1l3.138-.044c22.672-.34 45.288-1.12 67.924-2.456l3.44-.2c3.22-.187 6.44-.383 9.658-.581l2.936-.174 2.678-.172 2.339-.146c6.97-.84 6.97-.84 10.012-.29Z"/><path fill="#EEC565" d="M174 197h20a5085.033 5085.033 0 0 1 .601 27.879c.466 24.652.341 49.28-.038 73.934l-.04 2.523A9892.386 9892.386 0 0 1 194 332l-4 2-4-3h7V203h-18l-1 2v-8Z"/><path fill="#E63E3E" d="M317 363h4l7 14 1-14h4v26h-4l-8-16-1 16h-3v-26Z"/><path fill="#E04143" d="M295 363h4l7 14 1-14h4v26h-4l-8-16-1 16h-3v-26Z"/><path fill="#E3C4A8" d="M269.25 325.938A6661.434 6661.434 0 0 1 289 326v4.999h-53v-4c11.07-1.277 22.125-1.113 33.25-1.063Z"/><path fill="#E4C4A9" d="M226 242h53v4c-17.664 1.202-35.306 1.104-53 1v-5Z"/><path fill="#889ECA" d="m269 216 7 1v2c-4.75 1.125-4.75 1.125-7 0l-1 4c-15.672.634-31.314 1.174-47 1v-4c7.427-1.057 14.815-1.342 22.307-1.605l2.869-.114 2.59-.092c2.405-.115 2.405-.115 5.234-1.189 2.58.087 5.117.229 7.688.438l2.126.158c1.73.13 3.458.266 5.186.404v-2Z"/><path fill="#DF4040" d="M147 363h4v12h8v-12h4v26h-4v-11h-8v11h-4v-26Z"/><path fill="#E4C3A8" d="m213.943 316.918 2.577.06 2.912.061 3.166.082 3.224.072c3.414.076 6.827.16 10.24.245l6.924.158c5.672.13 11.343.264 17.014.404l1 5c-16.366.128-32.656-.117-49-1-.562-1.937-.562-1.937-1-4 1-1 1-1 2.943-1.082Z"/><path fill="#E5C3A8" d="M208 275c5.514-.025 11.027-.043 16.54-.055 1.872-.005 3.744-.012 5.616-.02 2.706-.013 5.412-.018 8.117-.023l2.495-.015c5.797 0 11.475.441 17.232 1.113v4c-5.192.025-10.384.043-15.576.055-1.761.005-3.522.012-5.283.02-9.765.048-19.422.015-29.141-1.075v-4Z"/><path fill="#EB3E40" d="M254 363h4l1 10 1.39-2.188 1.86-2.812 1.828-2.813L266 363h4c-1.064 3.104-1.997 4.997-4.25 7.438-2.089 2.426-2.089 2.426-1.313 5.25A400.654 400.654 0 0 0 271 389h-5l-5-10h-2l-1 10h-4v-26Z"/><path fill="#6E8FBA" d="M276 217h38l1 4c-1.806.09-1.806.09-3.648.184l-4.727.254-2.406.119c-4.245.132-4.245.132-8.219 1.443-2.105.085-4.213.107-6.32.098l-3.809-.01-3.996-.025c-1.34-.006-2.68-.01-4.02-.014-3.285-.012-6.57-.028-9.855-.049l1-4h7v-2Z"/><path fill="#E3C2A8" d="M303 231c.563 1.938.563 1.938 1 4-2.013 2.013-6 1.396-8.77 1.535l-2.398.13c-1.685.09-3.37.179-5.056.265-2.54.13-5.079.268-7.618.408-8.726.467-17.416.81-26.158.662v-4c11.344-1.06 22.681-2.067 34.063-2.625l2.463-.12c4.162-.19 8.307-.295 12.474-.255Z"/><path fill="#E44C4B" d="M239 364c2 1.875 2 1.875 3 4v3h-4l-1-3c-1.917-.833-1.917-.833-4-1l-2 1c.161 1.919.161 1.919 1 4 2.047 1.53 2.047 1.53 4.5 2.813 4.343 2.724 4.343 2.724 5.75 6.875-.25 3.312-.25 3.312-1.188 5.187-3.25 1.773-6.359 2.5-10.062 2.125-3-2.25-3-2.25-5-5v-3h4l1 3h6v-4l-1.898-.988-2.477-1.325-2.46-1.3C228 375 228 375 226 372c.14-3.346.443-5.31 2.563-7.938 3.613-1.575 6.71-1.241 10.437-.062Z"/><path fill="#CC626B" d="m222 341-1 2h-14v2c8.354-.108 16.708-.22 25.062-.34 3.88-.054 7.76-.108 11.639-.157 3.748-.048 7.495-.1 11.243-.156 1.426-.02 2.852-.039 4.278-.056 2.006-.024 4.011-.055 6.017-.086 1.139-.015 2.278-.03 3.452-.047 3.487-.167 6.859-.634 10.309-1.158 1.83-.074 3.664-.108 5.496-.098l2.94.01 3.002.026 3.083.013c2.493.012 4.986.028 7.479.049v1c-23.234 2.1-46.352 3.31-69.688 3.313l-3.38.01c-3.19.005-6.379-.005-9.569-.022l-2.867.002c-5.214-.055-9.559-.605-14.496-2.303 1-2 1-2 4.313-3.125 5.512-1.285 11.062-1.044 16.687-.875Z"/><path fill="#E44544" d="M120 364c1.938 1.875 1.938 1.875 3 4v3h-4l-1-3-6-1c.306 3.213.549 4.608 3.031 6.766l2.469 1.484 2.469 1.516L122 378c1 1 1 1 1.25 3.875-.25 3.125-.25 3.125-1.313 4.938-2.983 1.828-5.464 2.067-8.937 2.187-2.875-1.125-2.875-1.125-5-3-.813-2.688-.813-2.688-1-5h4l1 4h5l1-5-1.934-1.277-2.504-1.66-2.496-1.653C109 374 109 374 108 373c-.375-3.375-.375-3.375 0-7 3.776-3.662 7.113-3.358 12-2Z"/><path fill="#2E5A89" d="M243 261h47v5l-47-1v-4Z"/><path fill="#95A0B1" d="M204 253c55.797-.195 55.797-.195 77.125.375l2.037.047c21.654.517 21.654.517 30.838 3.578v2h-4v-2h-16v-2h-90v-2Z"/><path fill="#D94644" d="M134.133 362.59c5.36.935 5.36.935 7.867 3.285 1 2.125 1 2.125 1 5.125h-4l-1-3c-1.917-.833-1.917-.833-4-1l-2 1v16c3.747 1.398 3.747 1.398 6 0l1-3h4c-.322 2.975-.621 4.593-2.688 6.813-3.095 1.589-4.872 1.749-8.312 1.187-3.627-2.778-4.87-4.258-5.664-8.813-.013-1.395 0-2.792.039-4.187l-.059-2.117c.037-3.901.587-5.756 2.965-8.88C132 363 132 363 134.133 362.59Z"/><path fill="#DC4A4A" d="M364.133 362.59c5.36.935 5.36.935 7.867 3.285 1 2.125 1 2.125 1 5.125h-4l-1-3c-1.917-.833-1.917-.833-4-1l-2 1v16c3.747 1.398 3.747 1.398 6 0l1-3h4c-.269 3.313-.59 4.639-3.125 6.875-3.772 1.476-5.996 1.203-9.875.125-2.688-2.5-3.003-4.025-3.469-7.715a188.33 188.33 0 0 1-.031-4.223l-.086-2.13c-.015-3.935.464-5.771 2.86-8.932 2.726-2 2.726-2 4.859-2.41Z"/><path fill="#E24140" d="M339 363h14v3l-10 1v7l7 1v3h-8l1 7 10 1v3h-14v-26Z"/><path fill="#E4C3A9" d="M261 247c4.305.119 8.61.243 12.915.372 1.463.043 2.925.085 4.388.125 2.11.059 4.22.122 6.33.187l3.84.11c3.247.19 6.334.602 9.527 1.206v4c-33.384.308-33.384.308-38-2l1-4Z"/><path fill="#F9E2AC" d="M173 182h1l1 13 5 1v1h-6v135h-1c-.154-17.49-.302-34.98-.443-52.471-.065-8.123-.133-16.245-.205-24.367-.063-7.086-.123-14.17-.177-21.256-.029-3.747-.06-7.493-.096-11.24-.033-3.537-.061-7.074-.086-10.612-.014-1.894-.034-3.788-.054-5.681-.05-8.168.37-16.235 1.061-24.373Z"/><path fill="#E3C2A7" d="M255 332v4c-4.428 1.041-8.847 1.328-13.375 1.563l-2.376.128c-7.421.372-14.82.408-22.249.309l1-4c4.291-.34 8.583-.67 12.875-1 1.204-.095 2.408-.19 3.648-.29 6.843-.52 13.615-.853 20.477-.71Z"/><path fill="#F38081" d="M376 363h17v4h-6v22h-4v-22h-6l-1-4Z"/><path fill="#FEEAE9" d="M175.5 366.75c2.5.25 2.5.25 4.5 2.25.3 3.152.3 3.152.313 6.938l.05 3.777C180 383 180 383 178.61 384.953 177 386 177 386 174.937 385.813 173 385 173 385 171 383c-.266-3.188-.266-3.188-.25-7l-.016-3.813c.322-3.864.81-5.041 4.766-5.437Z"/><path fill="#FCF8DB" d="m174 332 1.75.563c2.222.607 2.222.607 4.25-.125 2-.438 2-.438 4.031.175C186 334 186 334 186.97 336.61c1.61 9.52 1.61 9.52-.844 13.141L184 352c-6-7.2-6-7.2-6-12h-2c-1.257-2.906-2-4.796-2-8Z"/><path fill="#BB3A44" d="m232 180 3 1-.324 2.055c-1.09 8.453.155 14.687 4.012 22.257 1.387 2.842 1.587 4.572 1.312 7.688-1.8-.07-1.8-.07-4-1a54.88 54.88 0 0 1-3.188-6.875l-.787-1.934c-1.898-4.699-3.192-8.555-3.275-13.629l-.078-2.87c.376-3.082 1.28-4.412 3.328-6.692Z"/><path fill="#FEF1F1" d="m281 366 5 2v16l-5 2-3-2a61.846 61.846 0 0 1-.375-8l-.035-2.234c.012-2.141.012-2.141.41-5.766l3-2Z"/><path fill="#FEF2F2" d="M195 366c2.688.875 2.688.875 5 2 .027 2.646.047 5.292.063 7.938l.025 2.287A182.68 182.68 0 0 1 200 384c-1 1-1 1-4 1.125-3-.125-3-.125-4-1.125-.153-2.66-.232-5.276-.25-7.938l-.063-2.248c-.015-2.154-.015-2.154.313-5.814l3-2Z"/><path fill="#F4C55C" d="M174 205h1v125l7 1-4 3-4-2V205Z"/><path fill="#F75C32" d="M177 178c4.35-.718 9.865-.504 14 1 2.099 2.898 2 4.284 2 8h-18c0-6 0-6 2-9Z"/><path fill="#D14E4D" d="M209 363h4v23h11v3h-15v-26Z"/><path fill="#E5666F" d="m266.375 169.688 3.398-.051c4.413.497 6.97 2.187 10.164 5.175C281 177 281 177 280.188 180.25L279 183h-4l-.563-1.938c-1.38-2.483-1.38-2.483-5.062-2.812L266 178l-1-4 7-1v-2l-15 1c3.534-2.356 5.186-2.298 9.375-2.313Z"/><path fill="#D9D1CB" d="M279 225v1c-6.52.485-13.041.963-19.563 1.438l-2.908.212c-11.949.868-23.884 1.707-35.865 1.97-4.912.144-8.982.883-13.664 2.38h-2v-3c11.571-1.62 23.083-2.556 34.75-3.125l2.508-.128c12.252-.626 24.472-1.03 36.742-.747Z"/><path fill="#637F9A" d="M269 295v1l-2.539.168c-3.105.207-6.21.418-9.314.632-1.344.091-2.689.181-4.033.27-1.932.128-3.863.261-5.794.395l-3.523.238c-2.748.127-2.748.127-4.797 1.297a70.82 70.82 0 0 1-4.227.316l-2.606.128-2.792.118-2.837.13c-8.184.345-16.348.412-24.538.308v-1c10.255-1.405 20.465-2.432 30.8-3.005 2.134-.12 4.267-.25 6.401-.382 9.941-.587 19.842-.711 29.799-.613Z"/><path fill="#504742" d="M174 197h20v5h-20v-5Z"/><path fill="#D94345" d="M330 363h3v26h-4c-1.858-3.135-2.201-5.375-2-9h3v-17Z"/><path fill="#8AA0CB" d="M252 219h2v4c-11.024 1.007-21.94 1.106-33 1v-3c20.532-1.383 20.532-1.383 30 0l1-2Z"/><path fill="#A45141" d="M253 154h3c.953 4.86 1.016 7.52-1 12-.381 2.326-.725 4.66-1 7l-4-1c-.554-12.67-.554-12.67 3-18Z"/><path fill="#E63D3D" d="M308 363h3v26h-4c-1.125-5.75-1.125-5.75 0-8 .15-1.373.248-2.753.316-4.133l.127-2.441.12-2.551.13-2.574c.107-2.1.207-4.2.307-6.301Z"/><path fill="#E84343" d="M370 364c2 1.875 2 1.875 3 4v3h-4l-1-3c-3.234-1.338-4.414-.896-8 0v16l-2-1a554.863 554.863 0 0 1-.125-6.125l-.07-3.445c.2-3.52.82-6.192 2.195-9.43 3.25-1.625 6.6-.911 10 0Z"/><path fill="#E74644" d="M140 364c2 1.875 2 1.875 3 4v3h-4l-1-3c-3.234-1.338-4.414-.896-8 0v12h-2c-.108-2.27-.186-4.541-.25-6.813l-.14-3.832c.39-3.355.39-3.355 2.152-5.308 3.58-1.674 6.532-1.22 10.238-.047Z"/><path fill="#FEE0DF" d="M163 363h1l1 13 2-10 2 1v19h-4l-2 3v-26Z"/><path fill="#EA5F62" d="M307 363h1c.027 2.875.047 5.75.063 8.625l.025 2.45c.018 4.428-.192 8.564-1.088 12.925-2.642-3.255-4.45-6.657-6.25-10.438l-1.64-3.37c-1.164-3.348-1.178-4.87-.11-8.192 3.058 3.67 4.933 7.723 7 12l1-14Z"/><path fill="#281D21" d="M174 189h19v4h-19v-4Z"/><path fill="#E83D3F" d="M177 364v2l-2.45 1.113c-2.97 1.75-2.97 1.75-3.257 5.68-.06 1.464-.094 2.93-.106 4.394l-.076 2.272A288.983 288.983 0 0 0 171 385h-3c-.08-2.938-.14-5.874-.188-8.813l-.076-2.525-.029-2.432-.048-2.237c.913-5.338 4.671-5.304 9.341-4.993Z"/><path fill="#CE5C66" d="M230 178c0 3 0 3-.21 5.828-.393 8.17.714 13.843 4.164 21.196 2.103 4.542 2.103 4.542 1.73 7.406L235 214c-5.364-10.272-9.502-19.146-8-31 1.52-2.867 1.52-2.867 3-5Z"/><path fill="#FEE8E9" d="M110 375c7.617 3.106 7.617 3.106 9.125 6.625C119 384 119 384 117 386c-2.625-.375-2.625-.375-5-1l-1-4-4-1 3-5Z"/><path fill="#E63E3E" d="M383 366h3v23h-3v-23Z"/><path fill="#DF5253" d="M147 363h4v11h-2l.035 2.012c.09 8.77.09 8.77-1.035 12.988h-1v-26Z"/><path fill="#FEECEC" d="M228 375c3.594 1.335 6.755 2.96 10 5l-1 5h-6l-1-4h-4v-2h3l-1-4Z"/><path fill="#A6A2C2" d="M252 217c2.535.09 5.036.237 7.563.438l2.154.158c1.761.13 3.522.266 5.283.404v1l-2.957.148-3.856.227-3.832.21c-3.483.176-3.483.176-6.355 2.415-2.878-.018-5.64-.142-8.5-.375-1.622-.113-3.245-.224-4.867-.332l-2.394-.163c-4.412-.256-8.822-.218-13.239-.13v-1c7.484-1.068 14.933-1.344 22.482-1.605l2.89-.114 2.622-.092c2.003.026 2.003.026 3.006-1.189Z"/><path fill="#F3DEAD" d="M173 182h1l1 13 5 1v1h-6v43h-1c-.17-6.01-.33-12.02-.482-18.03-.053-2.038-.108-4.077-.166-6.115-.32-11.358-.526-22.535.648-33.855Z"/><path fill="#FED5D5" d="m375 363 2 3 6 1v22c-2-2-2-2-2.227-3.971.01-.786.02-1.571.032-2.38l.02-2.579.05-2.695.027-2.719c.024-2.219.057-4.437.098-6.656h-6l-1 3c-2-3-2-3-2-5h2l1-3Z"/><path fill="#ED3A38" d="M198 365c2.438.375 2.438.375 5 1 1.594 3.188 1.102 6.629 1.063 10.125l-.014 2.285c-.012 1.863-.03 3.727-.049 5.59h-3l-.148-2.887-.227-3.8c-.07-1.242-.14-2.483-.21-3.762-.38-3.244-1.035-5.617-2.415-8.551Z"/><path fill="#EA3A38" d="M210 364h2l1 21 9 2v1h-12v-24Z"/><path fill="#E24C4A" d="M274 368h1v16h2v-15h1l.078 3.21c.056 1.389.114 2.777.172 4.165l.043 2.117c.067 2.285.067 2.285.707 5.508 1.911 1.352 1.911 1.352 4 2l1 3c-6.486-.612-6.486-.612-8.712-2.292-1.576-2.09-1.64-3.128-1.581-5.72l.03-2.295.075-2.38.042-2.417c.035-1.965.089-3.93.146-5.896Z"/><path fill="#E75757" d="M200 370h1v14h2c-.5 1.938-.5 1.938-2 4-2.686.953-5.163 1.264-8 1-2.5-1.938-2.5-1.938-4-4 3.621-1.114 5.912-1 10-1l1-14Z"/><path fill="#FEDDDD" d="M134 366c2.688.875 2.688.875 5 2v2l-6-2 1 15 3 1v-2h2l-1 3c-1.875.813-1.875.813-4 1l-3-2a61.846 61.846 0 0 1-.375-8l-.035-2.234c.012-2.141.012-2.141.41-5.766l3-2Z"/><path fill="#E8DDD1" d="M307 251c2 2 2 2 2 5l-2.2-.199c-9.7-.817-19.384-1.119-29.113-1.363l-4.88-.131c-3.936-.106-7.871-.208-11.807-.307v-1h45l1-2Z"/><path fill="#FEDEDD" d="m364 366 4 2-4 2v13l4 2c-1.813.625-1.813.625-4 1l-3-2a61.846 61.846 0 0 1-.375-8l-.035-2.234c.012-2.141.012-2.141.41-5.766l3-2Z"/><path fill="#406C97" d="M266 265h17v1l5 1v1c-3.292.029-6.583.047-9.875.063l-2.84.025-2.715.01-2.507.016C268 268 268 268 266 267v-2Z"/><path fill="#5C7C9A" d="M195 260h2l1 4 24 1c-3.666 2.444-6.449 2.304-10.688 2.25l-2.173-.012c-5.035-.082-9.379-.651-14.139-2.238v-5Z"/><path fill="#FDF5D2" d="M186 332a176.3 176.3 0 0 1 5 1h3l-5 10h-2c-.361-1.644-.714-3.29-1.063-4.938l-.597-2.777L185 333l1-1Z"/><path fill="#E6403E" d="M262 376c3 1 3 1 4.605 3.723l1.582 3.34 1.606 3.347L271 389h-5c-4.592-8.262-4.592-8.262-4-13Z"/><path fill="#FEE7E6" d="M112 367h6l1 4 4 1-5 1v2c-4.63-1.462-4.63-1.462-6.375-4-.625-2-.625-2 .375-4Z"/><path fill="#F23839" d="M331 365h1v22h-4l-1-7 3-1 1-14Z"/><path fill="#FED6D6" d="M157 362h6l-4 1v12h-8v-12h1v10h5v-11Z"/><path fill="#BB6A7B" d="m310.125 300.938 3.32.59L316 302v1h-34v-1l1.804-.076c2.69-.116 5.38-.239 8.071-.361l2.84-.12 2.715-.127 2.507-.11c7.527-.75 7.527-.75 10.188-.269Z"/><path fill="#6082A4" d="M254 265h12v2l2 1h-25v-1l11-1v-1Z"/><path fill="#8999B2" d="M288 254c3.022.115 6.042.241 9.063.375.847.03 1.695.062 2.568.094 5.106.236 9.517.911 14.369 2.531v2h-4v-2h-16v-2h-6v-1Z"/><path fill="#E7DCD2" d="m310 223-1 4h-3l-1 2v-3l-18-1v-1c7.686-.972 15.259-1.11 23-1Z"/><path fill="#EB6B6A" d="M329 363h1v17h-3l-1 3-4-9 4-1 2 4 1-14Z"/><path fill="#F43636" d="m280 365-.96 1.516c-1.405 3.356-1.502 6.647-1.665 10.234l-.117 2.113A684.735 684.735 0 0 0 277 384h-2v-18c3-1 3-1 5-1Z"/><path fill="#FBC7C7" d="M354 361v7h-10l-1 6h-1c-.042-2.333-.04-4.667 0-7 1-1 1-1 3.285-1.098l2.777.036 2.786.027L353 366v-3h-6v-1c5.875-1 5.875-1 7-1Z"/><path fill="#EBDCCC" d="m224.938 227.938 3.517.013c2.848.012 5.697.028 8.545.049v1l-2 .06c-3.021.096-6.042.205-9.063.315-1.038.03-2.076.062-3.146.094-5.62.214-10.459.751-15.791 2.531h-2v-3c6.64-1.224 13.202-1.112 19.938-1.063Z"/><path fill="#EA6F47" d="M187 176c3.862 1.116 4.715 1.572 7 5 .08 2.332.088 4.668 0 7-2.097-2.36-2.97-3.546-3.188-6.75L191 179l-1.793.035c-4.21.048-8.1.025-12.207-1.035 3.716-2.477 5.6-2.303 10-2Z"/><path fill="#E04C4B" d="M266 363h4c-1.394 4.435-3.606 6.874-7 10l-1-1-1 2-2-1a333.542 333.542 0 0 1 3.25-5l1.828-2.813L266 363Z"/><path fill="#D26567" d="m222 341-1 2h-14v3l-6-1c1-2 1-2 4.313-3.125 5.512-1.285 11.062-1.044 16.687-.875Z"/><path fill="#FDCCCC" d="M320 372c3.106 3.106 3.813 4.892 5 9l-3-1v8l-2 1v-17Z"/><path fill="#E74748" d="M107 381h4l.25 1.875c.55 2.289.55 2.289 2.688 3.25L116 387l2 2c-7.455-.489-7.455-.489-10-2.875-1-2.125-1-2.125-1-5.125Z"/><path fill="#D94D4D" d="M376 363h17v3h-2v-2l-1.758.438c-4.509 1.07-8.573 1.801-13.242 1.562v-3Z"/><path fill="#FFDEDE" d="M151 378h8v11l4 1-5 1c-1.312-2.623-.896-4.23-.563-7.125l.31-2.758L158 379l-5 1-1 9h-1v-11Z"/><path fill="#FCC6C4" d="M298 372c3.106 3.106 3.813 4.892 5 9h-3l-1 8h-1v-17Z"/><path fill="#EF666E" d="M275 174c3.938 3.323 3.938 3.323 4.25 6.75L279 183h-4c-1.125-2.813-1.125-2.813-2-6l2-3Z"/><path fill="#E15151" d="M285.16 363.285C287 364 287 364 289 368l-9-1v-2l-4 1c2.43-3.798 5.14-3.141 9.16-2.715Z"/><path fill="#DD686B" d="M230 307h10v3h-13l3-1v-2Z"/><path fill="#AE4433" d="M251 162h3v11h-3v-11Z"/><path fill="#FDC5C4" d="M342 378h8v1h-6l1 6h8v1c-1.646.027-3.292.046-4.938.063l-2.777.035C343 386 343 386 342 385c-.04-2.333-.042-4.667 0-7Z"/><path fill="#F8E8D5" d="m206 270 2 1-3 5h2l-1 8-1-2-3-1 3-4h-3a56.54 56.54 0 0 1 4-7Z"/><path fill="#EF3E3B" d="M262 371c1.125 1.75 1.125 1.75 2 4-.875 2.25-.875 2.25-2 4h-3l-2 2 1-7h3l1-3Z"/><path fill="#FBEBDB" d="M201 309h5v2l4 1-1 6-3 1 1-6h-2v-3l-4-1Z"/><path fill="#D46069" d="m250 172 1 2-2.555.148-3.32.227-3.305.21c-2.95.148-2.95.148-4.82 2.415-1.988.398-3.99.738-6 1 4.187-4.476 7.167-5.11 13.188-5.563l3.292-.253L250 172Z"/><path fill="#DF4648" d="M226 381h4l1 3 2 1-1 2h-4c-2-3-2-3-2-6Z"/><path fill="#E15658" d="m201 364-2 3c-2.625.188-2.625.188-5 0v-2l-5 3c2.821-6.247 5.838-4.894 12-4Z"/><path fill="#504B4E" d="M181 345h6a101.168 101.168 0 0 1-2 6l-2 1c-1.46-2.647-2-3.894-2-7Z"/><path fill="#ED3D3D" d="m238 379 4 1c.188 2.375.188 2.375 0 5l-3 2c-1-1-1-1-1.063-4.563L238 379Z"/><path fill="#FAF3E4" d="M309 242c1.397 4.19 2.695 8.194 1.063 12.438L309 256l-.375-3.75c-.382-3.126-.93-5.539-2.625-8.25h3v-2Z"/><path fill="#FFEAE7" d="m257 360 2 1v9l2 1-3 3v-11l-4-1 3-2Z"/><path fill="#FDF3C9" d="m174 332 1.75.563c2.457.477 3.894.194 6.25-.563l1 2-6 1 1 5h-2c-1.257-2.906-2-4.796-2-8Z"/><path fill="#DB5765" d="M273 172c3.032.328 4.616.641 6.875 2.75 1.422 2.845 1.037 4.266.125 7.25l-.875-1.813c-2.077-4.164-2.077-4.164-6.125-6.187v-2Z"/><path fill="#EB4445" d="M321 365c2.834 3.203 3.52 5.78 4 10l-5-3 1-7Z"/><path fill="#E75C5D" d="M173 363c6.75.875 6.75.875 9 2v2h-2l-1 2-5-2 3-1v-2l-4-1Z"/><path fill="#F1E1D3" d="M173 182h1l1 13 5 1v1l-7 1c-1.526-3.053-.838-5.758-.563-9.125l.31-3.883L173 182Z"/><path fill="#DA4441" d="m138 365 4 1 1 5h-4l-1-6Z"/><path fill="#FFEFEF" d="M300 380c2.063.438 2.063.438 4 1l1 4h-2v-2l-2 1c-.656 2.527-.656 2.527-1 5h-1c-.098-6.152-.098-6.152 0-8l1-1Z"/><path fill="#FFE1E0" d="m259 378 3 1c.688 2.063.688 2.063 1 4l-3-1-1 7h-1a757.916 757.916 0 0 1-.063-4.938l-.035-2.777C258 379 258 379 259 378Z"/><path fill="#44709F" d="M201 300c2.875-.125 2.875-.125 6 0l2 2c-1 1-1 1-2.848 1.098L200 303l1-3Z"/><path fill="#8D99BC" d="m269 216 7 1v2c-4.75 1.125-4.75 1.125-7 0l-1 2-1-3h2v-2Z"/><path fill="#E55559" d="M138.375 385.875 140 387c-2 2-2 2-5 2.25-3-.25-3-.25-5-2.25 5.415-2.215 5.415-2.215 8.375-1.125Z"/><path fill="#DC4F55" d="M267 383c2.248 2.052 3.002 3.007 4 6h-5l-1-4h2v-2Z"/><path fill="#F73331" d="M296 365h3v7l-3 1v-8Z"/><path fill="#E57552" d="M188 177c1.875.313 1.875.313 4 1 2.43 3.644 2.162 5.712 2 10-2.097-2.36-2.97-3.546-3.188-6.75L191 179h-3v-2Z"/><path fill="#DC585A" d="M107 381h4l1 4h-2l2 3c-1.938-.688-1.938-.688-4-2-.75-2.625-.75-2.625-1-5Z"/><path fill="#DB4444" d="M368 366h4l1 5h-4l-1-5Z"/><path fill="#E84948" d="M193 386h7v2l-7 1v-3Z"/><path fill="#E44647" d="M234 376h5l2 4-6-1-1-3Z"/><path fill="#FED2D1" d="M233 366c2.625.938 2.625.938 5 2l-1 2-6-1-1 2c.375-1.938.375-1.938 1-4l2-1Z"/><path fill="#CC7176" d="M209 343h-2v3l-6-1c1.858-3.716 4.555-3.07 8-2Z"/><path fill="#EADEED" d="M316 300v3l-10-2v-1c3.663-.75 6.424-1.238 10 0Z"/><path fill="#D64442" d="M119 366h3l1 5h-4v-5Z"/><path fill="#E93F42" d="m304 379 4 2-1 6c-2.624-3.061-3-3.732-3-8Z"/><path fill="#FFF5F3" d="M125 373h1v9l-2 1-2-5h3v-5Z"/><path fill="#FEE8E7" d="M236 363h5c1.43 2.354 2.087 3.48 1.625 6.25L242 371l-1.313-2.875c-1.48-3.325-1.48-3.325-4.687-5.125Z"/><path fill="#EB3A3C" d="M109 367h2v6h-3a99.984 99.984 0 0 1 0-5l1-1Z"/><path fill="#E6595D" d="M110 364h2v2h5v1h-5l-1 2v-2l-3 1 2-4Z"/><path fill="#2B262D" d="M174 198h7l-2 1v2h-5v-3Z"/></svg>