<?xml version="1.0" encoding="UTF-8"?>
<svg version="1.1" xmlns="http://www.w3.org/2000/svg" width="500" height="500">
<path d="M0 0 C165 0 330 0 500 0 C500 165 500 330 500 500 C335 500 170 500 0 500 C0 335 0 170 0 0 Z " fill="#FEFEFE" transform="translate(0,0)"/>
<path d="M0 0 C0.99 0 1.98 0 3 0 C3.94833904 4.83652909 4.05553438 7.54634219 2 12 C1.62406934 13.9924325 1.28020455 15.9918674 1 18 C2.28197266 17.51466797 2.28197266 17.51466797 3.58984375 17.01953125 C7.08759348 15.97381226 9.92280135 15.70039149 13.5625 15.6875 C15.20412109 15.66236328 15.20412109 15.66236328 16.87890625 15.63671875 C21.60882933 16.18726049 24.12730577 18.05654678 27.3125 21.5 C31.21030595 29.58433828 28.96355422 37.44033001 26.13769531 45.56518555 C23.80356707 51.88474825 20.72036615 57.41945077 17 63 C18.47919922 62.89171875 18.47919922 62.89171875 19.98828125 62.78125 C29.84824181 62.11912814 39.68027799 61.89069749 49.5625 61.875 C50.77010986 61.87048828 51.97771973 61.86597656 53.22192383 61.86132812 C54.34622803 61.86326172 55.47053223 61.86519531 56.62890625 61.8671875 C57.64025635 61.86831543 58.65160645 61.86944336 59.69360352 61.87060547 C62 62 62 62 63 63 C63.04063832 64.66617115 63.042721 66.33388095 63 68 C58.84584007 69.13492864 54.72923227 69.33712314 50.44628906 69.55664062 C49.58383072 69.60394821 48.72137238 69.6512558 47.83277893 69.69999695 C44.97724572 69.85573372 42.12145053 70.00597724 39.265625 70.15625 C37.26941011 70.26416792 35.27321488 70.3724499 33.27703857 70.4810791 C28.0094759 70.76683873 22.74167992 71.0480431 17.47381592 71.32818604 C11.12812521 71.66638099 4.78269448 72.00940962 -1.56274796 72.35222626 C-6.51357472 72.61967376 -11.46444093 72.88627677 -16.41546631 73.15002441 C-26.94743763 73.71293535 -37.47498419 74.31840484 -48 75 C-48.58516646 78.82079274 -49.12764397 82.53392813 -49.09765625 86.40234375 C-49.09282227 87.51899414 -49.09282227 87.51899414 -49.08789062 88.65820312 C-49.07951172 89.41037109 -49.07113281 90.16253906 -49.0625 90.9375 C-49.05798828 91.71673828 -49.05347656 92.49597656 -49.04882812 93.29882812 C-49.03716908 95.19925268 -49.01923877 97.09963706 -49 99 C-48.04543159 98.99666908 -48.04543159 98.99666908 -47.07157898 98.99327087 C7.091554 98.81315909 7.091554 98.81315909 28.125 99.375 C28.79705475 99.39037811 29.4691095 99.40575623 30.16152954 99.42160034 C51.81573438 99.93857813 51.81573438 99.93857813 61 103 C61 103.66 61 104.32 61 105 C60.01 105.495 60.01 105.495 59 106 C59.46019531 106.82628906 59.92039062 107.65257812 60.39453125 108.50390625 C62.12571384 112.27375642 63.00618934 115.87901494 63.6875 119.9375 C63.87856323 121.0366272 63.87856323 121.0366272 64.07348633 122.15795898 C65.24454918 129.46630224 65.29029173 136.61368826 65 144 C62.03 144.99 62.03 144.99 59 146 C59.598125 146.165 60.19625 146.33 60.8125 146.5 C65.39910369 149.64509967 66.14758921 156.12749028 67.1875 161.3125 C68.51217637 169.81889289 68.13634485 178.4199645 68 187 C55.00199339 189.09424225 42.07107698 190.75698503 28.9375 191.6875 C28.07289154 191.75037201 27.20828308 191.81324402 26.31747437 191.87802124 C10.32123121 193.00939363 -5.65476319 193.29605323 -21.6875 193.3125 C-22.80480499 193.31599457 -23.92210999 193.31948914 -25.07327271 193.3230896 C-28.26128256 193.32864849 -31.44875947 193.31819205 -34.63671875 193.30078125 C-35.58286041 193.3015567 -36.52900208 193.30233215 -37.5038147 193.3031311 C-42.71746061 193.24787156 -47.06252178 192.69851279 -52 191 C-51.67 190.34 -51.34 189.68 -51 189 C-38.99936498 185.66580718 -26.3669954 185.12174459 -14 184.375 C-12.5422818 184.28211197 -12.5422818 184.28211197 -11.05511475 184.18734741 C12.27570316 182.70997348 35.62861533 182.28092845 59 182 C58.88569952 179.1033852 58.7589576 176.20821684 58.625 173.3125 C58.57859375 172.08756836 58.57859375 172.08756836 58.53125 170.83789062 C58.328621 164.6333415 58.328621 164.6333415 56 159 C53.73098534 158.09805857 53.73098534 158.09805857 51 158 C50.02973877 157.90138672 49.05947754 157.80277344 48.05981445 157.70117188 C33.78563599 156.75571735 19.48755503 156.68538234 5.1875 156.5 C-10.3204122 156.29578529 -25.82362177 156.06755379 -41.32421875 155.53125 C-42.47485306 155.49390747 -43.62548737 155.45656494 -44.81098938 155.41809082 C-45.86167099 155.37873413 -46.9123526 155.33937744 -47.99487305 155.29882812 C-48.91705124 155.26535278 -49.83922943 155.23187744 -50.78935242 155.1973877 C-53 155 -53 155 -55 154 C-55 151.69 -55 149.38 -55 147 C-45.73188198 141.40136585 -29.74610129 142.51423608 -19.25 141.9375 C-18.53632263 141.89675354 -17.82264526 141.85600708 -17.08734131 141.81402588 C6.90426029 140.45232791 30.96961889 139.72829971 55 140 C54.86111494 136.72883268 54.71269508 133.458166 54.5625 130.1875 C54.52318359 129.25873047 54.48386719 128.32996094 54.44335938 127.37304688 C54.40146484 126.48037109 54.35957031 125.58769531 54.31640625 124.66796875 C54.27974854 123.84578857 54.24309082 123.0236084 54.20532227 122.17651367 C54.06572228 119.82094822 54.06572228 119.82094822 53 117 C44.36936541 112.68468271 29.26952406 114.75606407 19.65225601 114.58500862 C16.81762278 114.53398278 13.98314765 114.47740083 11.14865112 114.41929626 C3.10087761 114.25488892 -4.94699959 114.09708426 -12.99511719 113.95043945 C-17.94568511 113.85984636 -22.89600723 113.76031145 -27.84628677 113.65517998 C-29.72080075 113.61712358 -31.59538651 113.58243927 -33.47002792 113.5512867 C-36.08947491 113.50752405 -38.70846252 113.45237698 -41.32763672 113.39477539 C-42.47177284 113.37986557 -42.47177284 113.37986557 -43.63902283 113.36465454 C-44.36181931 113.34652206 -45.08461578 113.32838959 -45.82931519 113.30970764 C-46.4453253 113.29810136 -47.06133541 113.28649508 -47.6960125 113.27453709 C-51.18865351 112.85836318 -54.58767053 111.85308237 -58 111 C-58.33 133.11 -58.66 155.22 -59 178 C-63.30769231 180.15384615 -63.30769231 180.15384615 -67 179 C-70.87742742 178.86925591 -70.87742742 178.86925591 -74.125 179.625 C-75.07375 179.74875 -76.0225 179.8725 -77 180 C-79 178 -79 178 -79.24609566 175.64555931 C-79.24425207 174.65186647 -79.24240849 173.65817364 -79.24050903 172.6343689 C-79.24325836 171.49570877 -79.24600769 170.35704865 -79.24884033 169.18388367 C-79.24164978 167.92872452 -79.23445923 166.67356537 -79.22705078 165.38037109 C-79.22734283 164.06334702 -79.22763489 162.74632294 -79.22793579 161.38938904 C-79.22851103 157.77180004 -79.21672924 154.15434292 -79.20278788 150.53678465 C-79.19030886 146.75846743 -79.18911226 142.98014739 -79.18673706 139.20181274 C-79.18051395 132.04428311 -79.16409193 124.88681437 -79.14403808 117.72931159 C-79.12170489 109.58190762 -79.11069215 101.43450079 -79.10064721 93.28707385 C-79.07972639 76.52467921 -79.04413278 59.76234977 -79 43 C-72.4 43 -65.8 43 -59 43 C-58.505 61.315 -58.505 61.315 -58 80 C-57.01 76.7 -56.02 73.4 -55 70 C-52.31396484 68.44189453 -52.31396484 68.44189453 -49 68 C-47.74525879 67.80390137 -46.49051758 67.60780273 -45.19775391 67.40576172 C-43.79144482 67.24051566 -42.38431882 67.08211338 -40.9765625 66.9296875 C-40.23038666 66.84373322 -39.48421082 66.75777893 -38.71542358 66.66921997 C-36.35259061 66.39843257 -33.98886799 66.13658148 -31.625 65.875 C-30.01425561 65.69199767 -28.40357763 65.50840985 -26.79296875 65.32421875 C-22.86271484 64.87603688 -18.93163847 64.43586181 -15 64 C-15.76828125 62.98421875 -16.5365625 61.9684375 -17.328125 60.921875 C-19.75268044 57.52612951 -21.32607717 54.18890341 -22.75 50.25 C-23.15734375 49.14140625 -23.5646875 48.0328125 -23.984375 46.890625 C-25.44189036 42.74231207 -26.18413971 39.52666238 -26.25 35.125 C-26.27578125 34.09632813 -26.3015625 33.06765625 -26.328125 32.0078125 C-25.82037659 27.35345205 -23.92592454 24.83333209 -20.5 21.75 C-16.52785745 18.96950022 -13.54471318 18.88661599 -8.8125 18.9375 C-7.18248047 18.95103516 -7.18248047 18.95103516 -5.51953125 18.96484375 C-4.68808594 18.97644531 -3.85664063 18.98804688 -3 19 C-3.03480469 18.13117188 -3.06960937 17.26234375 -3.10546875 16.3671875 C-3.37434095 4.92091388 -3.37434095 4.92091388 0 0 Z " fill="#50709B" transform="translate(253,154)"/>
<path d="M0 0 C17.71858952 -0.06499168 35.42835509 0.07828364 53.14453125 0.37231445 C55.81607283 0.41606455 58.48757248 0.45823627 61.15917969 0.49731445 C101.86410287 1.09413157 101.86410287 1.09413157 109 4 C111.83919243 8.24256468 111.22595684 13.39279557 111.125 18.3125 C111.11597656 19.14845703 111.10695313 19.98441406 111.09765625 20.84570312 C111.07420989 22.89725969 111.03834266 24.94866777 111 27 C107.15064219 28.28311927 103.49398629 28.17591412 99.48046875 28.2109375 C97.6762605 28.23701238 95.87206153 28.26373577 94.06787109 28.29101562 C92.63154327 28.31095581 92.63154327 28.31095581 91.16619873 28.33129883 C73.36673837 28.59243879 55.6355779 29.29364566 37.875 30.5 C36.90122406 30.56580261 35.92744812 30.63160522 34.92416382 30.69940186 C25.27357696 31.35806333 15.62654633 32.04437204 6 33 C6 31.68 6 30.36 6 29 C5.34 28.67 4.68 28.34 4 28 C4.309375 27.401875 4.61875 26.80375 4.9375 26.1875 C6.10209704 23.91043228 6.10209704 23.91043228 7 21 C6.34 21 5.68 21 5 21 C5.66 19.35 6.32 17.7 7 16 C6.34 16 5.68 16 5 16 C5.66 14.35 6.32 12.7 7 11 C6.34 10.67 5.68 10.34 5 10 C5.33 8.02 5.66 6.04 6 4 C5.34 4 4.68 4 4 4 C4 3.01 4 2.02 4 1 C2.68 0.67 1.36 0.34 0 0 Z " fill="#FCDCBD" transform="translate(201,309)"/>
<path d="M0 0 C-0.33 1.32 -0.66 2.64 -1 4 C-1.99 4 -2.98 4 -4 4 C-3.34 4.61875 -2.68 5.2375 -2 5.875 C0 8 0 8 0 10 C-1.32 10 -2.64 10 -4 10 C-4 10.66 -4 11.32 -4 12 C-2.68 12.66 -1.36 13.32 0 14 C0 14.66 0 15.32 0 16 C-1.485 16.495 -1.485 16.495 -3 17 C-2.01 18.98 -2.01 18.98 -1 21 C-1.66 21.33 -2.32 21.66 -3 22 C-2.67 22.70125 -2.34 23.4025 -2 24.125 C-0.90671198 27.26820306 -0.92682426 29.69794492 -1 33 C-1.76731445 32.93361328 -2.53462891 32.86722656 -3.32519531 32.79882812 C-11.79829757 32.10185124 -20.25269409 31.72317986 -28.75 31.5 C-29.45436188 31.48043243 -30.15872375 31.46086487 -30.88442993 31.44070435 C-55.9176359 30.74792309 -80.96087816 30.40556003 -106 30 C-107.50941005 26.9811799 -107.17093272 24.1690314 -107.1875 20.8125 C-107.20167969 19.51957031 -107.21585938 18.22664063 -107.23046875 16.89453125 C-106.99834302 12.97199992 -106.13358984 9.74559199 -105 6 C-93.76402657 4.4381386 -82.59637167 3.49606017 -71.26953125 2.9296875 C-69.61958207 2.84327278 -67.96965467 2.75644123 -66.31974792 2.66921997 C-62.89213319 2.48924543 -59.46435038 2.31314172 -56.03637695 2.14013672 C-51.67931269 1.92008606 -47.32272284 1.69188673 -42.96622181 1.46098137 C-39.56969216 1.28158002 -36.17298866 1.10566963 -32.77622032 0.93085098 C-31.1708807 0.847987 -29.56558429 0.76428087 -27.96033669 0.67965317 C-18.63087745 0.19070561 -9.34643455 -0.11833434 0 0 Z " fill="#FBE0C0" transform="translate(310,223)"/>
<path d="M0 0 C22.06810041 -0.11604454 44.12336075 -0.02436119 66.1875 0.4375 C67.17920197 0.45714813 68.17090393 0.47679626 69.19265747 0.49703979 C100.69958681 1.13305787 100.69958681 1.13305787 105 4 C105.96088383 6.88265149 106.11670941 8.67662271 106.09765625 11.66796875 C106.09282227 13.00698242 106.09282227 13.00698242 106.08789062 14.37304688 C106.07532227 15.76620117 106.07532227 15.76620117 106.0625 17.1875 C106.05798828 18.12787109 106.05347656 19.06824219 106.04882812 20.03710938 C106.03704626 22.35813712 106.02059558 24.67903644 106 27 C94.3948935 27.68522614 82.79289032 28.09967765 71.17184448 28.38137817 C47.73699997 28.95399259 24.38661699 30.42708738 1 32 C1 30.68 1 29.36 1 28 C0.34 28 -0.32 28 -1 28 C0.20381448 25.50638429 1.45428722 23.31856917 3 21 C2.01 21 1.02 21 0 21 C1 19 2 17 3 15 C2.01 14.67 1.02 14.34 0 14 C0.99 12.68 1.98 11.36 3 10 C2.01 10 1.02 10 0 10 C1.20381448 7.50638429 2.45428722 5.31856917 4 3 C2.68 3 1.36 3 0 3 C0 2.01 0 1.02 0 0 Z " fill="#FAE0C1" transform="translate(202,267)"/>
<path d="M0 0 C6.6 0 13.2 0 20 0 C20.20983318 8.62457202 20.39656518 17.24947058 20.5625 25.875 C20.57523327 26.53616695 20.58796654 27.19733391 20.60108566 27.87853622 C21.06730374 52.53124877 20.9422228 77.15923675 20.5625 101.8125 C20.54968616 102.64516136 20.53687233 103.47782272 20.5236702 104.33571625 C20.36492819 114.55743529 20.19043092 124.77882042 20 135 C16.25 137.046875 16.25 137.046875 14 136.625 C13.34 136.41875 12.68 136.2125 12 136 C8.12257258 135.86925591 8.12257258 135.86925591 4.875 136.625 C3.92625 136.74875 2.9775 136.8725 2 137 C0 135 0 135 -0.24609566 132.64555931 C-0.24425207 131.65186647 -0.24240849 130.65817364 -0.24050903 129.6343689 C-0.24325836 128.49570877 -0.24600769 127.35704865 -0.24884033 126.18388367 C-0.24164978 124.92872452 -0.23445923 123.67356537 -0.22705078 122.38037109 C-0.22734283 121.06334702 -0.22763489 119.74632294 -0.22793579 118.38938904 C-0.22851103 114.77180004 -0.21672924 111.15434292 -0.20278788 107.53678465 C-0.19030886 103.75846743 -0.18911226 99.98014739 -0.18673706 96.20181274 C-0.18051395 89.04428311 -0.16409193 81.88681437 -0.14403808 74.72931159 C-0.12170489 66.58190762 -0.11069215 58.43450079 -0.10064721 50.28707385 C-0.07972639 33.52467921 -0.04413278 16.76234977 0 0 Z " fill="#F8C44F" transform="translate(174,197)"/>
<path d="M0 0 C0.99 0 1.98 0 3 0 C3.94833904 4.83652909 4.05553438 7.54634219 2 12 C1.62406934 13.9924325 1.28020455 15.9918674 1 18 C2.28197266 17.51466797 2.28197266 17.51466797 3.58984375 17.01953125 C7.08759348 15.97381226 9.92280135 15.70039149 13.5625 15.6875 C15.20412109 15.66236328 15.20412109 15.66236328 16.87890625 15.63671875 C21.60882933 16.18726049 24.12730577 18.05654678 27.3125 21.5 C31.20972441 29.58313211 28.96662612 37.44460785 26.13549805 45.56738281 C24.24607879 50.6750581 22.00342711 55.45610544 19 60 C18.63390625 60.73476562 18.2678125 61.46953125 17.890625 62.2265625 C15.32254676 64.63546234 13.14790609 64.38146246 9.7421875 64.30273438 C8.57042969 64.24569336 8.57042969 64.24569336 7.375 64.1875 C4.5815567 64.09392878 1.79536156 64.03236734 -1 64 C-1.33 64.33 -1.66 64.66 -2 65 C-4.58203125 65.2734375 -4.58203125 65.2734375 -7.8125 65.375 C-8.87082031 65.42398438 -9.92914063 65.47296875 -11.01953125 65.5234375 C-14 65 -14 65 -16.19140625 62.84375 C-22.88369884 52.32109556 -27.60750501 41.6871901 -26 29 C-23.49985174 23.99970349 -20.36809463 20.78936488 -15 19 C-12.93854893 18.931009 -10.87498599 18.91532273 -8.8125 18.9375 C-7.18248047 18.95103516 -7.18248047 18.95103516 -5.51953125 18.96484375 C-4.68808594 18.97644531 -3.85664063 18.98804688 -3 19 C-3.03480469 18.13117188 -3.06960937 17.26234375 -3.10546875 16.3671875 C-3.37434095 4.92091388 -3.37434095 4.92091388 0 0 Z " fill="#E64C5A" transform="translate(253,154)"/>
<path d="M0 0 C2.79296875 0.96484375 2.79296875 0.96484375 4.91796875 4.33984375 C5.26439838 5.87013525 5.5515843 7.41450859 5.79296875 8.96484375 C5.99019531 9.79886719 6.18742187 10.63289063 6.390625 11.4921875 C8.38143126 20.89248462 7.9447256 30.41494765 7.79296875 39.96484375 C-5.20503786 42.059086 -18.13595427 43.72182878 -31.26953125 44.65234375 C-32.56644394 44.74665176 -32.56644394 44.74665176 -33.88955688 44.84286499 C-49.88580004 45.97423738 -65.86179444 46.26089698 -81.89453125 46.27734375 C-83.01183624 46.28083832 -84.12914124 46.28433289 -85.28030396 46.28793335 C-88.46831381 46.29349224 -91.65579072 46.2830358 -94.84375 46.265625 C-95.78989166 46.26640045 -96.73603333 46.2671759 -97.71084595 46.26797485 C-102.92449186 46.21271531 -107.26955303 45.66335654 -112.20703125 43.96484375 C-111.87703125 43.30484375 -111.54703125 42.64484375 -111.20703125 41.96484375 C-99.20639623 38.63065093 -86.57402665 38.08658834 -74.20703125 37.33984375 C-73.23521912 37.2779184 -72.26340698 37.21599304 -71.262146 37.15219116 C-47.93132809 35.67481723 -24.57841592 35.2457722 -1.20703125 34.96484375 C-1.32133173 32.06822895 -1.44807365 29.17306059 -1.58203125 26.27734375 C-1.61296875 25.46072266 -1.64390625 24.64410156 -1.67578125 23.80273438 C-1.87841025 17.59818525 -1.87841025 17.59818525 -4.20703125 11.96484375 C-6.47604591 11.06290232 -6.47604591 11.06290232 -9.20703125 10.96484375 C-10.17729248 10.86623047 -11.14755371 10.76761719 -12.1472168 10.66601562 C-26.42139526 9.7205611 -40.71947622 9.65022609 -55.01953125 9.46484375 C-70.52744345 9.26062904 -86.03065302 9.03239754 -101.53125 8.49609375 C-102.68188431 8.45875122 -103.83251862 8.42140869 -105.01802063 8.38293457 C-106.06870224 8.34357788 -107.11938385 8.30422119 -108.2019043 8.26367188 C-109.12408249 8.23019653 -110.04626068 8.19672119 -110.99638367 8.16223145 C-113.20703125 7.96484375 -113.20703125 7.96484375 -115.20703125 6.96484375 C-115.20703125 5.64484375 -115.20703125 4.32484375 -115.20703125 2.96484375 C-114.6562944 2.97150558 -114.10555756 2.97816742 -113.53813171 2.98503113 C-86.81660434 3.29198663 -60.20049791 3.16416122 -33.51953125 1.52734375 C-32.40218597 1.45985931 -31.2848407 1.39237488 -30.13363647 1.32284546 C-26.98695619 1.12935443 -23.84104826 0.92699287 -20.6953125 0.71875 C-19.75821442 0.65827484 -18.82111633 0.59779968 -17.85562134 0.53549194 C-17.0039035 0.47552032 -16.15218567 0.41554871 -15.2746582 0.35375977 C-14.16209404 0.27714867 -14.16209404 0.27714867 -13.02705383 0.19898987 C-4.74221215 -0.86685598 -4.74221215 -0.86685598 0 0 Z " fill="#D86067" transform="translate(313.20703125,301.03515625)"/>
<path d="M0 0 C6.53278786 -0.02527002 13.06556321 -0.04283292 19.59838867 -0.05493164 C21.82267732 -0.05997317 24.04696263 -0.06680623 26.27124023 -0.07543945 C29.46078309 -0.08751298 32.65028229 -0.09322996 35.83984375 -0.09765625 C37.34139259 -0.10539818 37.34139259 -0.10539818 38.87327576 -0.11329651 C40.25459435 -0.11340981 40.25459435 -0.11340981 41.66381836 -0.11352539 C42.47878281 -0.115746 43.29374725 -0.11796661 44.13340759 -0.12025452 C46 0 46 0 47 1 C47.04063832 2.66617115 47.042721 4.33388095 47 6 C42.84584007 7.13492864 38.72923227 7.33712314 34.44628906 7.55664062 C33.58383072 7.60394821 32.72137238 7.6512558 31.83277893 7.69999695 C28.97724572 7.85573372 26.12145053 8.00597724 23.265625 8.15625 C21.26941011 8.26416792 19.27321488 8.3724499 17.27703857 8.4810791 C12.0094759 8.76683873 6.74167992 9.0480431 1.47381592 9.32818604 C-4.87187479 9.66638099 -11.21730552 10.00940962 -17.56274796 10.35222626 C-22.51357472 10.61967376 -27.46444093 10.88627677 -32.41546631 11.15002441 C-42.94743763 11.71293535 -53.47498419 12.31840484 -64 13 C-64.58516646 16.82079274 -65.12764397 20.53392813 -65.09765625 24.40234375 C-65.09443359 25.14677734 -65.09121094 25.89121094 -65.08789062 26.65820312 C-65.07951172 27.41037109 -65.07113281 28.16253906 -65.0625 28.9375 C-65.05798828 29.71673828 -65.05347656 30.49597656 -65.04882812 31.29882812 C-65.03716908 33.19925268 -65.01923877 35.09963706 -65 37 C-64.04543159 36.99666908 -64.04543159 36.99666908 -63.07157898 36.99327087 C-8.908446 36.81315909 -8.908446 36.81315909 12.125 37.375 C12.79705475 37.39037811 13.4691095 37.40575623 14.16152954 37.42160034 C35.81573438 37.93857813 35.81573438 37.93857813 45 41 C45 41.66 45 42.32 45 43 C41.51890149 45.17589743 39.22524241 45.07234038 35.19824219 44.62451172 C25.81553361 43.80371734 16.47354502 43.91944987 7.06131744 43.98596573 C3.76636079 44.00822984 0.47146349 44.02214773 -2.82354736 44.03366089 C-12.18029785 44.06705597 -21.5369475 44.10933771 -30.89355469 44.17138672 C-36.64142864 44.20891715 -42.38920613 44.23201278 -48.13718414 44.24569321 C-50.32377087 44.2537609 -52.51034427 44.26738855 -54.69686127 44.28662491 C-57.73650826 44.31294568 -60.7756834 44.32098146 -63.81542969 44.32470703 C-65.1742627 44.34324234 -65.1742627 44.34324234 -66.56054688 44.3621521 C-69.05731201 44.35403442 -69.05731201 44.35403442 -73 44 C-77.29102699 37.56345951 -75.5583593 26.80857299 -74.3125 19.390625 C-74.01435261 17.94488238 -73.70229954 16.50192301 -73.375 15.0625 C-73.23497559 14.38292236 -73.09495117 13.70334473 -72.95068359 13.00317383 C-72.4609375 11.09765625 -72.4609375 11.09765625 -71 8 C-65.90981055 5.18484699 -59.22581458 5.10109647 -53.5 4.4375 C-52.4073584 4.30746582 -51.3147168 4.17743164 -50.18896484 4.04345703 C-41.74059522 3.08660086 -33.31552491 2.54577515 -24.81835938 2.29077148 C-23.53541992 2.25125366 -23.53541992 2.25125366 -22.2265625 2.2109375 C-21.47971191 2.19337402 -20.73286133 2.17581055 -19.96337891 2.15771484 C-17.78608338 2.06161169 -17.78608338 2.06161169 -15 1 C-12.4191074 1.08744008 -9.88308522 1.22868495 -7.3125 1.4375 C-6.61060547 1.48970703 -5.90871094 1.54191406 -5.18554688 1.59570312 C-3.45661946 1.72507865 -1.72824645 1.86182531 0 2 C0 1.34 0 0.68 0 0 Z " fill="#7891B5" transform="translate(269,216)"/>
<path d="M0 0 C6.6 0 13.2 0 20 0 C20.20983318 8.62457202 20.39656518 17.24947058 20.5625 25.875 C20.57523327 26.53616695 20.58796654 27.19733391 20.60108566 27.87853622 C21.06730374 52.53124877 20.9422228 77.15923675 20.5625 101.8125 C20.54968616 102.64516136 20.53687233 103.47782272 20.5236702 104.33571625 C20.36492819 114.55743529 20.19043092 124.77882042 20 135 C18.02 135.99 18.02 135.99 16 137 C14.68 136.01 13.36 135.02 12 134 C14.31 134 16.62 134 19 134 C19 93.41 19 52.82 19 11 C18.34 11 17.68 11 17 11 C17 50.27 17 89.54 17 130 C16.67 130 16.34 130 16 130 C15.67 100.96 15.34 71.92 15 42 C14.34 44.97 13.68 47.94 13 51 C12.34 51 11.68 51 11 51 C11 77.07 11 103.14 11 130 C10.34 130 9.68 130 9 130 C8.67 91.06 8.34 52.12 8 12 C7.78985142 49.71147005 7.78985142 49.71147005 7.61206055 87.4230957 C7.56213379 94.70935059 7.56213379 94.70935059 7.5349884 98.11808777 C7.51881634 100.50375845 7.50854318 102.88947347 7.50288391 105.27519226 C7.49318494 108.88463115 7.46489287 112.49348761 7.43237305 116.1027832 C7.43379901 117.16935056 7.43522497 118.23591791 7.43669415 119.33480549 C7.42416512 120.30453895 7.4116361 121.2742724 7.39872742 122.27339172 C7.39411845 123.11867589 7.38950949 123.96396006 7.38476086 124.83485889 C6.91392864 127.48434409 6.12846087 128.397632 4 130 C3.34 130 2.68 130 2 130 C1.99576806 129.38947124 1.99153612 128.77894247 1.98717594 128.14991283 C1.88392573 113.30270386 1.77529642 98.45554159 1.66066074 83.60841656 C1.60535416 76.42849544 1.55187637 69.24856935 1.50268555 62.06860352 C1.4598123 55.811434 1.41352637 49.55430069 1.36312145 43.29718715 C1.33654581 39.98330344 1.3122023 36.66942758 1.29092598 33.35550499 C1.26690022 29.65842036 1.23684295 25.96143153 1.20532227 22.2644043 C1.1995668 21.16245224 1.19381134 20.06050018 1.18788147 18.92515564 C1.17809265 17.91974731 1.16830383 16.91433899 1.15821838 15.87846375 C1.15176583 15.0036822 1.14531328 14.12890066 1.1386652 13.22761059 C1.08488822 10.82686978 1.08488822 10.82686978 0 8 C0 5.36 0 2.72 0 0 Z " fill="#CB992D" transform="translate(174,197)"/>
<path d="M0 0 C0.9337999 -0.00175232 1.86759979 -0.00350464 2.82969666 -0.00531006 C5.92774294 -0.00972264 9.02573239 -0.00679003 12.1237793 -0.00341797 C14.28313711 -0.0040918 16.44249486 -0.00506249 18.60185242 -0.00631714 C23.13887246 -0.00779382 27.67587286 -0.00564281 32.21289062 -0.00097656 C37.99469501 0.00468325 43.77645258 0.0014655 49.5582552 -0.00454903 C54.02557213 -0.00818756 58.49287825 -0.00700038 62.96019554 -0.00442123 C65.08938795 -0.00375909 67.21858138 -0.00455519 69.3477726 -0.00690079 C75.86139804 -0.01249513 82.37278521 0.01510453 88.88549805 0.12939453 C90.02315928 0.14920254 90.02315928 0.14920254 91.18380356 0.16941071 C93.18303377 0.21669757 95.181303 0.30069995 97.17919922 0.38769531 C98.25054611 0.43290314 99.32189301 0.47811096 100.42570496 0.52468872 C102.88549805 1.12939453 102.88549805 1.12939453 104.24214172 3.17575073 C104.45444931 3.82045319 104.6667569 4.46515564 104.88549805 5.12939453 C103.88549805 6.56689453 103.88549805 6.56689453 101.88549805 8.12939453 C95.20920145 9.29658601 88.58543413 9.27433574 81.82299805 9.26220703 C80.65404999 9.26361694 79.48510193 9.26502686 78.2807312 9.26647949 C74.48228926 9.26861192 70.68393153 9.26232595 66.88549805 9.25439453 C64.94830902 9.25206818 64.94830902 9.25206818 62.97198486 9.24969482 C46.23242646 9.22608253 29.49627577 9.12159813 12.76049805 8.75439453 C11.94000977 8.73910706 11.11952148 8.72381958 10.27416992 8.70806885 C7.97497105 8.66318451 5.67647419 8.60563081 3.37768555 8.54345703 C2.1129541 8.51203613 0.84822266 8.48061523 -0.45483398 8.44824219 C-4.55064289 8.09139586 -8.1564345 7.22110538 -12.11450195 6.12939453 C-12.11450195 4.47939453 -12.11450195 2.82939453 -12.11450195 1.12939453 C-8.08456543 -0.21391764 -4.20189423 -0.00962617 0 0 Z " fill="#3C6EA1" transform="translate(207.114501953125,258.87060546875)"/>
<path d="M0 0 C22.06810041 -0.11604454 44.12336075 -0.02436119 66.1875 0.4375 C67.17920197 0.45714813 68.17090393 0.47679626 69.19265747 0.49703979 C100.69958681 1.13305787 100.69958681 1.13305787 105 4 C104.67 4.66 104.34 5.32 104 6 C103.13375 5.67 102.2675 5.34 101.375 5 C98.04281725 4.01268659 95.44840462 3.83579026 92 4 C92.495 5.98 92.495 5.98 93 8 C75.18 7.34 57.36 6.68 39 6 C39 6.66 39 7.32 39 8 C44.61 8.33 50.22 8.66 56 9 C56 10.32 56 11.64 56 13 C38.84 13 21.68 13 4 13 C3.67 14.32 3.34 15.64 3 17 C3 16.34 3 15.68 3 15 C2.01 14.67 1.02 14.34 0 14 C0.99 12.68 1.98 11.36 3 10 C2.01 10 1.02 10 0 10 C1.20381448 7.50638429 2.45428722 5.31856917 4 3 C2.68 3 1.36 3 0 3 C0 2.01 0 1.02 0 0 Z " fill="#E9D8C6" transform="translate(202,267)"/>
<path d="M0 0 C5.61 0.33 11.22 0.66 17 1 C17 2.32 17 3.64 17 5 C24.26 5.66 31.52 6.32 39 7 C39 7.33 39 7.66 39 8 C29.76 8.33 20.52 8.66 11 9 C11 9.99 11 10.98 11 12 C11.66008057 12.02505615 12.32016113 12.0501123 13.00024414 12.07592773 C16.02115369 12.19271752 19.04181422 12.31506446 22.0625 12.4375 C23.10083984 12.47681641 24.13917969 12.51613281 25.20898438 12.55664062 C30.54030641 12.77666344 35.73689893 13.1116184 41 14 C40.34 15.32 39.68 16.64 39 18 C37.68 18 36.36 18 35 18 C35 19.32 35 20.64 35 22 C36.32 22.66 37.64 23.32 39 24 C28.11 24.99 28.11 24.99 17 26 C17 26.99 17 27.98 17 29 C18.65 29.33 20.3 29.66 22 30 C22 30.33 22 30.66 22 31 C16.72 31.66 11.44 32.32 6 33 C6 31.68 6 30.36 6 29 C5.34 28.67 4.68 28.34 4 28 C4.309375 27.401875 4.61875 26.80375 4.9375 26.1875 C6.10209704 23.91043228 6.10209704 23.91043228 7 21 C6.34 21 5.68 21 5 21 C5.66 19.35 6.32 17.7 7 16 C6.34 16 5.68 16 5 16 C5.66 14.35 6.32 12.7 7 11 C6.34 10.67 5.68 10.34 5 10 C5.33 8.02 5.66 6.04 6 4 C5.34 4 4.68 4 4 4 C4 3.01 4 2.02 4 1 C2.68 0.67 1.36 0.34 0 0 Z " fill="#FCE0C1" transform="translate(201,309)"/>
<path d="M0 0 C2 1 2 1 2 1 Z M-7.1875 0.9375 C-6.49462891 0.94201172 -5.80175781 0.94652344 -5.08789062 0.95117188 C-3.39188932 0.96286844 -1.69593297 0.98080076 0 1 C-1.15234375 2.95703125 -1.15234375 2.95703125 -3 5 C-5.62890625 5.57421875 -5.62890625 5.57421875 -8.5625 5.6875 C-12.42838522 5.77230068 -12.42838522 5.77230068 -16 7 C-17.92282879 7.14195749 -19.85006922 7.22615571 -21.77734375 7.28125 C-22.93041016 7.31863281 -24.08347656 7.35601562 -25.27148438 7.39453125 C-26.48126953 7.42933594 -27.69105469 7.46414063 -28.9375 7.5 C-31.32173656 7.56881281 -33.70586412 7.64154686 -36.08984375 7.71875 C-37.15066162 7.74904297 -38.21147949 7.77933594 -39.30444336 7.81054688 C-42.09849303 7.89453273 -42.09849303 7.89453273 -45 9 C-47.07028273 9.08921886 -49.14337589 9.11759651 -51.21557617 9.11352539 C-52.4966777 9.11344986 -53.77777924 9.11337433 -55.09770203 9.11329651 C-56.49612466 9.10818987 -57.8945469 9.10297387 -59.29296875 9.09765625 C-60.72357636 9.09579089 -62.15418461 9.09436754 -63.58479309 9.09336853 C-67.34786751 9.08955267 -71.11090325 9.07973032 -74.8739624 9.06866455 C-78.71479774 9.05843043 -82.55563933 9.05386662 -86.39648438 9.04882812 C-93.9310072 9.03810722 -101.46549818 9.02104196 -109 9 C-108.67 8.01 -108.34 7.02 -108 6 C-106.28901123 5.91697632 -106.28901123 5.91697632 -104.54345703 5.83227539 C-100.32024445 5.62616945 -96.09734317 5.41420084 -91.87451172 5.20043945 C-90.04516453 5.10866347 -88.21573635 5.01848768 -86.38623047 4.92993164 C-83.75986264 4.80252789 -81.13383779 4.66941321 -78.5078125 4.53515625 C-77.68693146 4.49656998 -76.86605042 4.4579837 -76.02029419 4.41822815 C-71.87648227 4.29102921 -71.87648227 4.29102921 -68 3 C-66.48491839 2.88688812 -64.96517126 2.83338881 -63.44604492 2.81054688 C-62.50133835 2.79382935 -61.55663177 2.77711182 -60.58329773 2.7598877 C-59.55936417 2.74631226 -58.5354306 2.73273682 -57.48046875 2.71875 C-56.42974686 2.70034058 -55.37902496 2.68193115 -54.29646301 2.66296387 C-50.92686678 2.60408855 -47.5572188 2.55135084 -44.1875 2.5 C-39.76421737 2.4322757 -35.34109343 2.3585353 -30.91796875 2.28125 C-29.90010788 2.26767456 -28.88224701 2.25409912 -27.83354187 2.2401123 C-26.87937881 2.22339478 -25.92521576 2.20667725 -24.94213867 2.18945312 C-24.1065593 2.17692505 -23.27097992 2.16439697 -22.41007996 2.15148926 C-17.26051443 1.82780545 -12.40848171 0.87254999 -7.1875 0.9375 Z " fill="#3B6FA4" transform="translate(309,294)"/>
<path d="M0 0 C1.77149666 0.0001133 1.77149666 0.0001133 3.57878113 0.00022888 C4.85385025 0.00539017 6.12891937 0.01055145 7.44262695 0.01586914 C9.40060966 0.01799156 9.40060966 0.01799156 11.39814758 0.02015686 C14.86530477 0.02397159 18.33241994 0.03379295 21.79956055 0.04486084 C25.33878003 0.05509741 28.87800631 0.05965929 32.41723633 0.06469727 C39.35931086 0.07541616 46.30135751 0.09248005 53.2434082 0.11352539 C53.2434082 0.44352539 53.2434082 0.77352539 53.2434082 1.11352539 C48.6234082 1.11352539 44.0034082 1.11352539 39.2434082 1.11352539 C39.2434082 2.76352539 39.2434082 4.41352539 39.2434082 6.11352539 C46.8334082 6.11352539 54.4234082 6.11352539 62.2434082 6.11352539 C62.2434082 6.77352539 62.2434082 7.43352539 62.2434082 8.11352539 C63.2334082 8.60852539 63.2334082 8.60852539 64.2434082 9.11352539 C49.78176928 9.25176165 35.32646867 9.10759298 20.86816406 8.7951355 C19.0853501 8.75757849 17.30246746 8.72314401 15.51953125 8.69192505 C12.97798048 8.6463198 10.43697683 8.58848932 7.89575195 8.52758789 C7.14132309 8.51603165 6.38689423 8.5044754 5.60960388 8.49256897 C0.55672123 8.3532266 -3.88824456 7.48445527 -8.7565918 6.11352539 C-8.7565918 4.46352539 -8.7565918 2.81352539 -8.7565918 1.11352539 C-5.57819489 0.05405975 -3.33813832 -0.00711757 0 0 Z " fill="#3E6FA1" transform="translate(203.756591796875,258.886474609375)"/>
<path d="M0 0 C17.49 0 34.98 0 53 0 C53 1.32 53 2.64 53 4 C49.46173745 5.17942085 46.65851274 5.11289189 42.92578125 5.09765625 C41.90003242 5.09553383 41.90003242 5.09553383 40.8535614 5.09336853 C38.67316278 5.08777876 36.49286749 5.07522822 34.3125 5.0625 C32.83268378 5.05748367 31.35286594 5.052921 29.87304688 5.04882812 C26.24866443 5.03781271 22.6243423 5.02055512 19 5 C19 6.65 19 8.3 19 10 C14.5629865 10.34002182 10.12532684 10.67077776 5.6875 11 C3.82254883 11.14308594 3.82254883 11.14308594 1.91992188 11.2890625 C-5.40368414 11.82728026 -12.65676838 12.13660061 -20 12 C-19.625 10.0625 -19.625 10.0625 -19 8 C-15.31784107 6.15892054 -10.75808226 6.584971 -6.67773438 6.39453125 C-3.03510546 6.53360713 -3.03510546 6.53360713 0 5 C0 3.35 0 1.7 0 0 Z " fill="#E4C4A9" transform="translate(233,284)"/>
<path d="M0 0 C1.64869153 0.01496621 3.29733637 0.03564897 4.94590759 0.06056213 C6.29211937 0.07497345 6.29211937 0.07497345 7.66552734 0.0896759 C10.64700361 0.12279035 13.62833897 0.16307495 16.60972595 0.2033844 C18.67095434 0.22767337 20.73218802 0.25151752 22.79342651 0.27493286 C28.2301585 0.33789555 33.66679741 0.40692746 39.10343933 0.47718811 C44.64650722 0.5477618 50.18964132 0.61264428 55.73277283 0.67799377 C66.61761122 0.80716307 77.50235982 0.94273881 88.3870697 1.08229065 C88.3870697 1.74229065 88.3870697 2.40229065 88.3870697 3.08229065 C93.6670697 3.08229065 98.9470697 3.08229065 104.3870697 3.08229065 C104.3870697 3.74229065 104.3870697 4.40229065 104.3870697 5.08229065 C105.3770697 5.57729065 105.3770697 5.57729065 106.3870697 6.08229065 C103.62349804 7.46407648 101.75443239 6.95632847 98.6736908 6.66456604 C88.39196684 5.85045408 78.11023163 5.84949443 67.8011322 5.7658844 C65.64637393 5.74526959 63.49161929 5.72427209 61.33686829 5.70291138 C55.71135937 5.64815746 50.08581685 5.59854567 44.46025085 5.55006409 C38.70145232 5.4995045 32.94270158 5.44399973 27.1839447 5.38893127 C15.91836069 5.28192217 4.65273489 5.18035418 -6.6129303 5.08229065 C-4.20004605 0.09566321 -4.20004605 0.09566321 0 0 Z " fill="#6B8DBC" transform="translate(205.61293029785156,253.91770935058594)"/>
<path d="M0 0 C16.55393005 -0.089293 33.09991421 0.17456297 49.65057373 0.46356201 C53.19801763 0.52513203 56.74549457 0.58473643 60.29296875 0.64453125 C67.19534508 0.76115219 74.09768395 0.87986567 81 1 C81 1.33 81 1.66 81 2 C79.35 2.33 77.7 2.66 76 3 C80.95 3.33 85.9 3.66 91 4 C91 5.32 91 6.64 91 8 C74.99608587 8.20036199 59.01490442 7.6182771 43.02319336 7.07287598 C39.40225372 6.9500381 35.78120026 6.83065191 32.16015625 6.7109375 C25.10665864 6.47725333 18.05329022 6.23986914 11 6 C10.67 4.68 10.34 3.36 10 2 C6.7 1.67 3.4 1.34 0 1 C0 0.67 0 0.34 0 0 Z " fill="#E7BEA7" transform="translate(207,309)"/>
<path d="M0 0 C1.38120529 0.0001133 1.38120529 0.0001133 2.79031372 0.00022888 C4.28412064 0.00797081 4.28412064 0.00797081 5.80810547 0.01586914 C7.33538773 0.01799156 7.33538773 0.01799156 8.89352417 0.02015686 C12.15414332 0.02576639 15.41469448 0.03832051 18.67529297 0.05102539 C20.88232323 0.05603916 23.08935456 0.06060228 25.29638672 0.06469727 C30.71437877 0.07573891 36.13233101 0.09248634 41.55029297 0.11352539 C41.55029297 1.43352539 41.55029297 2.75352539 41.55029297 4.11352539 C40.33212891 4.17411133 39.11396484 4.23469727 37.85888672 4.29711914 C36.2351802 4.38158942 34.61148275 4.46623411 32.98779297 4.55102539 C32.18792969 4.5903418 31.38806641 4.6296582 30.56396484 4.67016602 C29.77441406 4.71206055 28.98486328 4.75395508 28.17138672 4.79711914 C27.45394287 4.83377686 26.73649902 4.87043457 25.99731445 4.90820312 C24.09675204 5.06767364 22.20423471 5.32426187 20.31994629 5.6192627 C16.75288789 6.08696191 13.38291286 6.23405681 9.78881836 6.22705078 C8.4879982 6.22697525 7.18717804 6.22689972 5.84693909 6.2268219 C4.4472754 6.2217168 3.04761211 6.21650083 1.64794922 6.21118164 C0.20063832 6.20931405 -1.24667322 6.20789176 -2.69398499 6.20689392 C-6.48330463 6.20309557 -10.27258529 6.19328849 -14.06188965 6.18218994 C-17.93659945 6.17191786 -21.81131563 6.16738393 -25.68603516 6.16235352 C-33.27394346 6.15166355 -40.86181976 6.13461973 -48.44970703 6.11352539 C-48.44970703 5.45352539 -48.44970703 4.79352539 -48.44970703 4.11352539 C-43.82970703 3.78352539 -39.20970703 3.45352539 -34.44970703 3.11352539 C-35.43970703 2.45352539 -36.42970703 1.79352539 -37.44970703 1.11352539 C-36.05679443 1.12138062 -36.05679443 1.12138062 -34.63574219 1.12939453 C-31.19546898 1.14642132 -27.75524044 1.15896812 -24.31494141 1.16845703 C-22.82502537 1.17349053 -21.33511429 1.18031781 -19.84521484 1.18896484 C-17.70555399 1.20107344 -15.56595836 1.20676346 -13.42626953 1.21118164 C-12.1380127 1.21641846 -10.84975586 1.22165527 -9.52246094 1.22705078 C-6.08594774 1.10008601 -3.51224061 -0.00959629 0 0 Z " fill="#DE5964" transform="translate(255.44970703125,338.886474609375)"/>
<path d="M0 0 C0.98613281 0.17208984 0.98613281 0.17208984 1.9921875 0.34765625 C2.65476562 0.43917969 3.31734375 0.53070313 4 0.625 C6.69616928 1.75874482 7.49878088 2.81101807 8.8671875 5.41015625 C9.16074473 8.17304781 9.287089 10.65619754 9.2421875 13.41015625 C9.25378906 14.12171875 9.26539063 14.83328125 9.27734375 15.56640625 C9.25974905 18.70999212 9.05892341 21.04539037 7.5859375 23.84765625 C5.64165149 25.61518899 4.58087171 26.08782981 1.9921875 26.41015625 C1.33476562 26.51328125 0.67734375 26.61640625 0 26.72265625 C-3.41847339 26.22178103 -4.83232716 24.95881038 -7.1328125 22.41015625 C-7.64686205 19.36516861 -7.83539128 17.00081462 -7.7578125 13.97265625 C-7.78681641 12.84633789 -7.78681641 12.84633789 -7.81640625 11.69726562 C-7.77971345 7.52529393 -7.43694703 5.81428021 -4.8515625 2.37890625 C-2.1328125 0.41015625 -2.1328125 0.41015625 0 0 Z " fill="#EB3E3E" transform="translate(281.1328125,362.58984375)"/>
<path d="M0 0 C0.98613281 0.17208984 0.98613281 0.17208984 1.9921875 0.34765625 C2.65476563 0.43917969 3.31734375 0.53070313 4 0.625 C6.69616928 1.75874482 7.49878088 2.81101807 8.8671875 5.41015625 C9.16074473 8.17304781 9.287089 10.65619754 9.2421875 13.41015625 C9.25378906 14.12171875 9.26539063 14.83328125 9.27734375 15.56640625 C9.25975574 18.70879746 9.06028857 21.04338196 7.5859375 23.84375 C5.65067177 25.60748082 4.56930055 26.11667371 1.9921875 26.47265625 C1.33476562 26.58738281 0.67734375 26.70210938 0 26.8203125 C-3.59783515 26.12842112 -4.95865727 24.26559642 -7.1328125 21.41015625 C-7.64040667 18.49596852 -7.83777819 16.29958335 -7.7578125 13.41015625 C-7.77714844 12.71148437 -7.79648438 12.0128125 -7.81640625 11.29296875 C-7.77960645 7.39218998 -7.22955784 5.53721734 -4.8515625 2.4140625 C-2.1328125 0.41015625 -2.1328125 0.41015625 0 0 Z " fill="#EC3C3B" transform="translate(195.1328125,362.58984375)"/>
<path d="M0 0 C2.05938216 1.57885966 2.84571211 2.69142423 4 5 C4.12335276 7.28919778 4.17558478 9.58251218 4.1875 11.875 C4.20167969 13.10992187 4.21585938 14.34484375 4.23046875 15.6171875 C4.01606614 18.76418172 3.72559806 20.41776576 2 23 C-0.69587803 25.09679403 -2.092944 24.99510821 -5.5625 24.8125 C-9.03621416 23.99144029 -9.91176134 23.70842693 -12 21 C-12.64169329 18.05156855 -12.50951997 15.07319119 -12.5 12.0625 C-12.52835938 11.25103516 -12.55671875 10.43957031 -12.5859375 9.60351562 C-12.59969392 5.41124511 -12.5770438 3.64355054 -9.6953125 0.4296875 C-6.02186893 -1.51883474 -3.95171728 -1.09769924 0 0 Z " fill="#E94343" transform="translate(180,364)"/>
<path d="M0 0 C7.40239645 -0.12886183 14.63959083 0.20274098 22 1 C21.67 2.32 21.34 3.64 21 5 C19.72697021 5.08040527 18.45394043 5.16081055 17.14233398 5.24365234 C11.24050769 5.61743023 5.33895552 5.99541616 -0.5625 6.375 C-2.14606796 6.47671005 -2.14606796 6.47671005 -3.7616272 6.58047485 C-22.49267884 7.78231168 -22.49267884 7.78231168 -41.18774414 9.44091797 C-47.13598199 10.02205687 -53.02545629 10.08209297 -59 10 C-59 8.68 -59 7.36 -59 6 C-55.5152003 5.24380477 -52.11663351 4.7760492 -48.5625 4.5 C-46.98722534 4.37709595 -46.98722534 4.37709595 -45.38012695 4.25170898 C-44.26468506 4.16864502 -43.14924316 4.08558105 -42 4 C-40.85039795 3.91242432 -39.7007959 3.82484863 -38.51635742 3.73461914 C-30.27076699 3.12372923 -22.02604254 2.65203148 -13.76367188 2.34179688 C-9.1067172 2.15612496 -4.60199946 1.74543766 0 1 C0 0.67 0 0.34 0 0 Z " fill="#E1C2AA" transform="translate(276,224)"/>
<path d="M0 0 C2.1875 1.1875 2.1875 1.1875 4.1875 4.1875 C4.45624159 8.20249931 4.27413712 12.15887407 4.1875 16.1875 C-2.4125 16.1875 -9.0125 16.1875 -15.8125 16.1875 C-16.18320996 3.70693136 -16.18320996 3.70693136 -14.48828125 1.33203125 C-10.07932787 -1.67921197 -4.96485561 -1.43429162 0 0 Z " fill="#C5644B" transform="translate(189.8125,176.8125)"/>
<path d="M0 0 C49.76274395 -0.19432031 49.76274395 -0.19432031 65.8125 0.375 C66.81522949 0.40585693 67.81795898 0.43671387 68.85107422 0.46850586 C73.29287174 0.65950395 76.96771572 0.92045717 81 3 C81 3.99 81 4.98 81 6 C73.09661012 5.75913691 65.19330157 5.51579912 57.29007912 5.26950932 C53.61822529 5.15515595 49.94635125 5.04157873 46.27441406 4.92993164 C15.08365767 3.98050373 15.08365767 3.98050373 0 3 C0 2.01 0 1.02 0 0 Z " fill="#E3C2A8" transform="translate(214,269)"/>
<path d="M0 0 C1.09570312 0.19464844 2.19140625 0.38929688 3.3203125 0.58984375 C4.58488281 0.82380859 4.58488281 0.82380859 5.875 1.0625 C5.875 1.3925 5.875 1.7225 5.875 2.0625 C-5.51 2.5575 -5.51 2.5575 -17.125 3.0625 C-17.125 4.3825 -17.125 5.7025 -17.125 7.0625 C-21.58331855 7.09227098 -26.04161066 7.10955014 -30.5 7.125 C-31.73234375 7.13337891 -32.9646875 7.14175781 -34.234375 7.15039062 C-41.88841271 7.17011753 -49.46666678 6.92189367 -57.10357666 6.45584106 C-66.14609017 5.91542452 -75.19493865 5.71393346 -84.25 5.5 C-85.99870417 5.45663162 -87.74740215 5.41301285 -89.49609375 5.36914062 C-93.70566383 5.26405797 -97.91530158 5.16230303 -102.125 5.0625 C-102.125 4.7325 -102.125 4.4025 -102.125 4.0625 C-100.57171997 4.04062622 -100.57171997 4.04062622 -98.98706055 4.01831055 C-76.31514863 3.67866685 -53.69865404 2.89924511 -31.0625 1.5625 C-29.35989517 1.46393204 -29.35989517 1.46393204 -27.62289429 1.3633728 C-24.40315594 1.17519964 -21.18394966 0.97992215 -17.96484375 0.78125 C-16.99597229 0.72395218 -16.02710083 0.66665436 -15.02886963 0.60762024 C-13.70348175 0.52244392 -13.70348175 0.52244392 -12.35131836 0.43554688 C-11.57944687 0.38748901 -10.80757538 0.33943115 -10.01231384 0.28991699 C-3.04147208 -0.55005346 -3.04147208 -0.55005346 0 0 Z " fill="#D6737E" transform="translate(310.125,300.9375)"/>
<path d="M0 0 C6.6 0 13.2 0 20 0 C20.20983318 8.62457202 20.39656518 17.24947058 20.5625 25.875 C20.57523327 26.53616695 20.58796654 27.19733391 20.60108566 27.87853622 C21.06730374 52.53124877 20.9422228 77.15923675 20.5625 101.8125 C20.54968616 102.64516136 20.53687233 103.47782272 20.5236702 104.33571625 C20.36492819 114.55743529 20.19043092 124.77882042 20 135 C18.02 135.99 18.02 135.99 16 137 C14.68 136.01 13.36 135.02 12 134 C14.31 134 16.62 134 19 134 C19 91.76 19 49.52 19 6 C13.06 6 7.12 6 1 6 C0.67 6.66 0.34 7.32 0 8 C0 5.36 0 2.72 0 0 Z " fill="#EEC565" transform="translate(174,197)"/>
<path d="M0 0 C1.32 0 2.64 0 4 0 C6.31 4.62 8.62 9.24 11 14 C11.33 9.38 11.66 4.76 12 0 C13.32 0 14.64 0 16 0 C16 8.58 16 17.16 16 26 C14.68 26 13.36 26 12 26 C9.36 20.72 6.72 15.44 4 10 C3.67 15.28 3.34 20.56 3 26 C2.01 26 1.02 26 0 26 C0 17.42 0 8.84 0 0 Z " fill="#E63E3E" transform="translate(317,363)"/>
<path d="M0 0 C1.32 0 2.64 0 4 0 C6.31 4.62 8.62 9.24 11 14 C11.33 9.38 11.66 4.76 12 0 C13.32 0 14.64 0 16 0 C16 8.58 16 17.16 16 26 C14.68 26 13.36 26 12 26 C9.36 20.72 6.72 15.44 4 10 C3.67 15.28 3.34 20.56 3 26 C2.01 26 1.02 26 0 26 C0 17.42 0 8.84 0 0 Z " fill="#E04143" transform="translate(295,363)"/>
<path d="M0 0 C1.92057175 0.00502598 3.84114477 0.00958694 5.76171875 0.01367188 C10.42451118 0.02458833 15.08724119 0.0417922 19.75 0.0625 C19.75 1.7125 19.75 3.3625 19.75 5.0625 C2.26 5.0625 -15.23 5.0625 -33.25 5.0625 C-33.25 3.7425 -33.25 2.4225 -33.25 1.0625 C-22.18010386 -0.21402078 -11.12519773 -0.05090964 0 0 Z " fill="#E3C4A8" transform="translate(269.25,325.9375)"/>
<path d="M0 0 C17.49 0 34.98 0 53 0 C53 1.32 53 2.64 53 4 C35.33568845 5.20194587 17.6942504 5.10354036 0 5 C0 3.35 0 1.7 0 0 Z " fill="#E4C4A9" transform="translate(226,242)"/>
<path d="M0 0 C2.31 0.33 4.62 0.66 7 1 C7 1.66 7 2.32 7 3 C2.25 4.125 2.25 4.125 0 3 C-0.33 4.32 -0.66 5.64 -1 7 C-16.67235593 7.63411232 -32.31367722 8.17386318 -48 8 C-48 6.68 -48 5.36 -48 4 C-40.5728484 2.94275422 -33.1847462 2.65841572 -25.69335938 2.39453125 C-24.74654297 2.35714844 -23.79972656 2.31976563 -22.82421875 2.28125 C-21.96916748 2.25095703 -21.11411621 2.22066406 -20.2331543 2.18945312 C-17.82920125 2.0735676 -17.82920125 2.0735676 -15 1 C-12.4191074 1.08744008 -9.88308522 1.22868495 -7.3125 1.4375 C-6.61060547 1.48970703 -5.90871094 1.54191406 -5.18554688 1.59570312 C-3.45661946 1.72507865 -1.72824645 1.86182531 0 2 C0 1.34 0 0.68 0 0 Z " fill="#889ECA" transform="translate(269,216)"/>
<path d="M0 0 C1.32 0 2.64 0 4 0 C4 3.96 4 7.92 4 12 C6.64 12 9.28 12 12 12 C12 8.04 12 4.08 12 0 C13.32 0 14.64 0 16 0 C16 8.58 16 17.16 16 26 C14.68 26 13.36 26 12 26 C12 22.37 12 18.74 12 15 C9.36 15 6.72 15 4 15 C4 18.63 4 22.26 4 26 C2.68 26 1.36 26 0 26 C0 17.42 0 8.84 0 0 Z " fill="#DF4040" transform="translate(147,363)"/>
<path d="M0 0 C0.85049423 0.0199855 1.70098846 0.03997101 2.57725525 0.06056213 C3.53817581 0.08065842 4.49909637 0.1007547 5.48913574 0.12145996 C6.53391586 0.14849503 7.57869598 0.17553009 8.65513611 0.2033844 C10.25112892 0.23880089 10.25112892 0.23880089 11.87936401 0.27493286 C15.29303115 0.35178603 18.70648365 0.43571675 22.11997986 0.51979065 C24.4279119 0.57298967 26.73585457 0.62573019 29.04380798 0.67799377 C34.71516607 0.80743028 40.38636349 0.94268499 46.05747986 1.08229065 C46.55247986 3.55729065 46.55247986 3.55729065 47.05747986 6.08229065 C30.69139186 6.21075288 14.4012628 5.96548444 -1.94252014 5.08229065 C-2.50502014 3.14479065 -2.50502014 3.14479065 -2.94252014 1.08229065 C-1.94252014 0.08229065 -1.94252014 0.08229065 0 0 Z " fill="#E4C3A8" transform="translate(213.94252014160156,316.91770935058594)"/>
<path d="M0 0 C5.51350585 -0.02490465 11.02697822 -0.04295608 16.54052734 -0.05493164 C18.41227795 -0.05992942 20.28402471 -0.06672988 22.15576172 -0.07543945 C24.86166335 -0.08770621 27.56751292 -0.093274 30.2734375 -0.09765625 C31.09677582 -0.10281754 31.92011414 -0.10797882 32.7684021 -0.11329651 C38.56511673 -0.11384375 44.24346122 0.32839588 50 1 C50 2.32 50 3.64 50 5 C44.80794615 5.02498397 39.61592839 5.04299248 34.42382812 5.05493164 C32.6627542 5.05991642 30.90168432 5.06670666 29.140625 5.07543945 C19.37648855 5.12259579 9.71948604 5.09018514 0 4 C0 2.68 0 1.36 0 0 Z " fill="#E5C3A8" transform="translate(208,275)"/>
<path d="M0 0 C1.32 0 2.64 0 4 0 C4.33 3.3 4.66 6.6 5 10 C5.45890625 9.278125 5.9178125 8.55625 6.390625 7.8125 C7.00421875 6.884375 7.6178125 5.95625 8.25 5 C8.85328125 4.071875 9.4565625 3.14375 10.078125 2.1875 C11.02945312 1.1046875 11.02945312 1.1046875 12 0 C13.32 0 14.64 0 16 0 C14.93577103 3.10400117 14.0028577 4.99690416 11.75 7.4375 C9.66096956 9.86430403 9.66096956 9.86430403 10.4375 12.6875 C12.54958202 17.16511387 14.72358464 21.60356423 17 26 C15.35 26 13.7 26 12 26 C10.35 22.7 8.7 19.4 7 16 C6.34 16 5.68 16 5 16 C4.67 19.3 4.34 22.6 4 26 C2.68 26 1.36 26 0 26 C0 17.42 0 8.84 0 0 Z " fill="#EB3E40" transform="translate(254,363)"/>
<path d="M0 0 C12.54 0 25.08 0 38 0 C38.495 1.98 38.495 1.98 39 4 C37.19402344 4.09087891 37.19402344 4.09087891 35.3515625 4.18359375 C33.77602923 4.26799732 32.20050904 4.35264541 30.625 4.4375 C29.8309375 4.47681641 29.036875 4.51613281 28.21875 4.55664062 C23.97398779 4.68893404 23.97398779 4.68893404 20 6 C17.89471067 6.08543895 15.78668843 6.10714725 13.6796875 6.09765625 C12.42285156 6.09443359 11.16601562 6.09121094 9.87109375 6.08789062 C8.55238281 6.07951172 7.23367188 6.07113281 5.875 6.0625 C4.53515789 6.05748489 3.195314 6.05292201 1.85546875 6.04882812 C-1.42973206 6.03701086 -4.71484397 6.02053617 -8 6 C-7.67 4.68 -7.34 3.36 -7 2 C-4.69 2 -2.38 2 0 2 C0 1.34 0 0.68 0 0 Z " fill="#6E8FBA" transform="translate(276,217)"/>
<path d="M0 0 C0.5625 1.9375 0.5625 1.9375 1 4 C-1.01318068 6.01318068 -4.99999893 5.39573994 -7.76953125 5.53515625 C-8.56090988 5.57813339 -9.35228851 5.62111053 -10.16764832 5.66539001 C-11.85310066 5.75583447 -13.53867974 5.84394198 -15.22436523 5.92993164 C-17.76386274 6.06000872 -20.30280614 6.19830936 -22.84179688 6.33789062 C-31.56784457 6.8048568 -40.25796998 7.14772488 -49 7 C-49 5.68 -49 4.36 -49 3 C-37.65630519 1.9394232 -26.31857061 0.93287454 -14.9375 0.375 C-13.71788574 0.31517944 -13.71788574 0.31517944 -12.47363281 0.25415039 C-8.31192588 0.06462377 -4.16726118 -0.04000571 0 0 Z " fill="#E3C2A8" transform="translate(303,231)"/>
<path d="M0 0 C2 1.875 2 1.875 3 4 C3 4.99 3 5.98 3 7 C1.68 7 0.36 7 -1 7 C-1.33 6.01 -1.66 5.02 -2 4 C-3.91666667 3.16666667 -3.91666667 3.16666667 -6 3 C-6.99 3.495 -6.99 3.495 -8 4 C-7.83885846 5.9185774 -7.83885846 5.9185774 -7 8 C-4.95253616 9.53010982 -4.95253616 9.53010982 -2.5 10.8125 C1.84317153 13.53735603 1.84317153 13.53735603 3.25 17.6875 C3 21 3 21 2.0625 22.875 C-1.18761689 24.64779103 -4.29654644 25.37466845 -8 25 C-11 22.75 -11 22.75 -13 20 C-13 19.01 -13 18.02 -13 17 C-11.68 17 -10.36 17 -9 17 C-8.67 17.99 -8.34 18.98 -8 20 C-6.02 20 -4.04 20 -2 20 C-2 18.68 -2 17.36 -2 16 C-2.62648437 15.67386719 -3.25296875 15.34773438 -3.8984375 15.01171875 C-5.12433594 14.35623047 -5.12433594 14.35623047 -6.375 13.6875 C-7.18710938 13.25824219 -7.99921875 12.82898438 -8.8359375 12.38671875 C-11 11 -11 11 -13 8 C-12.86059549 4.65429178 -12.55674509 2.69036391 -10.4375 0.0625 C-6.82366379 -1.51276194 -3.72741277 -1.1791603 0 0 Z " fill="#E44C4B" transform="translate(239,364)"/>
<path d="M0 0 C-0.33 0.66 -0.66 1.32 -1 2 C-5.62 2 -10.24 2 -15 2 C-15 2.66 -15 3.32 -15 4 C-6.64586859 3.8921983 1.70817673 3.77950583 10.06215763 3.66066074 C13.9417203 3.6056212 17.82129072 3.55223287 21.70092773 3.50268555 C25.44869064 3.45476052 29.19636853 3.40241002 32.94402885 3.34705925 C34.37004909 3.32676243 35.79609251 3.30802952 37.22215462 3.29092598 C39.227667 3.26659905 41.23310119 3.23607104 43.23852539 3.20532227 C44.37769913 3.18977798 45.51687286 3.1742337 46.69056702 3.15821838 C50.17819251 2.99148092 53.54982888 2.52417331 57 2 C58.83083135 1.92614413 60.6638054 1.89150181 62.49609375 1.90234375 C63.46611328 1.90556641 64.43613281 1.90878906 65.43554688 1.91210938 C66.42619141 1.92048828 67.41683594 1.92886719 68.4375 1.9375 C69.45521484 1.94201172 70.47292969 1.94652344 71.52148438 1.95117188 C74.01438509 1.96287563 76.50716074 1.97927152 79 2 C79 2.33 79 2.66 79 3 C55.76558462 5.10053864 32.64765047 6.30914981 9.3125 6.3125 C8.19700775 6.31572266 7.0815155 6.31894531 5.93222046 6.32226562 C2.74238615 6.32791494 -0.44693224 6.31775683 -3.63671875 6.30078125 C-4.58296112 6.30157181 -5.52920349 6.30236237 -6.50411987 6.30317688 C-11.71764448 6.2478235 -16.062629 5.69847591 -21 4 C-20 2 -20 2 -16.6875 0.875 C-11.17531978 -0.41017135 -5.62450319 -0.1687351 0 0 Z " fill="#CC626B" transform="translate(222,341)"/>
<path d="M0 0 C1.9375 1.875 1.9375 1.875 3 4 C3 4.99 3 5.98 3 7 C1.68 7 0.36 7 -1 7 C-1.33 6.01 -1.66 5.02 -2 4 C-4.97 3.505 -4.97 3.505 -8 3 C-7.69399898 6.21301068 -7.45099973 7.60797715 -4.96875 9.765625 C-3.74671875 10.50039063 -3.74671875 10.50039063 -2.5 11.25 C-1.6853125 11.75015625 -0.870625 12.2503125 -0.03125 12.765625 C0.6390625 13.17296875 1.309375 13.5803125 2 14 C3 15 3 15 3.25 17.875 C3 21 3 21 1.9375 22.8125 C-1.04560004 24.64085164 -3.52738683 24.88025472 -7 25 C-9.875 23.875 -9.875 23.875 -12 22 C-12.8125 19.3125 -12.8125 19.3125 -13 17 C-11.68 17 -10.36 17 -9 17 C-8.67 18.32 -8.34 19.64 -8 21 C-6.35 21 -4.7 21 -3 21 C-2.67 19.35 -2.34 17.7 -2 16 C-2.63808594 15.57847656 -3.27617188 15.15695312 -3.93359375 14.72265625 C-4.75988281 14.17480469 -5.58617188 13.62695312 -6.4375 13.0625 C-7.26121094 12.51722656 -8.08492188 11.97195313 -8.93359375 11.41015625 C-11 10 -11 10 -12 9 C-12.375 5.625 -12.375 5.625 -12 2 C-8.22350295 -1.66205774 -4.88746965 -1.35763046 0 0 Z " fill="#E44544" transform="translate(120,364)"/>
<path d="M0 0 C15.51 0 31.02 0 47 0 C47 1.65 47 3.3 47 5 C23.735 4.505 23.735 4.505 0 4 C0 2.68 0 1.36 0 0 Z " fill="#2E5A89" transform="translate(243,261)"/>
<path d="M0 0 C55.79727205 -0.19470171 55.79727205 -0.19470171 77.125 0.375 C78.13308212 0.39806717 78.13308212 0.39806717 79.16152954 0.42160034 C100.81573438 0.93857813 100.81573438 0.93857813 110 4 C110 4.66 110 5.32 110 6 C108.68 6 107.36 6 106 6 C106 5.34 106 4.68 106 4 C100.72 4 95.44 4 90 4 C90 3.34 90 2.68 90 2 C60.3 2 30.6 2 0 2 C0 1.34 0 0.68 0 0 Z " fill="#95A0B1" transform="translate(204,253)"/>
<path d="M0 0 C5.36092345 0.9355337 5.36092345 0.9355337 7.8671875 3.28515625 C8.8671875 5.41015625 8.8671875 5.41015625 8.8671875 8.41015625 C7.5471875 8.41015625 6.2271875 8.41015625 4.8671875 8.41015625 C4.5371875 7.42015625 4.2071875 6.43015625 3.8671875 5.41015625 C1.95052083 4.57682292 1.95052083 4.57682292 -0.1328125 4.41015625 C-1.1228125 4.90515625 -1.1228125 4.90515625 -2.1328125 5.41015625 C-2.1328125 10.69015625 -2.1328125 15.97015625 -2.1328125 21.41015625 C1.61410197 22.80786209 1.61410197 22.80786209 3.8671875 21.41015625 C4.1971875 20.42015625 4.5271875 19.43015625 4.8671875 18.41015625 C6.1871875 18.41015625 7.5071875 18.41015625 8.8671875 18.41015625 C8.54561546 21.38469759 8.24579008 23.00350903 6.1796875 25.22265625 C3.08456041 26.81204584 1.30698743 26.97175624 -2.1328125 26.41015625 C-5.76022758 23.63216532 -7.00360578 22.15195484 -7.796875 17.59765625 C-7.81004323 16.2018243 -7.79642947 14.80551605 -7.7578125 13.41015625 C-7.77714844 12.71148437 -7.79648438 12.0128125 -7.81640625 11.29296875 C-7.77960645 7.39218998 -7.22955784 5.53721734 -4.8515625 2.4140625 C-2.1328125 0.41015625 -2.1328125 0.41015625 0 0 Z " fill="#D94644" transform="translate(134.1328125,362.58984375)"/>
<path d="M0 0 C5.36092345 0.9355337 5.36092345 0.9355337 7.8671875 3.28515625 C8.8671875 5.41015625 8.8671875 5.41015625 8.8671875 8.41015625 C7.5471875 8.41015625 6.2271875 8.41015625 4.8671875 8.41015625 C4.5371875 7.42015625 4.2071875 6.43015625 3.8671875 5.41015625 C1.95052083 4.57682292 1.95052083 4.57682292 -0.1328125 4.41015625 C-1.1228125 4.90515625 -1.1228125 4.90515625 -2.1328125 5.41015625 C-2.1328125 10.69015625 -2.1328125 15.97015625 -2.1328125 21.41015625 C1.61410197 22.80786209 1.61410197 22.80786209 3.8671875 21.41015625 C4.1971875 20.42015625 4.5271875 19.43015625 4.8671875 18.41015625 C6.1871875 18.41015625 7.5071875 18.41015625 8.8671875 18.41015625 C8.59855164 21.7233318 8.27658882 23.04891979 5.7421875 25.28515625 C1.96978629 26.76131325 -0.25346438 26.48775295 -4.1328125 25.41015625 C-6.82038508 22.91008873 -7.13595199 21.38527582 -7.6015625 17.6953125 C-7.62799147 16.28797001 -7.63794498 14.88023752 -7.6328125 13.47265625 C-7.67535156 12.41788086 -7.67535156 12.41788086 -7.71875 11.34179688 C-7.73350211 7.40667127 -7.25475802 5.57107405 -4.859375 2.41015625 C-2.1328125 0.41015625 -2.1328125 0.41015625 0 0 Z " fill="#DC4A4A" transform="translate(364.1328125,362.58984375)"/>
<path d="M0 0 C4.62 0 9.24 0 14 0 C14 0.99 14 1.98 14 3 C10.7 3.33 7.4 3.66 4 4 C4 6.31 4 8.62 4 11 C6.31 11.33 8.62 11.66 11 12 C11 12.99 11 13.98 11 15 C8.36 15 5.72 15 3 15 C3.33 17.31 3.66 19.62 4 22 C7.3 22.33 10.6 22.66 14 23 C14 23.99 14 24.98 14 26 C9.38 26 4.76 26 0 26 C0 17.42 0 8.84 0 0 Z " fill="#E24140" transform="translate(339,363)"/>
<path d="M0 0 C4.30518014 0.11884529 8.61015967 0.24312965 12.91503906 0.37231445 C14.37756148 0.41545337 15.84012747 0.45714195 17.30273438 0.49731445 C19.4128936 0.5555307 21.52283775 0.61907288 23.6328125 0.68359375 C25.53377686 0.73858032 25.53377686 0.73858032 27.47314453 0.79467773 C30.72019016 0.98371036 33.80698948 1.3962073 37 2 C37 3.32 37 4.64 37 6 C3.61569416 6.30784708 3.61569416 6.30784708 -1 4 C-0.67 2.68 -0.34 1.36 0 0 Z " fill="#E4C3A9" transform="translate(261,247)"/>
<path d="M0 0 C0.33 0 0.66 0 1 0 C1.33 4.29 1.66 8.58 2 13 C3.65 13.33 5.3 13.66 7 14 C7 14.33 7 14.66 7 15 C5.02 15 3.04 15 1 15 C1 59.55 1 104.1 1 150 C0.67 150 0.34 150 0 150 C-0.15445161 132.50964495 -0.30246552 115.01924859 -0.4429636 97.52877617 C-0.50835723 89.40636244 -0.57580139 81.28397571 -0.64819336 73.16162109 C-0.71133678 66.07635172 -0.77051005 58.99106179 -0.82505554 51.90572083 C-0.85403098 48.15940414 -0.88489945 44.41312606 -0.92053413 40.6668663 C-0.95412063 37.12930552 -0.98233509 33.59173973 -1.00670624 30.05410385 C-1.02107226 28.16024392 -1.04088523 26.26642766 -1.06095886 24.37261963 C-1.11037173 16.20507555 -0.69085295 8.13775359 0 0 Z " fill="#F9E2AC" transform="translate(173,182)"/>
<path d="M0 0 C0 1.32 0 2.64 0 4 C-4.42809537 5.04139002 -8.84727803 5.32787555 -13.375 5.5625 C-14.1592334 5.6049585 -14.9434668 5.64741699 -15.75146484 5.69116211 C-23.17203915 6.06316387 -30.57157612 6.0986074 -38 6 C-37.67 4.68 -37.34 3.36 -37 2 C-32.70880631 1.66038964 -28.41698339 1.3294676 -24.125 1 C-22.92101562 0.90460938 -21.71703125 0.80921875 -20.4765625 0.7109375 C-13.63428483 0.19032942 -6.86221524 -0.14267384 0 0 Z " fill="#E3C2A7" transform="translate(255,332)"/>
<path d="M0 0 C5.61 0 11.22 0 17 0 C17 1.32 17 2.64 17 4 C15.02 4 13.04 4 11 4 C11 11.26 11 18.52 11 26 C9.68 26 8.36 26 7 26 C7 18.74 7 11.48 7 4 C5.02 4 3.04 4 1 4 C0.67 2.68 0.34 1.36 0 0 Z " fill="#F38081" transform="translate(376,363)"/>
<path d="M0 0 C2.5 0.25 2.5 0.25 4.5 2.25 C4.80078125 5.40234375 4.80078125 5.40234375 4.8125 9.1875 C4.82925781 10.43402344 4.84601563 11.68054688 4.86328125 12.96484375 C4.5 16.25 4.5 16.25 3.109375 18.203125 C1.5 19.25 1.5 19.25 -0.5625 19.0625 C-2.5 18.25 -2.5 18.25 -4.5 16.25 C-4.765625 13.0625 -4.765625 13.0625 -4.75 9.25 C-4.75515625 7.991875 -4.7603125 6.73375 -4.765625 5.4375 C-4.44358754 1.57305049 -3.95670619 0.39567062 0 0 Z " fill="#FEEAE9" transform="translate(175.5,366.75)"/>
<path d="M0 0 C0.86625 0.2784375 0.86625 0.2784375 1.75 0.5625 C3.97214494 1.16952281 3.97214494 1.16952281 6 0.4375 C8 0 8 0 10.03125 0.61328125 C12 2 12 2 12.96875 4.609375 C14.57915172 14.12969107 14.57915172 14.12969107 12.125 17.75 C11.073125 18.86375 11.073125 18.86375 10 20 C4 12.8 4 12.8 4 8 C3.34 8 2.68 8 2 8 C0.74335022 5.09399739 0 3.20395416 0 0 Z " fill="#FCF8DB" transform="translate(174,332)"/>
<path d="M0 0 C0.99 0.33 1.98 0.66 3 1 C2.89300781 1.67804688 2.78601563 2.35609375 2.67578125 3.0546875 C1.58690293 11.50812994 2.83090426 17.7421454 6.6875 25.3125 C8.0753328 28.15425287 8.2749245 29.88418897 8 33 C6.19921875 32.9296875 6.19921875 32.9296875 4 32 C2.73475315 29.68285003 1.75121164 27.56808848 0.8125 25.125 C0.55275391 24.48691406 0.29300781 23.84882813 0.02539062 23.19140625 C-1.87288234 18.49232227 -3.16738722 14.6363014 -3.25 9.5625 C-3.27578125 8.61503906 -3.3015625 7.66757813 -3.328125 6.69140625 C-2.95241828 3.6097166 -2.0484735 2.28027445 0 0 Z " fill="#BB3A44" transform="translate(232,180)"/>
<path d="M0 0 C2.475 0.99 2.475 0.99 5 2 C5 7.28 5 12.56 5 18 C3.35 18.66 1.7 19.32 0 20 C-0.99 19.34 -1.98 18.68 -3 18 C-3.30330339 15.24053386 -3.41834858 12.75504315 -3.375 10 C-3.38660156 9.26265625 -3.39820313 8.5253125 -3.41015625 7.765625 C-3.3984375 5.625 -3.3984375 5.625 -3 2 C-2.01 1.34 -1.02 0.68 0 0 Z " fill="#FEF1F1" transform="translate(281,366)"/>
<path d="M0 0 C2.6875 0.875 2.6875 0.875 5 2 C5.02684679 4.64590014 5.04676357 7.29153096 5.0625 9.9375 C5.07087891 10.69224609 5.07925781 11.44699219 5.08789062 12.22460938 C5.09652441 14.14994313 5.05224333 16.07535581 5 18 C4 19 4 19 1 19.125 C-2 19 -2 19 -3 18 C-3.15317991 15.33997189 -3.23159875 12.7237812 -3.25 10.0625 C-3.270625 9.32064453 -3.29125 8.57878906 -3.3125 7.81445312 C-3.328125 5.66015625 -3.328125 5.66015625 -3 2 C-2.01 1.34 -1.02 0.68 0 0 Z " fill="#FEF2F2" transform="translate(195,366)"/>
<path d="M0 0 C0.33 0 0.66 0 1 0 C1 41.25 1 82.5 1 125 C3.31 125.33 5.62 125.66 8 126 C6.68 126.99 5.36 127.98 4 129 C2.68 128.34 1.36 127.68 0 127 C0 85.09 0 43.18 0 0 Z " fill="#F4C55C" transform="translate(174,205)"/>
<path d="M0 0 C4.34918534 -0.71774375 9.86530937 -0.50352387 14 1 C16.09862498 3.89810116 16 5.28378861 16 9 C10.06 9 4.12 9 -2 9 C-2 3 -2 3 0 0 Z " fill="#F75C32" transform="translate(177,178)"/>
<path d="M0 0 C1.32 0 2.64 0 4 0 C4 7.59 4 15.18 4 23 C7.63 23 11.26 23 15 23 C15 23.99 15 24.98 15 26 C10.05 26 5.1 26 0 26 C0 17.42 0 8.84 0 0 Z " fill="#D14E4D" transform="translate(209,363)"/>
<path d="M0 0 C1.12148438 -0.01675781 2.24296875 -0.03351563 3.3984375 -0.05078125 C7.81078482 0.44600846 10.36770894 2.13632449 13.5625 5.125 C14.625 7.3125 14.625 7.3125 13.8125 10.5625 C13.420625 11.47 13.02875 12.3775 12.625 13.3125 C11.305 13.3125 9.985 13.3125 8.625 13.3125 C8.439375 12.673125 8.25375 12.03375 8.0625 11.375 C6.68253944 8.89123787 6.68253944 8.89123787 3 8.5625 C1.88625 8.48 0.7725 8.3975 -0.375 8.3125 C-0.705 6.9925 -1.035 5.6725 -1.375 4.3125 C2.09 3.8175 2.09 3.8175 5.625 3.3125 C5.625 2.6525 5.625 1.9925 5.625 1.3125 C0.675 1.6425 -4.275 1.9725 -9.375 2.3125 C-5.84075288 -0.04366475 -4.18855898 0.0143772 0 0 Z " fill="#E5666F" transform="translate(266.375,169.6875)"/>
<path d="M0 0 C0 0.33 0 0.66 0 1 C-6.52042682 1.48480197 -13.04131003 1.96307688 -19.5625 2.4375 C-20.52217682 2.5075827 -21.48185364 2.57766541 -22.47061157 2.64987183 C-34.41996847 3.51848469 -46.3549171 4.35690618 -58.33618164 4.62084961 C-63.24760781 4.76371847 -67.31815398 5.50349209 -72 7 C-72.66 7 -73.32 7 -74 7 C-74 6.01 -74 5.02 -74 4 C-62.42903008 2.37910958 -50.91717207 1.4444507 -39.25 0.875 C-38.4224823 0.83264221 -37.5949646 0.79028442 -36.74237061 0.74664307 C-24.48986699 0.12109543 -12.27000805 -0.28388193 0 0 Z " fill="#D9D1CB" transform="translate(279,225)"/>
<path d="M0 0 C0 0.33 0 0.66 0 1 C-0.83772949 1.05534912 -1.67545898 1.11069824 -2.53857422 1.16772461 C-5.64363441 1.37491547 -8.7484039 1.58593271 -11.85302734 1.79956055 C-13.19732428 1.8912688 -14.54172653 1.98144665 -15.88623047 2.07006836 C-17.81765242 2.19764199 -19.74867894 2.33115854 -21.6796875 2.46484375 C-22.84226074 2.543396 -24.00483398 2.62194824 -25.20263672 2.70288086 C-27.95124154 2.82968626 -27.95124154 2.82968626 -30 4 C-31.40462622 4.15171984 -32.81537491 4.24900227 -34.2265625 4.31640625 C-35.08677002 4.35838135 -35.94697754 4.40035645 -36.83325195 4.44360352 C-38.21516724 4.50245728 -38.21516724 4.50245728 -39.625 4.5625 C-40.56110107 4.6049585 -41.49720215 4.64741699 -42.46166992 4.69116211 C-50.64594397 5.03713338 -58.8095564 5.10426307 -67 5 C-67 4.67 -67 4.34 -67 4 C-56.74521928 2.59499936 -46.53528254 1.56832779 -36.20043945 0.99462891 C-34.06604203 0.8751982 -31.93251184 0.74478793 -29.79882812 0.61328125 C-19.8579914 0.02604444 -9.95654438 -0.09820153 0 0 Z " fill="#637F9A" transform="translate(269,295)"/>
<path d="M0 0 C6.6 0 13.2 0 20 0 C20 1.65 20 3.3 20 5 C13.4 5 6.8 5 0 5 C0 3.35 0 1.7 0 0 Z " fill="#504742" transform="translate(174,197)"/>
<path d="M0 0 C0.99 0 1.98 0 3 0 C3 8.58 3 17.16 3 26 C1.68 26 0.36 26 -1 26 C-2.85776765 22.86501708 -3.20140476 20.62528568 -3 17 C-2.01 17 -1.02 17 0 17 C0 11.39 0 5.78 0 0 Z " fill="#D94345" transform="translate(330,363)"/>
<path d="M0 0 C0.66 0 1.32 0 2 0 C2 1.32 2 2.64 2 4 C-9.0239368 5.00708069 -19.94005573 5.10611887 -31 5 C-31 4.01 -31 3.02 -31 2 C-10.46808511 0.61702128 -10.46808511 0.61702128 -1 2 C-0.67 1.34 -0.34 0.68 0 0 Z " fill="#8AA0CB" transform="translate(252,219)"/>
<path d="M0 0 C0.99 0 1.98 0 3 0 C3.95302178 4.86041109 4.0160965 7.51978555 2 12 C1.6186926 14.32597511 1.27539746 16.65912158 1 19 C-0.32 18.67 -1.64 18.34 -3 18 C-3.55353075 5.33029613 -3.55353075 5.33029613 0 0 Z " fill="#A45141" transform="translate(253,154)"/>
<path d="M0 0 C0.99 0 1.98 0 3 0 C3 8.58 3 17.16 3 26 C1.68 26 0.36 26 -1 26 C-2.125 20.25 -2.125 20.25 -1 18 C-0.84995027 16.6265365 -0.75161994 15.2471474 -0.68359375 13.8671875 C-0.64169922 13.06152344 -0.59980469 12.25585938 -0.55664062 11.42578125 C-0.51732422 10.58402344 -0.47800781 9.74226563 -0.4375 8.875 C-0.39431641 8.02550781 -0.35113281 7.17601562 -0.30664062 6.30078125 C-0.20045764 4.20071777 -0.09971503 2.10038052 0 0 Z " fill="#E63D3D" transform="translate(308,363)"/>
<path d="M0 0 C2 1.875 2 1.875 3 4 C3 4.99 3 5.98 3 7 C1.68 7 0.36 7 -1 7 C-1.33 6.01 -1.66 5.02 -2 4 C-5.23434841 2.66164893 -6.41420686 3.10355171 -10 4 C-10 9.28 -10 14.56 -10 20 C-10.66 19.67 -11.32 19.34 -12 19 C-12.05451714 16.95863605 -12.09302485 14.91684144 -12.125 12.875 C-12.14820313 11.73804688 -12.17140625 10.60109375 -12.1953125 9.4296875 C-11.99488209 5.91012956 -11.37414189 3.23836237 -10 0 C-6.74905598 -1.62547201 -3.40046552 -0.91096316 0 0 Z " fill="#E84343" transform="translate(370,364)"/>
<path d="M0 0 C2 1.875 2 1.875 3 4 C3 4.99 3 5.98 3 7 C1.68 7 0.36 7 -1 7 C-1.33 6.01 -1.66 5.02 -2 4 C-5.23434841 2.66164893 -6.41420686 3.10355171 -10 4 C-10 7.96 -10 11.92 -10 16 C-10.66 16 -11.32 16 -12 16 C-12.10794277 13.73020335 -12.18556176 11.45894804 -12.25 9.1875 C-12.29640625 7.92292969 -12.3428125 6.65835937 -12.390625 5.35546875 C-12 2 -12 2 -10.23828125 0.046875 C-6.6589279 -1.62723791 -3.70611395 -1.17242246 0 0 Z " fill="#E74644" transform="translate(140,364)"/>
<path d="M0 0 C0.33 0 0.66 0 1 0 C1.33 4.29 1.66 8.58 2 13 C2.66 9.7 3.32 6.4 4 3 C4.66 3.33 5.32 3.66 6 4 C6 10.27 6 16.54 6 23 C4.68 23 3.36 23 2 23 C1.34 23.99 0.68 24.98 0 26 C0 17.42 0 8.84 0 0 Z " fill="#FEE0DF" transform="translate(163,363)"/>
<path d="M0 0 C0.33 0 0.66 0 1 0 C1.02712325 2.87506421 1.04689851 5.74986908 1.0625 8.625 C1.07087891 9.43324219 1.07925781 10.24148438 1.08789062 11.07421875 C1.1058955 15.50341918 0.89622662 19.63883424 0 24 C-2.64241787 20.7447322 -4.44931904 17.3430559 -6.25 13.5625 C-6.79140625 12.45003906 -7.3328125 11.33757812 -7.890625 10.19140625 C-9.05426041 6.84390579 -9.0677172 5.3210971 -8 2 C-4.94228487 5.66925816 -3.06721076 9.72301221 -1 14 C-0.67 9.38 -0.34 4.76 0 0 Z " fill="#EA5F62" transform="translate(307,363)"/>
<path d="M0 0 C6.27 0 12.54 0 19 0 C19 1.32 19 2.64 19 4 C12.73 4 6.46 4 0 4 C0 2.68 0 1.36 0 0 Z " fill="#281D21" transform="translate(174,189)"/>
<path d="M0 0 C0 0.66 0 1.32 0 2 C-0.80824219 2.36738281 -1.61648437 2.73476563 -2.44921875 3.11328125 C-5.4200943 4.86256808 -5.4200943 4.86256808 -5.70703125 8.79296875 C-5.76665328 10.25702079 -5.80098298 11.7222797 -5.8125 13.1875 C-5.83763672 13.93708984 -5.86277344 14.68667969 -5.88867188 15.45898438 C-5.94747576 17.30542621 -5.97661734 19.15277002 -6 21 C-6.99 21 -7.98 21 -9 21 C-9.08086376 18.06195004 -9.1404283 15.12611925 -9.1875 12.1875 C-9.21263672 11.35412109 -9.23777344 10.52074219 -9.26367188 9.66210938 C-9.27333984 8.85966797 -9.28300781 8.05722656 -9.29296875 7.23046875 C-9.3086792 6.49207764 -9.32438965 5.75368652 -9.34057617 4.99291992 C-8.4283813 -0.34489137 -4.66964894 -0.31130993 0 0 Z " fill="#E83D3F" transform="translate(177,364)"/>
<path d="M0 0 C0 3 0 3 -0.2109375 5.828125 C-0.6026681 13.99850606 0.50379956 19.67111249 3.95361328 27.02441406 C6.05650804 31.56607404 6.05650804 31.56607404 5.68359375 34.4296875 C5.34521484 35.20699219 5.34521484 35.20699219 5 36 C-0.36356488 25.72826726 -4.50190761 16.85376546 -3 5 C-1.48046875 2.1328125 -1.48046875 2.1328125 0 0 Z " fill="#CE5C66" transform="translate(230,178)"/>
<path d="M0 0 C7.61671924 3.10567823 7.61671924 3.10567823 9.125 6.625 C9 9 9 9 7 11 C4.375 10.625 4.375 10.625 2 10 C1.67 8.68 1.34 7.36 1 6 C-0.32 5.67 -1.64 5.34 -3 5 C-2.01 3.35 -1.02 1.7 0 0 Z " fill="#FEE8E9" transform="translate(110,375)"/>
<path d="M0 0 C0.99 0 1.98 0 3 0 C3 7.59 3 15.18 3 23 C2.01 23 1.02 23 0 23 C0 15.41 0 7.82 0 0 Z " fill="#E63E3E" transform="translate(383,366)"/>
<path d="M0 0 C1.32 0 2.64 0 4 0 C4 3.63 4 7.26 4 11 C3.34 11 2.68 11 2 11 C2.01160156 11.66386719 2.02320313 12.32773437 2.03515625 13.01171875 C2.12478032 21.78207381 2.12478032 21.78207381 1 26 C0.67 26 0.34 26 0 26 C0 17.42 0 8.84 0 0 Z " fill="#DF5253" transform="translate(147,363)"/>
<path d="M0 0 C3.59391114 1.33488128 6.75490696 2.96022723 10 5 C9.67 6.65 9.34 8.3 9 10 C7.02 10 5.04 10 3 10 C2.67 8.68 2.34 7.36 2 6 C0.68 6 -0.64 6 -2 6 C-2 5.34 -2 4.68 -2 4 C-1.01 4 -0.02 4 1 4 C0.67 2.68 0.34 1.36 0 0 Z " fill="#FEECEC" transform="translate(228,375)"/>
<path d="M0 0 C2.53541298 0.09086451 5.03554784 0.2370945 7.5625 0.4375 C8.62887695 0.51581055 8.62887695 0.51581055 9.71679688 0.59570312 C11.47821999 0.72574107 13.23916173 0.86226897 15 1 C15 1.33 15 1.66 15 2 C14.02417969 2.04898438 13.04835938 2.09796875 12.04296875 2.1484375 C10.77066406 2.22320312 9.49835938 2.29796875 8.1875 2.375 C6.29064453 2.47941406 6.29064453 2.47941406 4.35546875 2.5859375 C0.87244766 2.76102939 0.87244766 2.76102939 -2 5 C-4.87810696 4.98245057 -7.63929713 4.85828247 -10.5 4.625 C-12.12223297 4.51196091 -13.74463202 4.40128027 -15.3671875 4.29296875 C-16.15706055 4.23931152 -16.94693359 4.1856543 -17.76074219 4.13037109 C-22.1727032 3.87350376 -26.58331233 3.91244452 -31 4 C-31 3.67 -31 3.34 -31 3 C-23.51550914 1.93205838 -16.0671918 1.65603166 -8.51757812 1.39453125 C-7.08768555 1.33845703 -7.08768555 1.33845703 -5.62890625 1.28125 C-4.76338135 1.25095703 -3.89785645 1.22066406 -3.00610352 1.18945312 C-1.00281533 1.21531277 -1.00281533 1.21531277 0 0 Z " fill="#A6A2C2" transform="translate(252,217)"/>
<path d="M0 0 C0.33 0 0.66 0 1 0 C1.33 4.29 1.66 8.58 2 13 C3.65 13.33 5.3 13.66 7 14 C7 14.33 7 14.66 7 15 C5.02 15 3.04 15 1 15 C1 29.19 1 43.38 1 58 C0.67 58 0.34 58 0 58 C-0.16952079 51.99027666 -0.32984589 45.98039849 -0.48217773 39.97021484 C-0.53507714 37.93173863 -0.5903552 35.89332253 -0.64819336 33.85498047 C-0.96879026 22.49748662 -1.17362306 11.32013904 0 0 Z " fill="#F3DEAD" transform="translate(173,182)"/>
<path d="M0 0 C0.66 0.99 1.32 1.98 2 3 C4.97 3.495 4.97 3.495 8 4 C8 11.26 8 18.52 8 26 C6 24 6 24 5.77294922 22.02880859 C5.78342285 21.24328613 5.79389648 20.45776367 5.8046875 19.6484375 C5.81113281 18.79765625 5.81757813 17.946875 5.82421875 17.0703125 C5.84097656 16.18085938 5.85773438 15.29140625 5.875 14.375 C5.88402344 13.4778125 5.89304687 12.580625 5.90234375 11.65625 C5.9259503 9.43723414 5.9588769 7.21874923 6 5 C4.02 5 2.04 5 0 5 C-0.33 5.99 -0.66 6.98 -1 8 C-3 5 -3 5 -3 3 C-2.34 3 -1.68 3 -1 3 C-0.67 2.01 -0.34 1.02 0 0 Z " fill="#FED5D5" transform="translate(375,363)"/>
<path d="M0 0 C2.4375 0.375 2.4375 0.375 5 1 C6.59412284 4.18824568 6.10174735 7.62896662 6.0625 11.125 C6.05798828 11.87910156 6.05347656 12.63320313 6.04882812 13.41015625 C6.03703499 15.27347127 6.01909942 17.13674555 6 19 C5.01 19 4.02 19 3 19 C2.92652344 17.57107422 2.92652344 17.57107422 2.8515625 16.11328125 C2.77679688 14.85902344 2.70203125 13.60476563 2.625 12.3125 C2.55539063 11.07113281 2.48578125 9.82976562 2.4140625 8.55078125 C2.03577906 5.30682228 1.38020024 2.93432815 0 0 Z " fill="#ED3A38" transform="translate(198,365)"/>
<path d="M0 0 C0.66 0 1.32 0 2 0 C2.33 6.93 2.66 13.86 3 21 C7.455 21.99 7.455 21.99 12 23 C12 23.33 12 23.66 12 24 C8.04 24 4.08 24 0 24 C0 16.08 0 8.16 0 0 Z " fill="#EA3A38" transform="translate(210,364)"/>
<path d="M0 0 C0.33 0 0.66 0 1 0 C1 5.28 1 10.56 1 16 C1.66 16 2.32 16 3 16 C3 11.05 3 6.1 3 1 C3.33 1 3.66 1 4 1 C4.02578125 2.05960937 4.0515625 3.11921875 4.078125 4.2109375 C4.1343978 5.59900001 4.19174533 6.98701925 4.25 8.375 C4.26417969 9.07367188 4.27835937 9.77234375 4.29296875 10.4921875 C4.36035782 12.77717646 4.36035782 12.77717646 5 16 C6.91117245 17.35193251 6.91117245 17.35193251 9 18 C9.33 18.99 9.66 19.98 10 21 C3.51426686 20.38813838 3.51426686 20.38813838 1.2878418 18.70776367 C-0.28820632 16.61781929 -0.35143204 15.58015371 -0.29296875 12.98828125 C-0.28330078 12.23095703 -0.27363281 11.47363281 -0.26367188 10.69335938 C-0.23853516 9.90767578 -0.21339844 9.12199219 -0.1875 8.3125 C-0.17396484 7.51521484 -0.16042969 6.71792969 -0.14648438 5.89648438 C-0.11117089 3.93070033 -0.05736447 1.96526418 0 0 Z " fill="#E24C4A" transform="translate(274,368)"/>
<path d="M0 0 C0.33 0 0.66 0 1 0 C1 4.62 1 9.24 1 14 C1.66 14 2.32 14 3 14 C2.5 15.9375 2.5 15.9375 1 18 C-1.68600291 18.95252526 -4.1625512 19.2635575 -7 19 C-9.5 17.0625 -9.5 17.0625 -11 15 C-7.37900892 13.8858489 -5.08844645 14 -1 14 C-0.67 9.38 -0.34 4.76 0 0 Z " fill="#E75757" transform="translate(200,370)"/>
<path d="M0 0 C2.6875 0.875 2.6875 0.875 5 2 C5 2.66 5 3.32 5 4 C3.02 3.34 1.04 2.68 -1 2 C-0.67 6.95 -0.34 11.9 0 17 C0.99 17.33 1.98 17.66 3 18 C3 17.34 3 16.68 3 16 C3.66 16 4.32 16 5 16 C4.67 16.99 4.34 17.98 4 19 C2.125 19.8125 2.125 19.8125 0 20 C-0.99 19.34 -1.98 18.68 -3 18 C-3.30330339 15.24053386 -3.41834858 12.75504315 -3.375 10 C-3.38660156 9.26265625 -3.39820313 8.5253125 -3.41015625 7.765625 C-3.3984375 5.625 -3.3984375 5.625 -3 2 C-2.01 1.34 -1.02 0.68 0 0 Z " fill="#FEDDDD" transform="translate(134,366)"/>
<path d="M0 0 C2 2 2 2 2 5 C0.91102417 4.90150757 0.91102417 4.90150757 -0.19995117 4.80102539 C-9.9000405 3.98374127 -19.58415329 3.68218175 -29.3125 3.4375 C-30.93946106 3.39417711 -32.56641429 3.35055916 -34.19335938 3.30664062 C-38.12882453 3.20103469 -42.06437315 3.09938936 -46 3 C-46 2.67 -46 2.34 -46 2 C-31.15 2 -16.3 2 -1 2 C-0.67 1.34 -0.34 0.68 0 0 Z " fill="#E8DDD1" transform="translate(307,251)"/>
<path d="M0 0 C1.32 0.66 2.64 1.32 4 2 C2.02 2.99 2.02 2.99 0 4 C0 8.29 0 12.58 0 17 C1.32 17.66 2.64 18.32 4 19 C2.1875 19.625 2.1875 19.625 0 20 C-0.99 19.34 -1.98 18.68 -3 18 C-3.30330339 15.24053386 -3.41834858 12.75504315 -3.375 10 C-3.38660156 9.26265625 -3.39820313 8.5253125 -3.41015625 7.765625 C-3.3984375 5.625 -3.3984375 5.625 -3 2 C-2.01 1.34 -1.02 0.68 0 0 Z " fill="#FEDEDD" transform="translate(364,366)"/>
<path d="M0 0 C5.61 0 11.22 0 17 0 C17 0.33 17 0.66 17 1 C19.475 1.495 19.475 1.495 22 2 C22 2.33 22 2.66 22 3 C18.70835171 3.02895225 15.41673601 3.0467823 12.125 3.0625 C11.18785156 3.07087891 10.25070312 3.07925781 9.28515625 3.08789062 C7.94130859 3.09272461 7.94130859 3.09272461 6.5703125 3.09765625 C5.32918701 3.10551147 5.32918701 3.10551147 4.06298828 3.11352539 C2 3 2 3 0 2 C0 1.34 0 0.68 0 0 Z " fill="#406C97" transform="translate(266,265)"/>
<path d="M0 0 C0.66 0 1.32 0 2 0 C2.33 1.32 2.66 2.64 3 4 C10.92 4.33 18.84 4.66 27 5 C23.33367997 7.44421335 20.55119813 7.3041934 16.3125 7.25 C15.59513672 7.24613281 14.87777344 7.24226563 14.13867188 7.23828125 C9.10354808 7.15596315 4.76027571 6.58675857 0 5 C0 3.35 0 1.7 0 0 Z " fill="#5C7C9A" transform="translate(195,260)"/>
<path d="M0 0 C1.671549 0.30791692 3.33805547 0.64386903 5 1 C5.99 1 6.98 1 8 1 C6.35 4.3 4.7 7.6 3 11 C2.34 11 1.68 11 1 11 C0.63890458 9.35567294 0.28629924 7.7094792 -0.0625 6.0625 C-0.25972656 5.14597656 -0.45695313 4.22945313 -0.66015625 3.28515625 C-0.77230469 2.53105469 -0.88445312 1.77695312 -1 1 C-0.67 0.67 -0.34 0.34 0 0 Z " fill="#FDF5D2" transform="translate(186,332)"/>
<path d="M0 0 C3 1 3 1 4.60546875 3.72265625 C5.12753906 4.82480469 5.64960938 5.92695313 6.1875 7.0625 C6.71730469 8.16722656 7.24710937 9.27195312 7.79296875 10.41015625 C8.19128906 11.26480469 8.58960938 12.11945313 9 13 C7.35 13 5.7 13 4 13 C-0.59225513 4.738041 -0.59225513 4.738041 0 0 Z " fill="#E6403E" transform="translate(262,376)"/>
<path d="M0 0 C1.98 0 3.96 0 6 0 C6.33 1.32 6.66 2.64 7 4 C8.32 4.33 9.64 4.66 11 5 C9.35 5.33 7.7 5.66 6 6 C6 6.66 6 7.32 6 8 C1.3697479 6.53781513 1.3697479 6.53781513 -0.375 4 C-1 2 -1 2 0 0 Z " fill="#FEE7E6" transform="translate(112,367)"/>
<path d="M0 0 C0.33 0 0.66 0 1 0 C1 7.26 1 14.52 1 22 C-0.32 22 -1.64 22 -3 22 C-3.33 19.69 -3.66 17.38 -4 15 C-3.01 14.67 -2.02 14.34 -1 14 C-0.67 9.38 -0.34 4.76 0 0 Z " fill="#F23839" transform="translate(331,365)"/>
<path d="M0 0 C1.98 0 3.96 0 6 0 C4.68 0.33 3.36 0.66 2 1 C2 4.96 2 8.92 2 13 C-0.64 13 -3.28 13 -6 13 C-6 9.04 -6 5.08 -6 1 C-5.67 1 -5.34 1 -5 1 C-5 4.3 -5 7.6 -5 11 C-3.35 11 -1.7 11 0 11 C0 7.37 0 3.74 0 0 Z " fill="#FED6D6" transform="translate(157,362)"/>
<path d="M0 0 C1.09570312 0.19464844 2.19140625 0.38929688 3.3203125 0.58984375 C4.58488281 0.82380859 4.58488281 0.82380859 5.875 1.0625 C5.875 1.3925 5.875 1.7225 5.875 2.0625 C-5.345 2.0625 -16.565 2.0625 -28.125 2.0625 C-28.125 1.7325 -28.125 1.4025 -28.125 1.0625 C-27.52961426 1.03744385 -26.93422852 1.0123877 -26.32080078 0.98657227 C-23.63030864 0.87072506 -20.9401766 0.74794804 -18.25 0.625 C-17.31285156 0.58568359 -16.37570312 0.54636719 -15.41015625 0.50585938 C-14.51425781 0.46396484 -13.61835938 0.42207031 -12.6953125 0.37890625 C-11.45418701 0.32391968 -11.45418701 0.32391968 -10.18798828 0.26782227 C-2.66124542 -0.48128907 -2.66124542 -0.48128907 0 0 Z " fill="#BB6A7B" transform="translate(310.125,300.9375)"/>
<path d="M0 0 C3.96 0 7.92 0 12 0 C12 0.66 12 1.32 12 2 C12.66 2.33 13.32 2.66 14 3 C5.75 3 -2.5 3 -11 3 C-11 2.67 -11 2.34 -11 2 C-5.555 1.505 -5.555 1.505 0 1 C0 0.67 0 0.34 0 0 Z " fill="#6082A4" transform="translate(254,265)"/>
<path d="M0 0 C3.02153855 0.11470376 6.04178401 0.2414385 9.0625 0.375 C9.91005859 0.4059375 10.75761719 0.436875 11.63085938 0.46875 C16.73678171 0.70531783 21.14791873 1.38044506 26 3 C26 3.66 26 4.32 26 5 C24.68 5 23.36 5 22 5 C22 4.34 22 3.68 22 3 C16.72 3 11.44 3 6 3 C6 2.34 6 1.68 6 1 C4.02 1 2.04 1 0 1 C0 0.67 0 0.34 0 0 Z " fill="#8999B2" transform="translate(288,254)"/>
<path d="M0 0 C-0.33 1.32 -0.66 2.64 -1 4 C-1.99 4 -2.98 4 -4 4 C-4.33 4.66 -4.66 5.32 -5 6 C-5 5.01 -5 4.02 -5 3 C-10.94 2.67 -16.88 2.34 -23 2 C-23 1.67 -23 1.34 -23 1 C-15.31395526 0.02840067 -7.74136601 -0.10920422 0 0 Z " fill="#E7DCD2" transform="translate(310,223)"/>
<path d="M0 0 C0.33 0 0.66 0 1 0 C1 5.61 1 11.22 1 17 C0.01 17 -0.98 17 -2 17 C-2.33 17.99 -2.66 18.98 -3 20 C-4.32 17.03 -5.64 14.06 -7 11 C-5.68 10.67 -4.36 10.34 -3 10 C-2.34 11.32 -1.68 12.64 -1 14 C-0.67 9.38 -0.34 4.76 0 0 Z " fill="#EB6B6A" transform="translate(329,363)"/>
<path d="M0 0 C-0.47566406 0.75023437 -0.47566406 0.75023437 -0.9609375 1.515625 C-2.3648765 4.87241148 -2.46225654 8.16286294 -2.625 11.75 C-2.66367187 12.44738281 -2.70234375 13.14476562 -2.7421875 13.86328125 C-2.83598624 15.57510818 -2.91906174 17.28751682 -3 19 C-3.66 19 -4.32 19 -5 19 C-5 13.06 -5 7.12 -5 1 C-2 0 -2 0 0 0 Z " fill="#F43636" transform="translate(280,365)"/>
<path d="M0 0 C0 2.31 0 4.62 0 7 C-3.3 7 -6.6 7 -10 7 C-10.33 8.98 -10.66 10.96 -11 13 C-11.33 13 -11.66 13 -12 13 C-12.04241723 10.66705225 -12.04092937 8.33297433 -12 6 C-11 5 -11 5 -8.71484375 4.90234375 C-7.34005859 4.91974609 -7.34005859 4.91974609 -5.9375 4.9375 C-5.01839844 4.94652344 -4.09929687 4.95554687 -3.15234375 4.96484375 C-2.44207031 4.97644531 -1.73179687 4.98804688 -1 5 C-1 4.01 -1 3.02 -1 2 C-2.98 2 -4.96 2 -7 2 C-7 1.67 -7 1.34 -7 1 C-1.125 0 -1.125 0 0 0 Z " fill="#FBC7C7" transform="translate(354,361)"/>
<path d="M0 0 C1.74120117 0.00676758 1.74120117 0.00676758 3.51757812 0.01367188 C6.36593934 0.02539353 9.21419222 0.0418024 12.0625 0.0625 C12.0625 0.3925 12.0625 0.7225 12.0625 1.0625 C11.40241943 1.08231934 10.74233887 1.10213867 10.06225586 1.12255859 C7.04113636 1.21843352 4.02064992 1.32785753 1 1.4375 C-0.03833984 1.4684375 -1.07667969 1.499375 -2.14648438 1.53125 C-7.76555242 1.74530973 -12.60505395 2.2826062 -17.9375 4.0625 C-18.5975 4.0625 -19.2575 4.0625 -19.9375 4.0625 C-19.9375 3.0725 -19.9375 2.0825 -19.9375 1.0625 C-13.29708878 -0.16149452 -6.73528303 -0.04977753 0 0 Z " fill="#EBDCCC" transform="translate(224.9375,227.9375)"/>
<path d="M0 0 C3.86165366 1.11558883 4.71497149 1.57245724 7 5 C7.07905064 7.33199388 7.08798769 9.66832622 7 12 C4.90250005 9.64031256 4.03094296 8.45383006 3.8125 5.25 C3.874375 4.5075 3.93625 3.765 4 3 C3.11248047 3.01740234 3.11248047 3.01740234 2.20703125 3.03515625 C-2.00231785 3.08322386 -5.8922333 3.06006883 -10 2 C-6.28424249 -0.47717167 -4.40013262 -0.30345742 0 0 Z " fill="#EA6F47" transform="translate(187,176)"/>
<path d="M0 0 C1.32 0 2.64 0 4 0 C2.6062718 4.43458973 0.39417765 6.87378374 -3 10 C-3.33 9.67 -3.66 9.34 -4 9 C-4.33 9.66 -4.66 10.32 -5 11 C-5.66 10.67 -6.32 10.34 -7 10 C-5.93356893 8.32246798 -4.84625276 6.65819745 -3.75 5 C-3.14671875 4.071875 -2.5434375 3.14375 -1.921875 2.1875 C-1.28765625 1.465625 -0.6534375 0.74375 0 0 Z " fill="#E04C4B" transform="translate(266,363)"/>
<path d="M0 0 C-0.33 0.66 -0.66 1.32 -1 2 C-5.62 2 -10.24 2 -15 2 C-15 2.99 -15 3.98 -15 5 C-17.97 4.505 -17.97 4.505 -21 4 C-20 2 -20 2 -16.6875 0.875 C-11.17531978 -0.41017135 -5.62450319 -0.1687351 0 0 Z " fill="#D26567" transform="translate(222,341)"/>
<path d="M0 0 C3.10551666 3.10551666 3.81323934 4.89198233 5 9 C4.01 8.67 3.02 8.34 2 8 C2 10.64 2 13.28 2 16 C1.34 16.33 0.68 16.66 0 17 C0 11.39 0 5.78 0 0 Z " fill="#FDCCCC" transform="translate(320,372)"/>
<path d="M0 0 C1.32 0 2.64 0 4 0 C4.0825 0.61875 4.165 1.2375 4.25 1.875 C4.79948083 4.16352629 4.79948083 4.16352629 6.9375 5.125 C7.618125 5.41375 8.29875 5.7025 9 6 C9.66 6.66 10.32 7.32 11 8 C3.54524089 7.51116334 3.54524089 7.51116334 1 5.125 C0 3 0 3 0 0 Z " fill="#E74748" transform="translate(107,381)"/>
<path d="M0 0 C5.61 0 11.22 0 17 0 C17 0.99 17 1.98 17 3 C16.34 3 15.68 3 15 3 C15 2.34 15 1.68 15 1 C14.41992188 1.144375 13.83984375 1.28875 13.2421875 1.4375 C8.73340325 2.50889428 4.66945753 3.23945936 0 3 C0 2.01 0 1.02 0 0 Z " fill="#D94D4D" transform="translate(376,363)"/>
<path d="M0 0 C2.64 0 5.28 0 8 0 C8 3.63 8 7.26 8 11 C9.32 11.33 10.64 11.66 12 12 C10.35 12.33 8.7 12.66 7 13 C5.68842484 10.37684968 6.10350012 8.76966564 6.4375 5.875 C6.53933594 4.96492188 6.64117187 4.05484375 6.74609375 3.1171875 C6.82988281 2.41851562 6.91367188 1.71984375 7 1 C5.35 1.33 3.7 1.66 2 2 C1.67 4.97 1.34 7.94 1 11 C0.67 11 0.34 11 0 11 C0 7.37 0 3.74 0 0 Z " fill="#FFDEDE" transform="translate(151,378)"/>
<path d="M0 0 C3.10551666 3.10551666 3.81323934 4.89198233 5 9 C4.01 9 3.02 9 2 9 C1.67 11.64 1.34 14.28 1 17 C0.67 17 0.34 17 0 17 C0 11.39 0 5.78 0 0 Z " fill="#FCC6C4" transform="translate(298,372)"/>
<path d="M0 0 C3.93846154 3.32307692 3.93846154 3.32307692 4.25 6.75 C4.1675 7.4925 4.085 8.235 4 9 C2.68 9 1.36 9 0 9 C-1.125 6.1875 -1.125 6.1875 -2 3 C-1.34 2.01 -0.68 1.02 0 0 Z " fill="#EF666E" transform="translate(275,174)"/>
<path d="M0 0 C1.83984375 0.71484375 1.83984375 0.71484375 3.83984375 4.71484375 C0.86984375 4.38484375 -2.10015625 4.05484375 -5.16015625 3.71484375 C-5.16015625 3.05484375 -5.16015625 2.39484375 -5.16015625 1.71484375 C-6.48015625 2.04484375 -7.80015625 2.37484375 -9.16015625 2.71484375 C-6.72952043 -1.08302471 -4.01928974 -0.42662852 0 0 Z " fill="#E15151" transform="translate(285.16015625,363.28515625)"/>
<path d="M0 0 C3.3 0 6.6 0 10 0 C10 0.99 10 1.98 10 3 C5.71 3 1.42 3 -3 3 C-2.01 2.67 -1.02 2.34 0 2 C0 1.34 0 0.68 0 0 Z " fill="#DD686B" transform="translate(230,307)"/>
<path d="M0 0 C0.99 0 1.98 0 3 0 C3 3.63 3 7.26 3 11 C2.01 11 1.02 11 0 11 C0 7.37 0 3.74 0 0 Z " fill="#AE4433" transform="translate(251,162)"/>
<path d="M0 0 C2.64 0 5.28 0 8 0 C8 0.33 8 0.66 8 1 C6.02 1 4.04 1 2 1 C2.33 2.98 2.66 4.96 3 7 C5.64 7 8.28 7 11 7 C11 7.33 11 7.66 11 8 C9.35425434 8.02688151 7.70838587 8.04634123 6.0625 8.0625 C5.14597656 8.07410156 4.22945313 8.08570313 3.28515625 8.09765625 C1 8 1 8 0 7 C-0.04092937 4.66702567 -0.04241723 2.33294775 0 0 Z " fill="#FDC5C4" transform="translate(342,378)"/>
<path d="M0 0 C0.66 0.33 1.32 0.66 2 1 C0.515 3.475 0.515 3.475 -1 6 C-0.34 6 0.32 6 1 6 C0.67 8.64 0.34 11.28 0 14 C-0.33 13.34 -0.66 12.68 -1 12 C-1.99 11.67 -2.98 11.34 -4 11 C-3.01 9.68 -2.02 8.36 -1 7 C-1.99 7 -2.98 7 -4 7 C-2.79618552 4.50638429 -1.54571278 2.31856917 0 0 Z " fill="#F8E8D5" transform="translate(206,270)"/>
<path d="M0 0 C1.125 1.75 1.125 1.75 2 4 C1.125 6.25 1.125 6.25 0 8 C-0.99 8 -1.98 8 -3 8 C-3.66 8.66 -4.32 9.32 -5 10 C-4.67 7.69 -4.34 5.38 -4 3 C-3.01 3 -2.02 3 -1 3 C-0.67 2.01 -0.34 1.02 0 0 Z " fill="#EF3E3B" transform="translate(262,371)"/>
<path d="M0 0 C1.65 0 3.3 0 5 0 C5 0.66 5 1.32 5 2 C6.32 2.33 7.64 2.66 9 3 C8.67 4.98 8.34 6.96 8 9 C7.01 9.33 6.02 9.66 5 10 C5.33 8.02 5.66 6.04 6 4 C5.34 4 4.68 4 4 4 C4 3.01 4 2.02 4 1 C2.68 0.67 1.36 0.34 0 0 Z " fill="#FBEBDB" transform="translate(201,309)"/>
<path d="M0 0 C0.33 0.66 0.66 1.32 1 2 C0.15695313 2.04898438 -0.68609375 2.09796875 -1.5546875 2.1484375 C-2.65039062 2.22320312 -3.74609375 2.29796875 -4.875 2.375 C-6.51082031 2.47941406 -6.51082031 2.47941406 -8.1796875 2.5859375 C-11.13046474 2.73253491 -11.13046474 2.73253491 -13 5 C-14.98821313 5.39764263 -16.98944339 5.73775349 -19 6 C-14.81257069 1.52378246 -11.83266656 0.89063082 -5.8125 0.4375 C-4.18248047 0.31181641 -4.18248047 0.31181641 -2.51953125 0.18359375 C-1.68808594 0.12300781 -0.85664063 0.06242188 0 0 Z " fill="#D46069" transform="translate(250,172)"/>
<path d="M0 0 C1.32 0 2.64 0 4 0 C4.33 0.99 4.66 1.98 5 3 C5.66 3.33 6.32 3.66 7 4 C6.67 4.66 6.34 5.32 6 6 C4.68 6 3.36 6 2 6 C0 3 0 3 0 0 Z " fill="#DF4648" transform="translate(226,381)"/>
<path d="M0 0 C-0.99 1.485 -0.99 1.485 -2 3 C-4.625 3.1875 -4.625 3.1875 -7 3 C-7 2.34 -7 1.68 -7 1 C-9.475 2.485 -9.475 2.485 -12 4 C-9.17895868 -2.24659149 -6.16171872 -0.89444304 0 0 Z " fill="#E15658" transform="translate(201,364)"/>
<path d="M0 0 C1.98 0 3.96 0 6 0 C5.39816251 2.02045442 4.72693904 4.02111039 4 6 C3.01 6.495 3.01 6.495 2 7 C0.5393715 4.35261084 0 3.10551666 0 0 Z " fill="#504B4E" transform="translate(181,345)"/>
<path d="M0 0 C1.32 0.33 2.64 0.66 4 1 C4.1875 3.375 4.1875 3.375 4 6 C3.01 6.66 2.02 7.32 1 8 C0 7 0 7 -0.0625 3.4375 C-0.041875 2.303125 -0.02125 1.16875 0 0 Z " fill="#ED3D3D" transform="translate(238,379)"/>
<path d="M0 0 C1.39679933 4.190398 2.69464782 8.19391567 1.0625 12.4375 C0.711875 12.953125 0.36125 13.46875 0 14 C-0.185625 12.14375 -0.185625 12.14375 -0.375 10.25 C-0.75746305 7.1237803 -1.30549523 4.71120763 -3 2 C-2.01 2 -1.02 2 0 2 C0 1.34 0 0.68 0 0 Z " fill="#FAF3E4" transform="translate(309,242)"/>
<path d="M0 0 C0.66 0.33 1.32 0.66 2 1 C2 3.97 2 6.94 2 10 C2.66 10.33 3.32 10.66 4 11 C3.01 11.99 2.02 12.98 1 14 C1 10.37 1 6.74 1 3 C-0.32 2.67 -1.64 2.34 -3 2 C-2.01 1.34 -1.02 0.68 0 0 Z " fill="#FFEAE7" transform="translate(257,360)"/>
<path d="M0 0 C0.86625 0.2784375 0.86625 0.2784375 1.75 0.5625 C4.20692525 1.04023546 5.64397534 0.75729364 8 0 C8.33 0.66 8.66 1.32 9 2 C7.02 2.33 5.04 2.66 3 3 C3.33 4.65 3.66 6.3 4 8 C3.34 8 2.68 8 2 8 C0.74335022 5.09399739 0 3.20395416 0 0 Z " fill="#FDF3C9" transform="translate(174,332)"/>
<path d="M0 0 C3.03153686 0.32773371 4.61573103 0.64134897 6.875 2.75 C8.29737468 5.59474935 7.91172698 7.01616624 7 10 C6.71125 9.401875 6.4225 8.80375 6.125 8.1875 C4.04797494 4.02297418 4.04797494 4.02297418 0 2 C0 1.34 0 0.68 0 0 Z " fill="#DB5765" transform="translate(273,172)"/>
<path d="M0 0 C2.83374881 3.20336822 3.5205537 5.78087253 4 10 C2.35 9.01 0.7 8.02 -1 7 C-0.67 4.69 -0.34 2.38 0 0 Z " fill="#EB4445" transform="translate(321,365)"/>
<path d="M0 0 C6.75 0.875 6.75 0.875 9 2 C9 2.66 9 3.32 9 4 C8.34 4 7.68 4 7 4 C6.67 4.66 6.34 5.32 6 6 C3.525 5.01 3.525 5.01 1 4 C1.99 3.67 2.98 3.34 4 3 C4 2.34 4 1.68 4 1 C2.68 0.67 1.36 0.34 0 0 Z " fill="#E75C5D" transform="translate(173,363)"/>
<path d="M0 0 C0.33 0 0.66 0 1 0 C1.33 4.29 1.66 8.58 2 13 C3.65 13.33 5.3 13.66 7 14 C7 14.33 7 14.66 7 15 C4.69 15.33 2.38 15.66 0 16 C-1.52634923 12.94730154 -0.83794444 10.24154311 -0.5625 6.875 C-0.46066406 5.59367188 -0.35882813 4.31234375 -0.25390625 2.9921875 C-0.12822266 1.51105469 -0.12822266 1.51105469 0 0 Z " fill="#F1E1D3" transform="translate(173,182)"/>
<path d="M0 0 C1.32 0.33 2.64 0.66 4 1 C4.33 2.65 4.66 4.3 5 6 C3.68 6 2.36 6 1 6 C0.67 4.02 0.34 2.04 0 0 Z " fill="#DA4441" transform="translate(138,365)"/>
<path d="M0 0 C2.0625 0.4375 2.0625 0.4375 4 1 C4.33 2.32 4.66 3.64 5 5 C4.34 5 3.68 5 3 5 C3 4.34 3 3.68 3 3 C2.01 3.495 2.01 3.495 1 4 C0.34444881 6.52733235 0.34444881 6.52733235 0 9 C-0.33 9 -0.66 9 -1 9 C-1.09765625 2.84765625 -1.09765625 2.84765625 -1 1 C-0.67 0.67 -0.34 0.34 0 0 Z " fill="#FFEFEF" transform="translate(300,380)"/>
<path d="M0 0 C0.99 0.33 1.98 0.66 3 1 C3.6875 3.0625 3.6875 3.0625 4 5 C3.01 4.67 2.02 4.34 1 4 C0.67 6.31 0.34 8.62 0 11 C-0.33 11 -0.66 11 -1 11 C-1.02688151 9.35425434 -1.04634123 7.70838587 -1.0625 6.0625 C-1.07410156 5.14597656 -1.08570313 4.22945313 -1.09765625 3.28515625 C-1 1 -1 1 0 0 Z " fill="#FFE1E0" transform="translate(259,378)"/>
<path d="M0 0 C2.875 -0.125 2.875 -0.125 6 0 C6.66 0.66 7.32 1.32 8 2 C7 3 7 3 5.15234375 3.09765625 C3.1015625 3.06510417 1.05078125 3.03255208 -1 3 C-0.67 2.01 -0.34 1.02 0 0 Z " fill="#44709F" transform="translate(201,300)"/>
<path d="M0 0 C2.31 0.33 4.62 0.66 7 1 C7 1.66 7 2.32 7 3 C2.25 4.125 2.25 4.125 0 3 C-0.33 3.66 -0.66 4.32 -1 5 C-1.33 4.01 -1.66 3.02 -2 2 C-1.34 2 -0.68 2 0 2 C0 1.34 0 0.68 0 0 Z " fill="#8D99BC" transform="translate(269,216)"/>
<path d="M0 0 C0.53625 0.37125 1.0725 0.7425 1.625 1.125 C-0.375 3.125 -0.375 3.125 -3.375 3.375 C-6.375 3.125 -6.375 3.125 -8.375 1.125 C-2.95961538 -1.09038462 -2.95961538 -1.09038462 0 0 Z " fill="#E55559" transform="translate(138.375,385.875)"/>
<path d="M0 0 C2.2477975 2.05233685 3.0022242 3.00667261 4 6 C2.35 6 0.7 6 -1 6 C-1.33 4.68 -1.66 3.36 -2 2 C-1.34 2 -0.68 2 0 2 C0 1.34 0 0.68 0 0 Z " fill="#DC4F55" transform="translate(267,383)"/>
<path d="M0 0 C0.99 0 1.98 0 3 0 C3 2.31 3 4.62 3 7 C2.01 7.33 1.02 7.66 0 8 C0 5.36 0 2.72 0 0 Z " fill="#F73331" transform="translate(296,365)"/>
<path d="M0 0 C1.875 0.3125 1.875 0.3125 4 1 C6.4294516 4.6441774 6.16179575 6.71241272 6 11 C3.90250005 8.64031256 3.03094296 7.45383006 2.8125 4.25 C2.9053125 3.13625 2.9053125 3.13625 3 2 C2.01 2 1.02 2 0 2 C0 1.34 0 0.68 0 0 Z " fill="#E57552" transform="translate(188,177)"/>
<path d="M0 0 C1.32 0 2.64 0 4 0 C4.33 1.32 4.66 2.64 5 4 C4.34 4 3.68 4 3 4 C3.99 5.485 3.99 5.485 5 7 C3.0625 6.3125 3.0625 6.3125 1 5 C0.25 2.375 0.25 2.375 0 0 Z " fill="#DC585A" transform="translate(107,381)"/>
<path d="M0 0 C1.32 0 2.64 0 4 0 C4.33 1.65 4.66 3.3 5 5 C3.68 5 2.36 5 1 5 C0.67 3.35 0.34 1.7 0 0 Z " fill="#DB4444" transform="translate(368,366)"/>
<path d="M0 0 C2.31 0 4.62 0 7 0 C7 0.66 7 1.32 7 2 C4.69 2.33 2.38 2.66 0 3 C0 2.01 0 1.02 0 0 Z " fill="#E84948" transform="translate(193,386)"/>
<path d="M0 0 C1.65 0 3.3 0 5 0 C5.66 1.32 6.32 2.64 7 4 C4.03 3.505 4.03 3.505 1 3 C0.67 2.01 0.34 1.02 0 0 Z " fill="#E44647" transform="translate(234,376)"/>
<path d="M0 0 C2.625 0.9375 2.625 0.9375 5 2 C4.67 2.66 4.34 3.32 4 4 C1.03 3.505 1.03 3.505 -2 3 C-2.33 3.66 -2.66 4.32 -3 5 C-2.625 3.0625 -2.625 3.0625 -2 1 C-1.34 0.67 -0.68 0.34 0 0 Z " fill="#FED2D1" transform="translate(233,366)"/>
<path d="M0 0 C-0.66 0 -1.32 0 -2 0 C-2 0.99 -2 1.98 -2 3 C-4.97 2.505 -4.97 2.505 -8 2 C-6.14210462 -1.71579076 -3.44525918 -1.06921837 0 0 Z " fill="#CC7176" transform="translate(209,343)"/>
<path d="M0 0 C0 0.99 0 1.98 0 3 C-3.3 2.34 -6.6 1.68 -10 1 C-10 0.67 -10 0.34 -10 0 C-6.33694766 -0.74926071 -3.57644848 -1.2380014 0 0 Z " fill="#EADEED" transform="translate(316,300)"/>
<path d="M0 0 C0.99 0 1.98 0 3 0 C3.33 1.65 3.66 3.3 4 5 C2.68 5 1.36 5 0 5 C0 3.35 0 1.7 0 0 Z " fill="#D64442" transform="translate(119,366)"/>
<path d="M0 0 C1.98 0.99 1.98 0.99 4 2 C3.67 3.98 3.34 5.96 3 8 C0.37613513 4.93882432 0 4.26826873 0 0 Z " fill="#E93F42" transform="translate(304,379)"/>
<path d="M0 0 C0.33 0 0.66 0 1 0 C1 2.97 1 5.94 1 9 C0.01 9.495 0.01 9.495 -1 10 C-1.66 8.35 -2.32 6.7 -3 5 C-2.01 5 -1.02 5 0 5 C0 3.35 0 1.7 0 0 Z " fill="#FFF5F3" transform="translate(125,373)"/>
<path d="M0 0 C1.65 0 3.3 0 5 0 C6.42944945 2.35438733 7.08661261 3.48032433 6.625 6.25 C6.41875 6.8275 6.2125 7.405 6 8 C5.566875 7.05125 5.13375 6.1025 4.6875 5.125 C3.20697799 1.79958063 3.20697799 1.79958063 0 0 Z " fill="#FEE8E7" transform="translate(236,363)"/>
<path d="M0 0 C0.66 0 1.32 0 2 0 C2 1.98 2 3.96 2 6 C1.01 6 0.02 6 -1 6 C-1.042721 4.33388095 -1.04063832 2.66617115 -1 1 C-0.67 0.67 -0.34 0.34 0 0 Z " fill="#EB3A3C" transform="translate(109,367)"/>
<path d="M0 0 C0.66 0 1.32 0 2 0 C2 0.66 2 1.32 2 2 C3.65 2 5.3 2 7 2 C7 2.33 7 2.66 7 3 C5.35 3 3.7 3 2 3 C1.67 3.66 1.34 4.32 1 5 C1 4.34 1 3.68 1 3 C0.01 3.33 -0.98 3.66 -2 4 C-1.34 2.68 -0.68 1.36 0 0 Z " fill="#E6595D" transform="translate(110,364)"/>
<path d="M0 0 C2.31 0 4.62 0 7 0 C6.01 0.495 6.01 0.495 5 1 C5 1.66 5 2.32 5 3 C3.35 3 1.7 3 0 3 C0 2.01 0 1.02 0 0 Z " fill="#2B262D" transform="translate(174,198)"/>
</svg>
