<?xml version="1.0" standalone="no"?>
<!DOCTYPE svg PUBLIC "-//W3C//DTD SVG 20010904//EN"
 "http://www.w3.org/TR/2001/REC-SVG-20010904/DTD/svg10.dtd">
<svg version="1.0" xmlns="http://www.w3.org/2000/svg"
 width="500.000000pt" height="500.000000pt" viewBox="0 0 500.000000 500.000000"
 preserveAspectRatio="xMidYMid meet">

<g transform="translate(0.000000,500.000000) scale(0.100000,-0.100000)"
fill="#000000" stroke="none">
<path d="M1780 3351 c-11 -22 -14 -231 -2 -231 29 -1 276 78 293 93 17 16 19
47 4 65 -6 7 -252 92 -267 92 -10 0 -22 -9 -28 -19z m126 -77 c69 -23 72 -29
18 -48 -75 -25 -84 -23 -84 24 0 22 4 40 8 40 5 0 31 -7 58 -16z"/>
<path d="M2378 2768 c-32 -6 -58 -14 -58 -19 0 -5 -5 -9 -10 -9 -22 0 -91 -51
-84 -62 4 -6 3 -8 -3 -5 -38 24 -106 -178 -74 -217 8 -9 8 -15 2 -18 -7 -2 -5
-13 4 -28 8 -14 18 -34 24 -45 27 -57 161 -145 219 -145 12 0 24 -5 27 -11 4
-6 13 -8 21 -5 8 3 14 2 14 -2 0 -4 31 -15 68 -25 94 -24 114 -40 110 -85 -5
-60 -75 -87 -157 -61 -81 25 -99 37 -117 78 -10 22 -26 42 -38 45 -28 8 -136
7 -175 0 l-31 -6 0 -142 0 -142 38 -11 37 -11 -40 4 c-32 3 -35 2 -15 -5 33
-12 137 -13 144 -2 3 5 15 11 26 14 11 3 18 1 14 -4 -3 -5 -12 -9 -21 -9 -9 0
-14 -3 -10 -6 14 -15 47 9 48 34 1 30 27 106 28 81 2 -42 107 -105 204 -121
83 -14 202 2 224 29 8 10 12 12 8 6 -8 -17 -1 -16 43 6 54 28 115 97 118 135
1 17 5 39 9 49 4 10 5 40 3 68 -6 56 -53 135 -81 133 -8 -1 -13 4 -11 11 7 17
-108 75 -241 121 -60 20 -127 48 -147 62 -33 21 -38 30 -38 63 0 34 5 42 33
59 69 42 183 9 224 -66 12 -21 22 -47 22 -56 1 -20 21 -25 21 -6 0 9 3 9 12 0
8 -8 45 -12 100 -12 l88 0 -2 163 -3 162 -92 2 c-65 1 -93 -2 -93 -10 0 -7 -4
-6 -10 3 -14 22 -25 3 -13 -23 19 -38 22 -56 13 -62 -5 -3 -11 9 -13 27 l-4
33 -1 -37 c-3 -49 -15 -54 -43 -18 -37 48 -120 91 -178 93 -27 1 -47 5 -44 10
5 9 -25 7 -99 -5z m218 -85 c-6 -6 -36 9 -36 18 0 5 9 4 20 -3 10 -7 18 -14
16 -15z m-329 11 c-3 -3 -12 -4 -19 -1 -8 3 -5 6 6 6 11 1 17 -2 13 -5z m433
-54 c0 -5 -4 -10 -10 -10 -5 0 -10 5 -10 10 0 6 5 10 10 10 6 0 10 -4 10 -10z
m-463 -36 c-3 -3 -12 -4 -19 -1 -8 3 -5 6 6 6 11 1 17 -2 13 -5z m463 -24 c0
-5 -4 -10 -9 -10 -6 0 -13 5 -16 10 -3 6 1 10 9 10 9 0 16 -4 16 -10z m-247
-25 c-3 -9 -8 -14 -10 -11 -3 3 -2 9 2 15 9 16 15 13 8 -4z m111 -154 c4 -5
-3 -7 -14 -4 -23 6 -26 13 -6 13 8 0 17 -4 20 -9z m47 -29 c-7 -2 -18 1 -23 6
-8 8 -4 9 13 5 13 -4 18 -8 10 -11z m46 -8 c-3 -3 -12 -4 -19 -1 -8 3 -5 6 6
6 11 1 17 -2 13 -5z m-432 -24 c10 -11 16 -20 13 -20 -3 0 -13 9 -23 20 -10
11 -16 20 -13 20 3 0 13 -9 23 -20z m555 -20 c0 -5 -2 -10 -4 -10 -3 0 -8 5
-11 10 -3 6 -1 10 4 10 6 0 11 -4 11 -10z m-295 -360 c-3 -5 -12 -10 -18 -10
-7 0 -6 4 3 10 19 12 23 12 15 0z m-81 -26 c3 -8 2 -12 -4 -9 -6 3 -10 10 -10
16 0 14 7 11 14 -7z m46 -35 c0 -6 -4 -7 -10 -4 -5 3 -10 11 -10 16 0 6 5 7
10 4 6 -3 10 -11 10 -16z m107 -25 c-3 -3 -12 -4 -19 -1 -8 3 -5 6 6 6 11 1
17 -2 13 -5z m96 -41 c-7 -2 -19 -2 -25 0 -7 3 -2 5 12 5 14 0 19 -2 13 -5z"/>
<path d="M3130 2680 c0 -46 4 -81 10 -81 6 -1 15 -3 20 -4 6 -1 17 -3 25 -4
13 -1 15 -42 15 -301 l0 -300 -30 0 c-23 0 -31 -5 -36 -26 -7 -26 2 -113 12
-123 8 -8 339 -14 368 -7 21 5 23 11 25 81 2 75 2 75 -24 75 -15 0 -24 -4 -20
-10 3 -5 2 -10 -3 -10 -17 0 -32 51 -32 110 0 55 3 62 38 98 52 53 92 75 92
50 0 -6 15 -34 34 -62 77 -118 104 -161 100 -165 -4 -4 -34 -9 -69 -10 -18 -1
-20 -8 -20 -73 0 -69 1 -73 25 -79 40 -10 360 -10 360 0 0 5 26 12 59 16 l59
7 -1 64 -2 64 -32 0 c-25 0 -39 8 -60 35 -19 24 -30 31 -35 22 -5 -7 -6 0 -2
15 4 20 2 29 -8 33 -8 3 -21 21 -28 40 -8 19 -17 35 -22 35 -4 0 -8 4 -8 9 0
22 -56 100 -68 96 -7 -3 -10 -1 -7 5 6 10 -17 57 -54 108 -27 38 -35 25 77
121 34 30 61 60 58 67 -3 8 1 11 10 7 8 -3 21 0 29 7 8 7 15 9 15 5 0 -4 8 -1
17 6 11 10 14 10 9 2 -4 -7 -2 -13 3 -13 7 0 11 32 11 85 l0 84 -200 0 -200 0
0 -84 c0 -53 4 -85 11 -85 5 0 7 6 3 13 -6 9 -5 9 7 0 8 -7 24 -10 36 -7 32 9
36 -12 7 -35 -15 -12 -23 -25 -18 -32 4 -8 3 -9 -5 -5 -7 5 -25 -5 -43 -23
-18 -17 -36 -31 -41 -31 -5 0 -6 -7 -3 -16 3 -8 2 -13 -3 -10 -5 3 -28 -12
-52 -34 -67 -61 -74 -54 -76 73 -1 74 3 107 10 109 7 0 17 2 22 2 6 1 16 5 24
10 10 7 12 6 6 -4 -5 -9 -4 -11 3 -6 8 4 12 37 12 86 l0 78 -180 2 -180 1 -2
-83 -2 -83 -6 85 -6 85 -5 -85 -5 -85 -2 83 c-3 107 -22 109 -22 2z m620 -120
c0 -5 -5 -10 -11 -10 -5 0 -7 5 -4 10 3 6 8 10 11 10 2 0 4 -4 4 -10z m-23
-26 c-3 -3 -12 -4 -19 -1 -8 3 -5 6 6 6 11 1 17 -2 13 -5z m114 -47 c-10 -9
-11 -8 -5 6 3 10 9 15 12 12 3 -3 0 -11 -7 -18z m-43 -122 c-3 -3 -9 2 -12 12
-6 14 -5 15 5 6 7 -7 10 -15 7 -18z m-128 -207 c0 -19 -2 -20 -10 -8 -13 19
-13 30 0 30 6 0 10 -10 10 -22z m79 -85 c0 -25 -1 -26 -9 -8 -12 27 -12 35 0
35 6 0 10 -12 9 -27z m-29 -3 c0 -5 -2 -10 -4 -10 -3 0 -8 5 -11 10 -3 6 -1
10 4 10 6 0 11 -4 11 -10z m15 -38 c-3 -3 -11 0 -18 7 -9 10 -8 11 6 5 10 -3
15 -9 12 -12z m305 -32 c0 -5 -2 -10 -4 -10 -3 0 -8 5 -11 10 -3 6 -1 10 4 10
6 0 11 -4 11 -10z m-357 -27 c-7 -2 -19 -2 -25 0 -7 3 -2 5 12 5 14 0 19 -2
13 -5z m-526 -80 c-2 -16 -4 -5 -4 22 0 28 2 40 4 28 2 -13 2 -35 0 -50z m20
45 c-3 -8 -6 -5 -6 6 -1 11 2 17 5 13 3 -3 4 -12 1 -19z m350 -35 c-3 -10 -5
-4 -5 12 0 17 2 24 5 18 2 -7 2 -21 0 -30z m-330 -49 c-3 -3 -12 -4 -19 -1 -8
3 -5 6 6 6 11 1 17 -2 13 -5z m480 0 c-3 -3 -12 -4 -19 -1 -8 3 -5 6 6 6 11 1
17 -2 13 -5z"/>
<path d="M4054 2675 c0 -49 1 -71 3 -48 2 23 2 64 0 90 -2 26 -3 8 -3 -42z"/>
<path d="M1766 2740 c-63 -19 -101 -80 -93 -149 4 -38 12 -52 47 -83 49 -43
89 -49 147 -21 52 24 75 67 70 131 -4 59 -30 95 -84 118 -36 16 -46 16 -87 4z
m85 -67 c47 -28 48 -107 0 -132 -85 -46 -164 57 -96 124 28 29 56 31 96 8z"/>
<path d="M1434 2687 c-3 -11 -12 -16 -20 -13 -8 3 -14 0 -14 -7 0 -9 -2 -9 -8
0 -11 18 -287 13 -324 -6 -15 -8 -25 -18 -21 -24 3 -6 1 -7 -4 -4 -15 9 -65
-33 -59 -49 3 -9 0 -11 -11 -7 -12 5 -15 2 -10 -10 3 -9 3 -17 -2 -17 -11 0
-75 -120 -64 -120 4 0 0 -7 -10 -15 -11 -8 -17 -23 -15 -37 l3 -23 283 -3 282
-2 0 -263 c0 -144 -4 -268 -9 -276 -5 -7 -15 -10 -22 -7 -8 4 -5 0 5 -8 15
-12 16 -16 5 -16 -11 -1 -10 -3 3 -10 10 -6 141 -9 340 -8 l323 3 3 27 c3 27
3 27 -65 30 l-68 3 -3 212 -2 212 -47 7 c-45 7 -219 -2 -235 -12 -4 -3 -8 -95
-8 -205 l0 -199 25 0 c15 0 25 5 24 13 -1 6 -1 88 0 180 l1 168 96 -3 96 -3
-1 -142 c-2 -164 4 -214 25 -206 8 3 14 0 14 -5 0 -17 -72 -22 -260 -20 l-175
3 -3 441 -2 441 -30 -1 c-20 -1 -32 -7 -36 -19z m4 -180 l-3 -82 -237 0 c-190
0 -240 3 -250 14 -7 8 -8 11 -2 8 13 -8 53 63 46 82 -3 8 0 11 7 7 6 -4 16 4
23 19 6 14 26 35 44 46 29 17 52 20 188 22 128 2 157 5 162 17 12 28 25 -49
22 -133z m-508 -106 c-10 -20 -30 -37 -30 -26 0 11 25 45 33 45 4 0 3 -9 -3
-19z m1007 -378 c-2 -37 -3 -9 -3 62 0 72 1 102 3 68 2 -34 2 -93 0 -130z m0
-135 c-2 -13 -4 -5 -4 17 -1 22 1 32 4 23 2 -10 2 -28 0 -40z m-252 -18 c3 -5
1 -10 -4 -10 -6 0 -11 5 -11 10 0 6 2 10 4 10 3 0 8 -4 11 -10z"/>
<path d="M1003 2265 c0 -38 2 -53 4 -32 2 20 2 52 0 70 -2 17 -4 1 -4 -38z"/>
<path d="M1002 2170 c0 -14 2 -19 5 -12 2 6 2 18 0 25 -3 6 -5 1 -5 -13z"/>
<path d="M1005 1988 c-3 -13 -4 -55 -2 -93 l3 -70 2 82 c1 45 7 85 13 88 16
11 22 -1 22 -42 -1 -32 0 -34 6 -13 10 31 -1 64 -22 68 -10 2 -19 -6 -22 -20z"/>
<path d="M1041 1865 c0 -11 3 -26 8 -33 7 -12 56 -42 68 -42 7 0 -21 24 -42
36 -11 6 -23 22 -26 35 -6 20 -7 21 -8 4z"/>
<path d="M4093 1843 c9 -2 25 -2 35 0 9 3 1 5 -18 5 -19 0 -27 -2 -17 -5z"/>
<path d="M1035 1799 c-4 -6 -5 -12 -2 -15 2 -3 7 2 10 11 7 17 1 20 -8 4z"/>
<path d="M1051 1776 c11 -9 69 -14 69 -6 0 6 -16 10 -37 10 -20 0 -34 -2 -32
-4z"/>
<path d="M1579 1643 c-3 -138 -1 -167 8 -170 8 -3 9 10 6 36 -4 27 -2 41 6 41
13 0 15 36 2 45 -5 3 -7 21 -4 40 4 23 2 35 -6 35 -6 0 -11 -12 -12 -27z"/>
<path d="M2763 1623 c-21 -26 -39 -52 -38 -58 0 -16 56 -85 78 -96 15 -9 17
-8 10 4 -15 26 -59 74 -71 78 -7 2 4 25 29 58 51 67 45 78 -8 14z"/>
<path d="M3332 1568 l2 -103 3 85 c2 47 7 88 11 92 5 5 7 -9 5 -30 -1 -20 0
-29 3 -19 5 18 7 18 25 1 10 -9 19 -22 19 -27 0 -6 11 -25 25 -43 14 -18 25
-37 25 -43 0 -6 9 -11 19 -11 18 0 19 8 18 95 -1 56 -6 95 -12 95 -6 0 -9 -26
-7 -66 3 -59 2 -65 -14 -62 -10 2 -23 12 -29 23 -34 66 -69 115 -81 115 -11 0
-14 -20 -12 -102z"/>
<path d="M3568 1657 c-11 -11 -15 -37 -14 -99 l1 -83 70 -3 c53 -2 67 0 58 9
-6 6 -29 10 -52 7 -37 -3 -41 -1 -51 26 -9 27 -13 73 -4 51 5 -13 84 -7 84 6
0 6 -17 9 -37 7 -36 -3 -38 -2 -38 27 0 29 2 30 48 33 50 3 67 22 20 22 -16 0
-37 3 -49 6 -12 3 -27 -1 -36 -9z"/>
<path d="M4047 1663 c-4 -3 -32 -5 -62 -4 -60 2 -75 -13 -22 -21 46 -8 97 2
97 18 0 15 -3 17 -13 7z"/>
<path d="M1198 1649 c-36 -20 -16 -79 27 -79 26 -1 55 -23 55 -43 0 -36 -10
-45 -44 -37 -19 4 -39 10 -45 14 -6 4 -11 1 -11 -7 0 -7 6 -14 13 -15 6 -1 29
-5 50 -8 26 -4 37 -3 37 7 0 7 3 9 7 5 4 -3 12 3 19 16 17 31 -7 64 -53 73
-40 7 -63 25 -63 49 0 12 11 14 55 12 30 -2 55 0 55 4 0 20 -73 27 -102 9z"/>
<path d="M1385 1636 c-21 -18 -25 -26 -14 -26 9 0 24 9 34 20 22 24 43 25 73
4 13 -9 26 -13 29 -10 12 12 -14 28 -53 33 -32 4 -44 0 -69 -21z"/>
<path d="M1705 1636 c2 -14 6 -29 9 -34 8 -13 -17 -22 -60 -22 -19 0 -34 -4
-34 -9 0 -4 18 -7 40 -5 35 2 41 -1 46 -21 3 -12 4 -33 2 -46 -2 -16 2 -24 11
-24 12 0 15 17 15 78 1 42 -3 77 -8 77 -5 0 -3 7 4 15 10 12 9 15 -7 15 -16 0
-20 -6 -18 -24z"/>
<path d="M1836 1644 c-9 -8 -16 -12 -16 -7 0 4 -5 1 -10 -7 -5 -8 -7 -23 -4
-34 4 -12 2 -16 -5 -12 -19 12 -13 -41 9 -76 11 -18 21 -32 22 -30 2 2 11 0
21 -3 33 -13 82 4 100 34 25 42 21 84 -9 120 -29 35 -81 42 -108 15z m94 -26
c12 -13 18 -29 14 -40 -3 -10 0 -18 6 -18 13 0 -5 -37 -30 -62 -31 -29 -100 3
-100 46 0 17 -2 18 -10 6 -6 -9 -10 -10 -10 -3 0 6 5 15 10 18 6 3 10 13 10
22 0 49 73 70 110 31z"/>
<path d="M2049 1631 c-38 -39 -39 -87 -3 -130 30 -37 64 -40 111 -11 37 22 53
76 34 116 -12 27 -31 32 -31 9 0 -8 4 -15 10 -15 8 0 8 -27 1 -72 -5 -33 -84
-51 -109 -26 -7 7 -12 36 -12 65 0 44 4 55 24 68 18 12 29 13 50 5 15 -5 33
-7 39 -3 7 4 2 10 -13 14 -49 14 -72 9 -101 -20z m-12 -73 c-3 -7 -5 -2 -5 12
0 14 2 19 5 13 2 -7 2 -19 0 -25z"/>
<path d="M2251 1593 c0 -47 3 -62 9 -48 8 19 9 19 9 -2 1 -12 -4 -23 -11 -25
-7 -3 -9 -14 -5 -29 5 -21 11 -24 44 -22 21 1 46 2 56 2 9 1 17 6 17 12 0 7
-14 9 -40 5 -36 -5 -40 -3 -46 19 -3 13 -4 53 -2 89 3 58 1 66 -14 66 -16 0
-18 -10 -17 -67z"/>
<path d="M2436 1644 c-26 -26 -20 -62 12 -71 15 -4 33 -6 41 -4 7 1 10 -2 7
-7 -3 -5 3 -12 14 -15 22 -6 26 -30 8 -44 -25 -19 -46 -21 -72 -8 -21 11 -26
12 -26 0 0 -16 22 -25 64 -25 22 0 39 8 55 26 20 24 21 27 7 49 -8 13 -31 27
-52 32 -45 10 -64 34 -45 57 15 18 61 22 61 6 0 -5 7 -10 15 -10 23 0 18 17
-7 24 -38 10 -66 7 -82 -10z"/>
<path d="M2675 1637 c-3 -12 -4 -45 -1 -72 3 -28 5 -60 5 -72 1 -37 31 -29 31
8 0 17 -4 28 -10 24 -5 -3 -10 1 -10 10 0 9 4 14 9 11 12 -8 21 18 11 34 -6
10 -9 10 -13 -1 -2 -8 -2 -3 1 11 11 57 10 70 -4 70 -7 0 -16 -10 -19 -23z
m22 -149 c-3 -8 -6 -5 -6 6 -1 11 2 17 5 13 3 -3 4 -12 1 -19z"/>
<path d="M2889 1631 c-33 -33 -40 -89 -14 -114 8 -8 11 -17 8 -21 -4 -3 2 -6
12 -6 15 0 16 3 7 12 -7 7 -12 23 -12 38 0 20 -2 22 -10 10 -7 -12 -10 -8 -10
15 0 23 3 27 10 15 8 -12 10 -9 10 12 0 29 32 58 64 58 31 0 56 -38 56 -86 0
-50 -19 -74 -60 -74 -16 0 -32 -4 -35 -10 -4 -6 10 -10 34 -10 33 0 44 5 65
33 34 45 32 93 -5 130 -39 37 -81 36 -120 -2z"/>
<path d="M3101 1558 c1 -57 4 -97 6 -90 3 6 9 10 14 6 5 -3 9 7 9 21 0 15 -4
24 -10 20 -5 -3 -10 3 -10 14 0 11 5 23 11 26 6 4 7 19 4 36 -4 16 -5 29 -2
29 13 0 46 -42 72 -93 18 -35 36 -57 46 -57 14 0 17 13 18 95 0 72 -3 95 -12
95 -10 0 -12 -14 -10 -47 2 -27 1 -58 -2 -70 -6 -26 -25 -31 -25 -8 0 8 -5 15
-12 15 -6 0 -8 3 -5 7 4 3 1 13 -5 21 -7 8 -17 23 -23 35 -5 11 -18 21 -28 23
-11 1 -22 6 -25 10 -4 4 1 4 11 1 9 -4 17 -2 17 3 0 6 -9 10 -20 10 -20 0 -21
-5 -19 -102z m149 -52 c0 -3 -4 -8 -10 -11 -5 -3 -10 -1 -10 4 0 6 5 11 10 11
6 0 10 -2 10 -4z"/>
<path d="M3768 1642 c-15 -9 -29 -26 -32 -37 -15 -54 1 -115 29 -115 8 0 15
-5 15 -11 0 -5 5 -7 11 -3 8 4 3 12 -12 21 -20 12 -24 23 -24 61 0 54 13 72
58 81 23 5 35 3 44 -8 6 -9 15 -12 20 -8 12 13 -27 37 -56 36 -14 0 -38 -8
-53 -17z m-21 -94 c-3 -7 -5 -2 -5 12 0 14 2 19 5 13 2 -7 2 -19 0 -25z"/>
<path d="M3982 1543 c4 -100 22 -98 25 2 1 59 -2 75 -13 75 -12 0 -14 -15 -12
-77z"/>
<path d="M1363 1593 c-15 -5 -17 -33 -3 -33 6 0 10 -5 10 -11 0 -5 -4 -8 -9
-5 -5 4 -7 -3 -4 -14 3 -11 9 -17 14 -14 5 3 9 -4 9 -14 0 -21 25 -32 71 -32
29 0 78 34 67 46 -5 4 -16 0 -26 -9 -23 -21 -76 -22 -93 -1 -7 9 -15 33 -18
53 -4 24 -11 36 -18 34z"/>
<path d="M3352 1500 c0 -14 2 -19 5 -12 2 6 2 18 0 25 -3 6 -5 1 -5 -13z"/>
<path d="M3864 1505 c-4 -8 -14 -15 -24 -15 -11 0 -22 -5 -25 -10 -4 -7 3 -9
20 -6 29 5 55 23 55 37 0 15 -20 10 -26 -6z"/>
<path d="M2402 1389 c-19 -80 -17 -85 24 -84 38 2 64 24 64 56 0 23 -25 42
-48 35 -16 -6 -19 -2 -14 19 9 48 -15 25 -26 -26z m56 -36 c-4 -36 -38 -45
-38 -10 0 27 7 37 27 37 10 0 13 -9 11 -27z"/>
<path d="M2610 1425 c0 -8 5 -15 10 -15 6 0 10 7 10 15 0 8 -4 15 -10 15 -5 0
-10 -7 -10 -15z"/>
<path d="M2728 1418 c-2 -17 -10 -22 -33 -23 -37 0 -67 -44 -49 -72 17 -27 73
-27 83 0 15 39 23 117 12 117 -5 0 -11 -10 -13 -22z m-20 -65 c-4 -36 -38 -45
-38 -10 0 27 7 37 27 37 10 0 13 -9 11 -27z"/>
<path d="M3271 1380 c-7 -33 -9 -65 -6 -70 11 -18 23 -11 22 13 0 12 3 43 7
70 12 70 -9 59 -23 -13z"/>
<path d="M3766 1431 c-4 -5 -2 -12 3 -15 5 -4 12 -2 15 3 4 5 2 12 -3 15 -5 4
-12 2 -15 -3z"/>
<path d="M4047 1423 c-3 -5 -8 -23 -12 -40 -10 -48 11 -41 23 7 9 35 2 55 -11
33z"/>
<path d="M3035 1407 c-16 -20 -3 -101 18 -105 9 -2 17 1 17 7 0 6 -4 11 -10
11 -5 0 -10 12 -10 26 0 17 6 28 20 31 23 6 27 23 5 23 -8 0 -15 5 -15 10 0
13 -13 12 -25 -3z"/>
<path d="M2811 1397 c-30 -11 -36 -19 -47 -65 -16 -61 -13 -72 20 -72 57 0 76
59 19 61 l-28 1 30 10 c38 13 34 10 45 47 10 34 9 35 -39 18z m13 -32 c-6 -16
-34 -21 -34 -7 0 13 11 22 26 22 8 0 11 -6 8 -15z m-9 -75 c-3 -5 -15 -10 -26
-10 -10 0 -19 5 -19 10 0 6 12 10 26 10 14 0 23 -4 19 -10z"/>
<path d="M3972 1400 c-42 -10 -44 -12 -48 -57 -1 -21 -7 -39 -13 -41 -20 -7
-11 -32 13 -38 31 -8 66 11 66 36 0 15 -7 20 -27 21 l-28 1 30 13 c21 9 32 22
36 44 4 17 6 31 5 30 0 -1 -16 -5 -34 -9z m8 -29 c0 -14 -18 -23 -30 -16 -6 4
-8 11 -5 16 8 12 35 12 35 0z m-10 -81 c0 -5 -11 -10 -25 -10 -14 0 -25 5 -25
10 0 6 11 10 25 10 14 0 25 -4 25 -10z"/>
<path d="M2245 1386 c-11 -8 -16 -23 -13 -46 3 -33 5 -35 40 -36 34 -1 38 2
43 30 4 17 8 38 11 47 3 11 -4 15 -30 16 -19 1 -42 -4 -51 -11z m50 -16 c11
-18 -6 -50 -26 -50 -13 0 -19 7 -19 23 0 13 3 27 7 30 10 10 31 8 38 -3z"/>
<path d="M2526 1391 c-2 -3 -7 -25 -11 -48 -8 -53 10 -59 20 -7 4 24 13 38 26
41 10 3 19 9 19 13 0 9 -49 10 -54 1z"/>
<path d="M2594 1355 c-6 -41 -1 -66 10 -54 11 11 17 99 8 99 -6 0 -14 -20 -18
-45z"/>
<path d="M2887 1382 c-10 -10 -17 -27 -17 -38 0 -40 45 -59 70 -29 11 13 8 14
-19 9 -18 -4 -31 -2 -31 4 0 5 14 12 30 16 34 6 50 33 29 47 -22 14 -45 11
-62 -9z m48 -12 c-3 -5 -13 -10 -21 -10 -8 0 -14 5 -14 10 0 6 9 10 21 10 11
0 17 -4 14 -10z"/>
<path d="M3117 1382 c-30 -33 -16 -82 23 -82 40 0 69 80 34 94 -26 10 -40 7
-57 -12z m51 -29 c-4 -34 -48 -48 -48 -16 0 22 18 43 38 43 9 0 12 -9 10 -27z"/>
<path d="M3337 1382 c-10 -10 -17 -27 -17 -38 0 -41 45 -59 71 -28 11 13 9 14
-13 9 -14 -4 -28 -2 -32 3 -3 5 8 12 24 16 34 6 50 33 29 47 -22 14 -45 11
-62 -9z m48 -12 c-3 -5 -13 -10 -21 -10 -8 0 -14 5 -14 10 0 6 9 10 21 10 11
0 17 -4 14 -10z"/>
<path d="M3444 1383 c-9 -9 -14 -28 -12 -47 3 -28 6 -31 40 -32 39 -1 40 0 53
62 5 29 4 30 -30 31 -20 1 -42 -6 -51 -14z m51 -34 c0 -17 -6 -25 -22 -27 -17
-3 -23 2 -23 15 0 22 20 45 35 40 5 -2 10 -15 10 -28z"/>
<path d="M3556 1367 c-9 -43 -7 -67 4 -67 6 0 10 9 10 21 0 29 18 59 35 59 8
0 15 4 15 8 0 5 -13 9 -29 9 -24 0 -30 -5 -35 -30z"/>
<path d="M3635 1366 c-4 -17 -9 -39 -11 -48 -3 -10 -1 -18 5 -18 6 0 15 18 21
40 8 30 16 40 31 40 19 0 20 -4 14 -40 -4 -25 -3 -40 3 -40 12 0 27 75 18 89
-3 5 -22 9 -41 8 -30 -1 -35 -5 -40 -31z"/>
<path d="M3756 1383 c-14 -50 -17 -83 -7 -83 10 0 15 13 26 68 7 33 -10 47
-19 15z"/>
<path d="M3803 1354 c-10 -43 1 -75 13 -37 15 47 25 63 40 63 14 0 15 -7 10
-40 -4 -24 -2 -40 4 -40 12 0 23 40 18 71 -2 20 -10 24 -39 26 -35 2 -36 1
-46 -43z"/>
<path d="M2070 1315 c0 -8 5 -15 10 -15 6 0 10 7 10 15 0 8 -4 15 -10 15 -5 0
-10 -7 -10 -15z"/>
<path d="M2120 1315 c0 -8 5 -15 10 -15 6 0 10 7 10 15 0 8 -4 15 -10 15 -5 0
-10 -7 -10 -15z"/>
<path d="M2170 1315 c0 -8 5 -15 10 -15 6 0 10 7 10 15 0 8 -4 15 -10 15 -5 0
-10 -7 -10 -15z"/>
<path d="M4026 1321 c-4 -7 -5 -15 -2 -18 9 -9 19 4 14 18 -4 11 -6 11 -12 0z"/>
</g>
</svg>
